<svg xmlns="http://www.w3.org/2000/svg" viewBox="0 0 113.4 111.6"><path d="M113.4 55.8c0 30.8-25.4 55.8-56.7 55.8-31.3 0-56.7-25-56.7-55.8C0 25 25.4 0 56.7 0c31.3 0 56.7 25 56.7 55.8z" fill="#0054f0"/><g fill="#fff"><path d="M49.4 40.7c-.1.3.1.6.4.6l4.8-.1s-6.5 26-7.8 31.3c-1.6 6.6-4.3 13.3-6.2 15.7-1.7 2.1-2.8 2.8-4 2.8-1.6 0-2.4-1.2-2.9-3.1-.3-1.4-1.2-3.3-3.2-3.3-2.1 0-4.9 2.3-4.9 5.2 0 3.8 6.4 4.7 8.5 4.7 4.2 0 9.7-2.7 13.3-6.9 4.7-5.3 7.3-11.9 9.7-21.2L63 41.1l6.2.1c.5 0 .7-.4.8-.6l.8-2.3c.1-.3-.1-.6-.4-.6H64c1.5-5.4 3.8-13.3 8.2-17.6.4-.4 1.5-1.3 2.5-1.3 1.7 0 2.2 1 3 2.6.7 1.6.6 4.3 3 4.3 2.8 0 4.9-3.1 4.9-5.2 0-2.9-5-4.8-9.1-4.8-4.7 0-9.3 2-12.6 5.3-4.7 4.8-6.9 11.9-8.4 16.8l-4.8-.1c-.3 0-.6.3-.7.5zm24.9 26.4c-.1 1.3-.8 4.8-4.7 4.8-2.3 0-4-1.5-3.8-4.2.1-2.7 2-4.9 4.7-5 1.8.1 4 1.3 3.8 4.4zm13.9 0c-.1 1.3-.8 4.8-4.7 4.8-2.3 0-4-1.5-3.8-4.2.1-2.7 2-4.9 4.7-5 1.7.1 3.9 1.3 3.8 4.4zm13.8 0c-.1 1.3-.8 4.8-4.7 4.8-2.3 0-4-1.5-3.8-4.2.1-2.7 2-4.9 4.7-5 1.8.1 3.9 1.3 3.8 4.4zM42.5 20.3c-2.9.1-4.9 2.4-5.1 5.3-.2 2.8 1.5 4.4 4 4.4 4.2 0 5.1-3.8 5.1-5.2.2-3.2-2-4.5-4-4.5z"/><path d="M35.6 57.4L40 46.7c.9-2.1 2-4.9 2-6.8 0-2.4-1.8-3-3.1-3-6 0-12.4 7-14.8 9.8-.2.2-.3.6.1.9l1.1 1.1c.2.2.6.2.8-.1 0 0 2.9-3.2 4-4 .3-.2.7-.5 1-.5.4 0 .6.6.6.9 0 1-1 3.4-1.5 4.6l-4.6 11.7c-1.6 3.9-2.4 6-2.4 7.7 0 2 1.1 3.6 3.9 3.6 6.4 0 14.4-9.6 14.4-9.6.3-.4.2-.7 0-.9L40.3 61c-.2-.2-.6-.3-.9 0 0 0-4.3 4.8-5.8 4.8-.7 0-.6-.8-.6-.9 0-.7.4-2 .7-2.6z"/></g></svg>
