<?xml version="1.0" encoding="UTF-8" standalone="no"?>
<svg
   xmlns:dc="http://purl.org/dc/elements/1.1/"
   xmlns:cc="http://creativecommons.org/ns#"
   xmlns:rdf="http://www.w3.org/1999/02/22-rdf-syntax-ns#"
   xmlns:svg="http://www.w3.org/2000/svg"
   xmlns="http://www.w3.org/2000/svg"
   xmlns:sodipodi="http://sodipodi.sourceforge.net/DTD/sodipodi-0.dtd"
   xmlns:inkscape="http://www.inkscape.org/namespaces/inkscape"
   width="350"
   height="70.0457"
   viewBox="0 0 350 70.0457"
   version="1.1"
   id="svg30"
   sodipodi:docname="marshallai3.svg"
   inkscape:version="0.92.4 (5da689c313, 2019-01-14)">
  <metadata
     id="metadata36">
    <rdf:RDF>
      <cc:Work
         rdf:about="">
        <dc:format>image/svg+xml</dc:format>
        <dc:type
           rdf:resource="http://purl.org/dc/dcmitype/StillImage" />
        <dc:title></dc:title>
      </cc:Work>
    </rdf:RDF>
  </metadata>
  <defs
     id="defs34" />
  <sodipodi:namedview
     pagecolor="#ffffff"
     bordercolor="#666666"
     borderopacity="1"
     objecttolerance="10"
     gridtolerance="10"
     guidetolerance="10"
     inkscape:pageopacity="0"
     inkscape:pageshadow="2"
     inkscape:window-width="2736"
     inkscape:window-height="1699"
     id="namedview32"
     showgrid="false"
     inkscape:zoom="6.7612903"
     inkscape:cx="138.39427"
     inkscape:cy="-7.6954799"
     inkscape:window-x="-13"
     inkscape:window-y="-13"
     inkscape:window-maximized="1"
     inkscape:current-layer="svg30"
     fit-margin-top="0"
     fit-margin-left="0"
     fit-margin-right="0"
     fit-margin-bottom="0" />
  <g
     id="g28"
     transform="scale(2.2622387)"
     style="fill:#000000;fill-rule:evenodd">
    <path
       d="m 53.608,12.844 -3.78,4.75 h -0.49 l -3.66,-4.785 v 8.54 h -2.73 V 9.125 h 3.133 l 3.571,4.698 3.588,-4.698 h 3.098 V 21.35 h -2.73 z m 14.143,6.393 h -6.284 l -0.893,2.095 h -2.94 L 63.13,9.107 h 2.975 l 5.497,12.225 h -2.959 z m -3.133,-7.37 -2.118,4.96 h 4.218 z m 19.148,9.465 h -3.028 l -3.133,-4.017 h -1.978 v 4.017 h -2.73 V 9.107 h 5.81 c 2.959,0 4.534,1.973 4.534,4.122 0,1.589 -0.507,3.004 -2.835,3.842 l 3.36,4.052 v 0.21 z m -8.139,-9.885 v 3.563 h 3.116 c 1.26,0 1.803,-0.943 1.803,-1.711 0,-0.839 -0.578,-1.852 -1.838,-1.852 h -3.08 z m 17.189,0.646 C 92.098,11.43 90.978,11.08 89.98,11.08 c -1.173,0 -2.17,0.507 -2.17,1.328 0,1.118 1.085,1.327 2.625,1.467 2.433,0.227 4.709,1.1 4.709,3.93 0,2.706 -2.52,3.86 -5.164,3.86 -2.065,0.052 -4.323,-0.77 -5.338,-2.463 l 1.627,-1.677 c 0.91,1.188 2.538,1.712 3.729,1.712 1.487,0 2.45,-0.56 2.45,-1.468 0,-1.03 -0.805,-1.45 -2.468,-1.589 -2.573,-0.227 -4.9,-0.908 -4.848,-3.755 0,-2.445 2.345,-3.65 4.83,-3.65 1.891,0 3.309,0.384 4.57,1.834 z m 12.427,9.257 v -4.838 h -5.478 v 4.838 h -2.73 V 9.124 h 2.73 v 4.89 h 5.478 v -4.89 h 2.696 V 21.35 Z m 14.108,-2.113 h -6.284 l -0.892,2.095 h -2.94 L 114.73,9.107 h 2.976 l 5.496,12.225 h -2.958 z m -3.133,-7.37 -2.118,4.96 h 4.218 z m 11.01,-2.76 v 9.728 h 6.126 v 2.497 h -8.857 V 9.107 h 2.73 z m 10.502,0 v 9.728 h 6.126 v 2.497 h -8.857 V 9.107 h 2.73 z m 12.673,6.691 h -4.146 l -0.722,1.605 h -1.302 l 3.435,-7.641 h 1.335 l 3.435,7.64 h -1.302 z m -2.067,-4.748 -1.62,3.635 h 3.239 l -1.62,-3.635 z m 5.163,6.353 V 9.762 h 1.215 v 7.64 h -1.215 z"
       id="path24"
       inkscape:connector-curvature="0"
       style="fill:#000000;fill-rule:nonzero" />
    <path
       d="m 7.414,6.867 c 2.738,1.936 5.848,4.321 9.21,5.284 3.364,-0.963 6.48,-3.348 9.218,-5.284 0,8.62 -5.85,16.843 -5.85,16.843 0,0 -1.094,1.374 -1.094,7.253 1.917,-1.301 6.615,-6.401 8.728,-8.738 A 8.54,8.54 0 0 0 29.28,19.537 C 30.515,16.292 33.242,8.474 33.242,2.716 30.913,1.48 27.775,0.543 24.506,0 21.387,2.819 18.211,4.142 16.621,4.847 14.898,4.095 11.633,2.629 8.696,0 5.426,0.543 2.329,1.48 0,2.716 0,8.474 2.728,16.293 3.963,19.537 a 8.535,8.535 0 0 0 1.654,2.688 c 2.112,2.337 6.81,7.437 8.727,8.737 0,-5.878 -1.094,-7.252 -1.094,-7.252 0,0 -5.836,-8.356 -5.836,-16.843"
       id="path26"
       inkscape:connector-curvature="0"
       style="fill:#000000" />
  </g>
</svg>
