<svg xmlns="http://www.w3.org/2000/svg" xmlns:xlink="http://www.w3.org/1999/xlink" viewBox="0 0 791 296"><defs><path id="a" d="M92 78h600v140H92z"/></defs><defs><path id="c" d="M152.4 117.6c0 7.8-5.8 13.2-16.8 13.2h-16.5v-26.1h16.5c11 0 16.8 5.1 16.8 12.9zm35.1 79.1l-29.1-48c11.8-5.8 20.3-16.2 20.3-32.3 0-23.6-19.3-37.4-42.3-37.4H93v117.8h26.1v-42.4h13.5l25.6 42.4h29.3v-.1zm65.2-50.9h-37.9c1.2-7.3 8.3-15 19-15 10.7-.1 17.9 7.5 18.9 15zm23.1 17.1c.3-2 .5-5.9.5-8.9 0-24.1-17.5-44-43.3-44-25.1 0-43.4 19.8-43.4 44.2 0 27.9 21.3 44.9 44.3 44.9 15.5 0 29.6-8.2 37.9-20.3L252 168.5c-4.2 4.9-9.8 8.7-17.8 8.7-10.2 0-17.6-6.1-19-14.4h60.6v.1zm67.8 1.7c0 2.5 0 3.5-1.2 5.6-3.2 5.8-12.6 8.6-18.5 8.6-6.3 0-12.2-2-12.2-7.9 0-7.6 9.2-9.2 16-10.7 7.7-1.6 10.7-2.1 15.8-3.1v7.5h.1zm-.1 32.1h23.8v-52.5c0-17.3-11.3-34.5-37.8-34.5-24 0-36.1 14-39.3 24.1l22.8 4.5c2-3.8 7.5-7.8 15.3-7.8 9.5 0 15.2 4.9 15.2 10.1-5 .7-24.8 4-30 4.9-15.1 3-26.8 11.4-26.8 27.4 0 14.5 12.8 25.7 29.5 25.7 11.5 0 19.3-4 26.1-10.7h1.2v8.8zm93.4-50.6l31.4-33.9h-30.8l-27.1 28.5V79.9h-24.5v117h24.5v-22.1l9.2-9.9.2-.2 31.6 52.1h29l-43.5-70.7zm70 53.1c10.2 0 18.7-2.5 21.2-3.3v-20.6c-1.5.5-8 1.6-13.7 1.6-8 0-11.5-5.3-11.5-13.2v-31.2h23.7v-20h-23.7V91.2h-24.5v79.6c.1 17 12.1 28.4 28.5 28.4zm95.9-45.3c0 14.3-9.1 23.4-20.9 23.4-11.8 0-20.9-9-20.9-23.4 0-14.1 10-22.7 20.9-22.7 10.9 0 20.9 8.5 20.9 22.7zm23.7 0c0-24.7-19.6-44.1-44.7-44.1-24.9 0-44.6 19.4-44.6 44.1 0 28.1 21.7 44.9 44.6 44.9 23.1 0 44.7-16.8 44.7-44.9zm64-18.9v-25.2c-11.9 0-22.6 7.4-25.7 12.3v-9.9h-24.4v84.2h24.4v-40.8c0-13.7 10.4-20.6 25.7-20.6zm0 0"/></defs><defs><path id="e" d="M92 78h600v140H92V78zm0 0"/></defs><defs><path id="g" d="M92-574h612v792H92z"/></defs><clipPath id="b"><use xlink:href="#a" overflow="visible"/></clipPath><clipPath id="d" clip-path="url(#b)"><use xlink:href="#c" overflow="visible"/></clipPath><clipPath id="f" clip-path="url(#d)"><use xlink:href="#e" overflow="visible"/></clipPath><clipPath id="h" clip-path="url(#f)"><use xlink:href="#g" overflow="visible"/></clipPath><path clip-path="url(#h)" fill="#FFF" d="M88 74h607.5v147.8H88z"/></svg>