<svg xmlns="http://www.w3.org/2000/svg" xmlns:xlink="http://www.w3.org/1999/xlink" viewBox="0 0 990.9 310"><g transform="translate(-28.4 -46.6)"><defs><path id="a" d="M125.2 106.6h793.7v190.3H125.2z"/></defs><clipPath id="b"><use xlink:href="#a" overflow="visible"/></clipPath><path clip-path="url(#b)" fill="#00B4EC" d="M224.1 226.4l21 21 21-21-21-21-21 21zm-24.7 24.8l21 21 21-21-21-21-21 21zm-3.7 3.7l-21 21 21 21 21-21-21-21zM171 230.2l-21 21 21 21 21-21-21-21zm-24.7-24.8l-21 21 21 21 21-21-21-21zm21-28.4l-21-21-21 21 21 21 21-21zm24.7-24.7l-21-21-21 21 21 21 21-21zm3.7-3.7l21-21-21-21-21 21 21 21zm24.7 24.7l21-21-21-21-21 21 21 21zm24.7 24.7l21-21-21-21-21 21 21 21zM372 220.6c0-17.4-14.1-25.2-31.5-25.2h-12.6c-10.4 0-18.9-2.2-18.9-12.6 0-10.4 8.4-12.6 18.9-12.6h12.6c9.5 0 17.4 1.8 18.7 10.1v-.1c.1 1.4 1.3 2.5 2.7 2.5h7.6c1.4 0 2.4-1.1 2.4-2.4-1.3-15.7-14.8-22.7-31.3-22.7H328c-17.4 0-31.5 7.8-31.5 25.2S310.6 208 328 208h12.6c10.4 0 18.9 2.2 18.9 12.6 0 10.4-8.5 12.6-18.9 12.6H328c-9.5 0-17.4-1.8-18.7-10.1v.1c-.1-1.4-1.3-2.5-2.7-2.5H299c-1.4 0-2.4 1.1-2.4 2.4 1.3 15.7 14.8 22.7 31.3 22.7h12.6c17.4 0 31.5-7.8 31.5-25.2m83.2 0c0 10.4-8.4 12.6-18.9 12.6h-12.6c-10.4 0-18.9-2.2-18.9-12.6v-37.7c0-10.4 8.5-12.6 18.9-12.6h12.6c10.4 0 18.9 2.2 18.9 12.6v37.7zm12.6 0v-37.7c0-17.4-14.1-25.2-31.5-25.2h-12.6c-17.4 0-31.5 7.8-31.5 25.2v37.7c0 17.4 14.1 25.2 31.5 25.2h12.6c17.4 0 31.5-7.8 31.5-25.2"/></g><g transform="translate(-28.4 -46.6)"><defs><path id="c" d="M125.2 106.6h793.7v190.3H125.2z"/></defs><clipPath id="d"><use xlink:href="#c" overflow="visible"/></clipPath><path clip-path="url(#d)" fill="#FFF" d="M195.7 205.4l-21 21 21 21 21-21-21-21zm-3.7-3.7l-21-21-21 21 21 21 21-21zm3.7-3.7l21-21-21-21-21 21 21 21zm24.7 24.7l21-21-21-21-21 21 21 21zm330-65H522c-17.4 0-31.5 7.8-31.5 25.2V242c0 1.4 1.1 2.5 2.5 2.5h7.6c1.4 0 2.5-1.1 2.5-2.5v-34h22.6c1.4 0 2.5-1.1 2.5-2.5V198c0-1.4-1.1-2.5-2.5-2.5h-22.6v-12.6c0-10.4 8.5-12.6 18.9-12.6h19.3c1.5-5.5 4.7-9.7 9.1-12.6m73.1 62.9c0 10.4-8.5 12.6-18.9 12.6H592c-10.4 0-18.9-2.2-18.9-12.6v-37.7c0-10.4 8.4-12.6 18.9-12.6h12.6c10.4 0 18.9 2.2 18.9 12.6v37.7zm12.5 0v-37.7c0-17.4-14.1-25.2-31.4-25.2H592c-17.4 0-31.5 7.8-31.5 25.2v37.7c0 17.4 14.1 25.2 31.5 25.2h12.6c17.4 0 31.4-7.8 31.4-25.2m96.2 21.4l-17.8-30.8c-2.6-4.4-6.2-8.1-10.5-10.9 3.3-2.9 6-6.4 7.9-10.4l13.2-28.4c.6-1.4 0-2.5-1.3-2.5h-8.8c-1.4 0-3 1.1-3.7 2.5l-10.8 23.1c-3 6.4-9.5 10.9-17.1 10.9h-12.6v-34c0-1.4-1.1-2.5-2.5-2.5h-7.5c-1.4 0-2.5 1.1-2.5 2.5V242c0 1.4 1.1 2.5 2.5 2.5h7.6c1.4 0 2.5-1.1 2.5-2.5v-34h16.4c7 0 13.1 3.8 16.3 9.4l14.2 24.5c.8 1.4 2.6 2.5 4 2.5h9.5c1.4.1 1.8-1 1-2.4m91-21.4v-59.1c0-1.4-1.1-2.5-2.5-2.5h-7.5c-1.4 0-2.5 1.1-2.5 2.5v59.1c0 10.4-8.5 12.6-18.9 12.6h-12.6c-10.4 0-18.9-2.2-18.9-12.6v-59.1c0-1.4-1.1-2.5-2.5-2.5h-7.5c-1.4 0-2.5 1.1-2.5 2.5v59.1c0 17.4 14.1 25.2 31.5 25.2h12.6c17.2 0 31.3-7.8 31.3-25.2m64.3-25.2h-12.6c-10.4 0-18.9-2.2-18.9-12.6 0-10.4 8.5-12.6 18.9-12.6h12.6c9.5 0 17.4 1.8 18.7 10.1v-.1c.1 1.4 1.3 2.5 2.7 2.5h7.6c1.4 0 2.4-1.1 2.4-2.4-1.3-15.7-14.8-22.7-31.3-22.7h-12.7c-17.4 0-31.5 7.8-31.5 25.2s14.1 25.2 31.5 25.2h12.6c10.4 0 18.9 2.2 18.9 12.6 0 10.4-8.4 12.6-18.9 12.6h-12.6c-9.5 0-17.4-1.8-18.7-10.1v.1c-.1-1.4-1.3-2.5-2.7-2.5h-7.6c-1.4 0-2.4 1.1-2.4 2.4 1.3 15.7 14.8 22.7 31.3 22.7h12.6c17.4 0 31.5-7.8 31.5-25.2s-14-25.2-31.4-25.2"/></g></svg>