<?xml version="1.0" encoding="utf-8"?>
<!-- Generator: Adobe Illustrator 22.1.0, SVG Export Plug-In . SVG Version: 6.00 Build 0)  -->
<svg version="1.1" id="Layer_1" xmlns="http://www.w3.org/2000/svg" xmlns:xlink="http://www.w3.org/1999/xlink" x="0px" y="0px"
	 viewBox="0 0 297.6 48.3" style="enable-background:new 0 0 297.6 48.3;" xml:space="preserve">
<style type="text/css">
	.st0{fill:#FFFFFF;}
</style>
<g>
	<polygon class="st0" points="119.1,0 94.9,24.2 119.1,48.3 132.5,48.3 108.4,24.2 132.5,0 	"/>
	<rect x="49.7" y="19.2" class="st0" width="35.3" height="9.9"/>
	<rect class="st0" width="85" height="9.9"/>
	<rect x="49.7" y="38.4" class="st0" width="35.3" height="9.9"/>
	<rect x="19.9" y="19.2" class="st0" width="9.9" height="29.1"/>
</g>
<g>
	<path class="st0" d="M159.3,6.8v13.3h-1.6V6.8h-4.2V5.4h10.1v1.4H159.3z"/>
	<path class="st0" d="M166.9,20.1V5.4h9.1v1.4h-7.5V12h6.4v1.4h-6.4v5.3h7.5v1.4H166.9z"/>
	<path class="st0" d="M188.8,20.1l-4.5-7.8l-3.1,3.7v4.1h-1.6V5.4h1.6v8.4l6.8-8.4h1.9l-4.6,5.7l5.3,9H188.8z"/>
	<path class="st0" d="M203.2,20.1l-7.8-11.8v11.8h-1.6V5.4h1.5l7.8,11.7V5.4h1.6v14.7H203.2z"/>
	<path class="st0" d="M209.1,20.1V5.4h1.6v14.7H209.1z"/>
	<path class="st0" d="M215.1,20.1V5.4h1.6v14.7H215.1z"/>
	<path class="st0" d="M230.2,20.1l-4.5-7.8l-3.1,3.7v4.1h-1.6V5.4h1.6v8.4l6.8-8.4h1.9l-4.6,5.7l5.3,9H230.2z"/>
	<path class="st0" d="M244.8,20.1l-1.2-3.3h-6.4l-1.2,3.3h-1.7l5.4-14.7h1.3l5.4,14.7H244.8z M240.5,7.7l-2.8,7.7h5.5L240.5,7.7z"/>
	<path class="st0" d="M259,20.1l-7.8-11.8v11.8h-1.6V5.4h1.5l7.8,11.7V5.4h1.6v14.7H259z"/>
	<path class="st0" d="M163.6,42.8l-1.2-3.3H156l-1.2,3.3h-1.7l5.4-14.7h1.3l5.4,14.7H163.6z M159.2,30.3l-2.8,7.7h5.5L159.2,30.3z"
		/>
	<path class="st0" d="M177.6,42.8l-4.5-7.8l-3.1,3.7v4.1h-1.6V28.1h1.6v8.4l6.8-8.4h1.9l-4.6,5.7l5.3,9H177.6z"/>
	<path class="st0" d="M192.1,42.8l-1.2-3.3h-6.4l-1.2,3.3h-1.7l5.4-14.7h1.3l5.4,14.7H192.1z M187.8,30.3l-2.8,7.7h5.5L187.8,30.3z"
		/>
	<path class="st0" d="M199.9,29.5v13.3h-1.6V29.5h-4.2v-1.4h10.1v1.4H199.9z"/>
	<path class="st0" d="M207.6,42.8V28.1h9.1v1.4h-7.5v5.2h6.4v1.4h-6.4v5.3h7.5v1.4H207.6z"/>
	<path class="st0" d="M220.3,42.8V28.1h9.1v1.4h-7.5v5.2h6.4v1.4h-6.4v5.3h7.5v1.4H220.3z"/>
	<path class="st0" d="M244,42.8V31.6l-4,8.8h-1.3l-4.1-8.8v11.1H233V28.1h1.6l4.8,10.4l4.7-10.4h1.6v14.7H244z"/>
	<path class="st0" d="M250,42.8V28.1h1.6v14.7H250z"/>
	<path class="st0" d="M265.2,38.7c0,0.6-0.1,1.2-0.4,1.7c-0.2,0.5-0.6,1-1,1.3c-0.4,0.4-1,0.6-1.6,0.8c-0.6,0.2-1.3,0.3-2.1,0.3
		c-0.5,0-1.1,0-1.5-0.1c-0.5-0.1-0.9-0.2-1.3-0.3c-0.4-0.2-0.8-0.3-1.1-0.6c-0.4-0.2-0.7-0.5-1-0.9l1-1.1c0.6,0.6,1.2,1,1.8,1.2
		c0.6,0.2,1.3,0.3,2.2,0.3c1.1,0,1.9-0.2,2.6-0.7c0.6-0.5,0.9-1.1,0.9-2c0-0.8-0.2-1.4-0.7-1.8c-0.1-0.1-0.2-0.2-0.3-0.3
		c-0.1-0.1-0.2-0.1-0.4-0.2c-0.1-0.1-0.3-0.1-0.5-0.1c-0.2,0-0.4-0.1-0.7-0.1l-1.7-0.2c-1.2-0.2-2-0.5-2.7-1.1
		c-0.8-0.7-1.1-1.6-1.1-2.8c0-0.6,0.1-1.2,0.3-1.7c0.2-0.5,0.5-0.9,0.9-1.3c0.4-0.4,0.9-0.6,1.5-0.8c0.6-0.2,1.2-0.3,2-0.3
		c0.9,0,1.7,0.1,2.4,0.4c0.7,0.3,1.3,0.7,2,1.2l-1,1c-0.4-0.4-0.9-0.7-1.5-1c-0.5-0.2-1.2-0.3-2-0.3c-1,0-1.8,0.3-2.3,0.8
		c-0.5,0.5-0.8,1.2-0.8,2c0,0.8,0.2,1.3,0.7,1.7c0.2,0.2,0.5,0.4,0.8,0.5c0.3,0.1,0.7,0.2,1.1,0.3l1.7,0.3c0.7,0.1,1.2,0.2,1.6,0.4
		c0.4,0.1,0.7,0.4,1.1,0.7c0.4,0.3,0.7,0.8,0.9,1.2C265.1,37.5,265.2,38.1,265.2,38.7z"/>
	<path class="st0" d="M268.8,42.8V28.1h9.1v1.4h-7.5v5.2h6.4v1.4h-6.4v5.3h7.5v1.4H268.8z"/>
	<path class="st0" d="M286.6,29.5v13.3h-1.6V29.5h-4.2v-1.4h10.1v1.4H286.6z"/>
</g>
</svg>
