<?xml version="1.0" encoding="UTF-8" standalone="no"?>
<svg
   xmlns:dc="http://purl.org/dc/elements/1.1/"
   xmlns:cc="http://creativecommons.org/ns#"
   xmlns:rdf="http://www.w3.org/1999/02/22-rdf-syntax-ns#"
   xmlns:svg="http://www.w3.org/2000/svg"
   xmlns="http://www.w3.org/2000/svg"
   xmlns:sodipodi="http://sodipodi.sourceforge.net/DTD/sodipodi-0.dtd"
   xmlns:inkscape="http://www.inkscape.org/namespaces/inkscape"
   width="250"
   height="57.582504"
   viewBox="0 0 250.00001 57.582504"
   version="1.1"
   id="svg66"
   sodipodi:docname="vaadin2.svg"
   inkscape:version="0.92.4 (5da689c313, 2019-01-14)">
  <metadata
     id="metadata72">
    <rdf:RDF>
      <cc:Work
         rdf:about="">
        <dc:format>image/svg+xml</dc:format>
        <dc:type
           rdf:resource="http://purl.org/dc/dcmitype/StillImage" />
        <dc:title>vaadin-logo-full</dc:title>
      </cc:Work>
    </rdf:RDF>
  </metadata>
  <defs
     id="defs70" />
  <sodipodi:namedview
     pagecolor="#ffffff"
     bordercolor="#666666"
     borderopacity="1"
     objecttolerance="10"
     gridtolerance="10"
     guidetolerance="10"
     inkscape:pageopacity="0"
     inkscape:pageshadow="2"
     inkscape:window-width="2736"
     inkscape:window-height="1699"
     id="namedview68"
     showgrid="false"
     fit-margin-top="0"
     fit-margin-left="0"
     fit-margin-right="0"
     fit-margin-bottom="0"
     inkscape:zoom="3.3603917"
     inkscape:cx="83.772916"
     inkscape:cy="19.260002"
     inkscape:window-x="-13"
     inkscape:window-y="-13"
     inkscape:window-maximized="1"
     inkscape:current-layer="svg66" />
  <title
     id="title56">vaadin-logo-full</title>
  <g
     data-name="Layer 1"
     id="g64"
     transform="matrix(1.492155,0,0,1.492155,0.00435588,2.417748e-4)">
    <path
       d="M 167.54,19.32 A 2.28,2.28 0 0 0 166.2,17.25 L 166.11,17.2 151.4,9.25 a 2.55,2.55 0 0 0 -3.82,2.21 2.48,2.48 0 0 0 1.74,2.42 l 10.16,5.45 -10.14,5.44 a 2.49,2.49 0 0 0 -1.75,2.42 2.55,2.55 0 0 0 3.81,2.21 l 14.7,-8 h 0.06 a 2.28,2.28 0 0 0 1.37,-2.09"
       id="path58"
       inkscape:connector-curvature="0"
       style="fill:#02afeb" />
    <path
       d="m 43.68,19.56 a 10.75,10.75 0 1 0 -5,9.26 l 0.26,-0.16 0.11,0.28 A 2.38,2.38 0 0 0 43.68,28 Z m -10.79,5.29 a 5.29,5.29 0 1 1 5.29,-5.29 5.29,5.29 0 0 1 -5.29,5.29 m 34.94,-5.29 a 10.7,10.7 0 1 0 -5,9.26 l 0.26,-0.16 0.12,0.28 a 2.35,2.35 0 0 0 2.2,1.55 2.4,2.4 0 0 0 2.42,-2.49 z m -10.76,5.29 a 5.29,5.29 0 1 1 5.29,-5.29 5.29,5.29 0 0 1 -5.29,5.29 M 87.35,29 a 2.56,2.56 0 0 0 4.93,-1 V 2.91 a 2.62,2.62 0 0 0 -5.24,0 v 7.4 L 86.85,10.15 A 10.55,10.55 0 0 0 81.21,8.52 11,11 0 1 0 87.1,28.89 l 0.17,-0.11 z m -6.1,-4.21 a 5.2,5.2 0 1 1 5.2,-5.2 5.21,5.21 0 0 1 -5.2,5.2 M 124.79,11.84 C 123,10 120.45,9 117.11,9 a 11.92,11.92 0 0 0 -4.56,1.16 3,3 0 0 0 -5.81,0.81 v 17 a 3,3 0 0 0 6,0 V 19 c 0,-1.88 1.39,-3.91 4.43,-3.91 3.04,0 4.23,2.09 4.23,3.58 v 9.41 a 3,3 0 0 0 6,0 V 19 a 10.45,10.45 0 0 0 -2.52,-7.21 M 18.62,8.21 a 2.79,2.79 0 0 0 -2.73,1.94 L 10.76,21.21 5.62,10.15 A 2.79,2.79 0 0 0 2.89,8.21 2.89,2.89 0 0 0 0.37,12.52 l 8,17.09 a 2.3,2.3 0 0 0 2.43,1.32 2.31,2.31 0 0 0 2.43,-1.33 L 21.17,12.53 A 2.89,2.89 0 0 0 18.66,8.21 m 80.85,0.02 a 3,3 0 0 0 -3,2.89 v 16.72 a 3,3 0 1 0 6,0 V 11.12 a 3,3 0 0 0 -3,-2.9 m 0,-8.11 a 3.13,3.13 0 1 1 -3.12,3.13 3.12,3.12 0 0 1 3.12,-3.13"
       id="path60"
       inkscape:connector-curvature="0"
       style="fill:#34373b" />
    <path
       d="m 145.7,19.31 a 2,2 0 0 0 -2,-2 h -0.49 a 1.93,1.93 0 0 1 -1.92,-1.93 V 4.95 A 4.94,4.94 0 0 0 136.31,0 h -3.81 a 1.9,1.9 0 0 0 -0.93,3.55 1.89,1.89 0 0 0 0.93,0.24 h 1.19 a 1.93,1.93 0 0 1 1.93,1.93 v 9.44 a 4.07,4.07 0 0 0 3.46,4 6,6 0 0 0 1,0.1 v 0.09 a 6,6 0 0 0 -1,0.1 4.07,4.07 0 0 0 -3.45,4 v 9.42 a 1.93,1.93 0 0 1 -1.93,1.93 h -1.19 a 1.89,1.89 0 0 0 -0.93,0.24 1.9,1.9 0 0 0 0.93,3.55 h 3.81 a 4.94,4.94 0 0 0 4.94,-4.95 V 23.31 a 1.93,1.93 0 0 1 1.92,-1.93 h 0.49 a 2,2 0 0 0 2,-2 z"
       id="path62"
       inkscape:connector-curvature="0"
       style="fill:#00b4f0" />
  </g>
</svg>
