<?xml version="1.0" encoding="UTF-8" standalone="no"?>
<svg
   xmlns:dc="http://purl.org/dc/elements/1.1/"
   xmlns:cc="http://creativecommons.org/ns#"
   xmlns:rdf="http://www.w3.org/1999/02/22-rdf-syntax-ns#"
   xmlns:svg="http://www.w3.org/2000/svg"
   xmlns="http://www.w3.org/2000/svg"
   xmlns:sodipodi="http://sodipodi.sourceforge.net/DTD/sodipodi-0.dtd"
   xmlns:inkscape="http://www.inkscape.org/namespaces/inkscape"
   height="66.677452"
   viewBox="0 0 250 66.677452"
   width="250"
   version="1.1"
   id="svg126"
   sodipodi:docname="valohai.svg"
   style="fill:none"
   inkscape:version="0.92.4 (5da689c313, 2019-01-14)">
  <metadata
     id="metadata132">
    <rdf:RDF>
      <cc:Work
         rdf:about="">
        <dc:format>image/svg+xml</dc:format>
        <dc:type
           rdf:resource="http://purl.org/dc/dcmitype/StillImage" />
        <dc:title></dc:title>
      </cc:Work>
    </rdf:RDF>
  </metadata>
  <defs
     id="defs130" />
  <sodipodi:namedview
     pagecolor="#ffffff"
     bordercolor="#666666"
     borderopacity="1"
     objecttolerance="10"
     gridtolerance="10"
     guidetolerance="10"
     inkscape:pageopacity="0"
     inkscape:pageshadow="2"
     inkscape:window-width="2736"
     inkscape:window-height="1699"
     id="namedview128"
     showgrid="false"
     fit-margin-top="0"
     fit-margin-left="0"
     fit-margin-right="0"
     fit-margin-bottom="0"
     inkscape:zoom="4.3643411"
     inkscape:cx="64.5"
     inkscape:cy="16.905562"
     inkscape:window-x="-13"
     inkscape:window-y="-13"
     inkscape:window-maximized="1"
     inkscape:current-layer="svg126" />
  <g
     id="g124"
     style="fill:#000000"
     transform="scale(1.9379845)">
    <path
       d="M 17.2,5e-8 C 13.7984,-2.6834e-4 10.4731,1.00843 7.64459,2.89853 4.8161,4.78863 2.6115,7.47524 1.30957,10.6186 0.00763348,13.762 -0.333151,17.2209 0.330309,20.558 0.99377,23.8951 2.63168,26.9605 5.0369,29.3665 c 2.40521,2.406 5.4697,4.0445 8.806,4.7084 3.3362,0.6639 6.7944,0.3233 9.9371,-0.9787 3.1427,-1.302 5.8288,-3.5069 7.7187,-6.336 1.8899,-2.829 2.8986,-6.155 2.8986,-9.5574 C 34.3923,12.6421 32.5788,8.26962 29.3549,5.0446 26.1309,1.81959 21.7596,0.00538773 17.2,5e-8 Z M 17.2,31.7539 C 14.3214,31.7542 11.5073,30.9006 9.1138,29.301 6.72025,27.7014 4.85474,25.4278 3.7532,22.7676 2.65166,20.1074 2.36358,17.1803 2.9254,14.3563 3.48722,11.5324 4.87371,8.93852 6.90949,6.90282 8.94526,4.86713 11.5389,3.48104 14.3623,2.91987 c 2.8234,-0.56117 5.7498,-0.2722 8.409,0.83035 2.6593,1.10254 4.9318,2.96914 6.5304,5.36371 1.5985,2.39457 2.4511,5.20947 2.4501,8.08887 -0.0043,3.8591 -1.5388,7.5589 -4.2668,10.2878 -2.728,2.7289 -6.4268,4.2641 -10.285,4.2688 z"
       id="path104"
       style="fill:#000000"
       inkscape:connector-curvature="0" />
    <path
       d="m 6.28564,25.699 c 0,-7.2683 7.94336,-19.75271 10.91456,-19.75271 2.9697,0 10.9145,12.47781 10.917,19.75271 0,1.2785 -0.1514,2.5146 -0.4331,3.6836 -0.3071,0.2114 -0.6338,0.4253 -0.9785,0.6372 0.2715,-1.2381 0.4174,-2.5506 0.4174,-3.9097 0,-7.4988 -4.4404,-13.5796 -9.9213,-13.5796 -5.481,0 -9.92289,6.0808 -9.92289,13.5796 0,1.3953 0.15381,2.7412 0.43896,4.0081 C 7.36963,29.896 7.04102,29.6711 6.73438,29.4482 6.44238,28.2598 6.28564,27.0015 6.28564,25.699 Z"
       id="path106"
       style="clip-rule:evenodd;fill:#000000;fill-rule:evenodd"
       inkscape:connector-curvature="0" />
    <path
       d="m 17.2002,19.9386 c 3.6114,0 6.6599,3.1211 7.6218,7.4065 0.2105,-0.9458 0.3161,-1.9119 0.3147,-2.8809 0,-5.6818 -3.5531,-10.2874 -7.9365,-10.2874 -4.3835,0 -7.93798,4.6056 -7.93798,10.2874 -0.00134,0.969 0.10422,1.9351 0.31475,2.8809 0.96193,-4.28 4.01033,-7.4065 7.62323,-7.4065 z"
       id="path108"
       style="fill:#000000"
       inkscape:connector-curvature="0" />
    <path
       d="m 42.1157,11.0962 3.9629,9.0024 3.857,-9.0024 h 2.8395 L 46.5832,25.2918 H 45.6431 L 39.249,11.0962 Z"
       id="path110"
       style="fill:#000000"
       inkscape:connector-curvature="0" />
    <path
       d="m 59.2651,11.0962 6.1851,14.0151 h -2.849 l -1.4543,-3.4128 h -6.2367 l -1.3567,3.4128 h -2.8382 l 5.7808,-14.0151 z m -3.5273,8.5491 h 4.5258 l -2.3687,-5.5501 z"
       id="path112"
       style="fill:#000000"
       inkscape:connector-curvature="0" />
    <path
       d="m 69.8109,11.0962 v 11.9023 h 6.8024 v 2.1183 H 67.1016 V 11.0962 Z"
       id="path114"
       style="fill:#000000"
       inkscape:connector-curvature="0" />
    <path
       d="m 85.2431,10.9102 c 1.3594,-0.0216 2.7038,0.2866 3.9181,0.8984 1.1481,0.5963 2.1109,1.4959 2.7839,2.601 0.673,1.1051 1.0304,2.3735 1.0335,3.6675 0.0031,1.2939 -0.3483,2.564 -1.016,3.6723 -0.6678,1.1083 -1.6263,2.0124 -2.7716,2.6142 -1.2318,0.613 -2.5894,0.9308 -3.9653,0.9282 -1.3758,-0.0026 -2.7322,-0.3255 -3.9618,-0.9431 -1.1451,-0.5884 -2.104,-1.4839 -2.7694,-2.5863 -0.6653,-1.1024 -1.0109,-2.3683 -0.9981,-3.6559 -0.0023,-1.2754 0.3409,-2.5275 0.9931,-3.6233 0.648,-1.1179 1.5971,-2.0311 2.7392,-2.6353 1.164,-0.6251 2.5021,-0.9377 4.0144,-0.9377 z m -4.9465,7.1922 c -0.0132,0.8772 0.2044,1.7425 0.6309,2.5091 0.4116,0.7316 1.0235,1.3304 1.7637,1.7261 0.7865,0.4156 1.6652,0.626 2.5546,0.612 1.4381,0 2.6202,-0.4523 3.5464,-1.357 0.9261,-0.9047 1.3897,-2.0685 1.3906,-3.4916 0.0126,-0.8785 -0.2039,-1.7452 -0.6282,-2.5145 -0.4078,-0.7359 -1.0205,-1.3375 -1.7637,-1.7315 -0.7943,-0.4042 -1.6729,-0.6148 -2.5641,-0.6148 -0.8912,0 -1.7698,0.2106 -2.5641,0.6148 -0.7396,0.3918 -1.348,0.9919 -1.7501,1.7261 -0.4195,0.7746 -0.6317,1.6445 -0.616,2.5254 z"
       id="path116"
       style="fill:#000000"
       inkscape:connector-curvature="0" />
    <path
       d="m 98.2168,11.0962 v 5.9016 h 7.2742 v -5.9016 h 2.714 v 14.0151 h -2.714 v -5.9219 h -7.2742 v 5.9219 H 95.5034 V 11.0962 Z"
       id="path118"
       style="fill:#000000"
       inkscape:connector-curvature="0" />
    <path
       d="m 118.395,11.0962 6.19,14.0206 h -2.86 l -1.454,-3.4129 h -6.231 l -1.357,3.4129 h -2.837 l 5.78,-14.0206 z m -3.528,8.5491 h 4.525 l -2.368,-5.5501 z"
       id="path120"
       style="fill:#000000"
       inkscape:connector-curvature="0" />
    <path
       d="m 129,11.0962 v 14.0151 h -2.713 V 11.0962 Z"
       id="path122"
       style="fill:#000000"
       inkscape:connector-curvature="0" />
  </g>
</svg>
