<?xml version="1.0" encoding="utf-8"?>
<!-- Generator: Adobe Illustrator 16.0.4, SVG Export Plug-In . SVG Version: 6.00 Build 0)  -->
<!DOCTYPE svg PUBLIC "-//W3C//DTD SVG 1.1//EN" "http://www.w3.org/Graphics/SVG/1.1/DTD/svg11.dtd">
<svg version="1.1" id="Layer_1" xmlns="http://www.w3.org/2000/svg" xmlns:xlink="http://www.w3.org/1999/xlink" x="0px" y="0px"
	 width="320.31px" height="50px" viewBox="0 0 320.31 50" enable-background="new 0 0 320.31 50" xml:space="preserve">
<path fill-rule="evenodd" clip-rule="evenodd" fill="#221F1F" d="M135.652,13.141c-0.393,8.031-0.056,16.791-0.168,25.101
	c2.078,0,4.156,0,6.233,0c0-8.367,0-16.734,0-25.101C139.696,13.141,137.674,13.141,135.652,13.141z"/>
<path fill-rule="evenodd" clip-rule="evenodd" d="M272.274,22.069c-0.939-6.809-7.368-8.13-14.319-8.928
	c-7.469-0.281-16.116-0.281-23.584,0c0,8.367,0,16.734,0,25.101c0.057,0,0.112,0,0.169,0c2.021,0,4.235,0.02,6.256,0.02
	c0.037-0.618,0.041-20.602,0.079-22.866c4.38,0,8.994-0.233,13.374-0.233c6.104,0.129,10.406,2.06,11.624,7.076
	c0,5.335,0,10.669,0,16.004c1.797,0.393,4.323,0.057,6.401,0.169C272.554,33.354,272.557,27.125,272.274,22.069z"/>
<path fill-rule="evenodd" clip-rule="evenodd" d="M44.683,36.221c-4.66,0-9.321,0-13.982,0c-5.346-0.493-9.564-2.115-10.613-6.907
	c-0.393-5.054-0.056-10.838-0.168-16.172c0-0.056,0-0.112,0-0.168c-2.134,0-4.268,0-6.401,0c0.112,5.672-0.225,11.792,0.168,17.184
	c1.542,6.095,7.819,7.454,14.825,8.086c5.054,0.393,10.837,0.057,16.172,0.169C44.914,38.016,44.998,36.602,44.683,36.221z"/>
<path fill-rule="evenodd" clip-rule="evenodd" d="M185.854,21.564c-1.252-6.329-7.485-7.676-14.319-8.423
	c-2.64-0.281-6.456-0.281-9.097,0c-6.83,0.751-13.072,2.089-14.319,8.423c-0.281,2.359-0.281,5.896,0,8.254
	c1.228,6.297,7.401,7.649,14.151,8.424c2.752,0.28,6.682,0.28,9.434,0c6.751-0.774,12.923-2.127,14.15-8.424
	C186.134,27.46,186.134,23.923,185.854,21.564z M179.452,28.977c-0.943,5.233-5.374,6.98-11.287,7.244c-0.786,0-1.572,0-2.357,0
	c-5.913-0.264-10.344-2.011-11.288-7.244c-0.281-1.799-0.281-4.772,0-6.57c0.981-5.308,5.513-7.066,11.624-7.244
	c0.562,0,1.124,0,1.686,0c6.11,0.178,10.642,1.936,11.623,7.244C179.732,24.205,179.732,27.178,179.452,28.977z"/>
<path fill-rule="evenodd" clip-rule="evenodd" d="M102.634,13.141c-6.807,0.494-11.984,2.616-13.309,8.592
	c-0.281,2.022-0.281,5.221,0,7.244c0.583,7.054,6.766,8.508,13.646,9.266c8.086,0,16.172,0,24.258,0c0-4.436,0-8.872,0-13.31
	c0-0.056,0-0.112,0-0.167c-6.29,0-12.579,0-18.868,0c0,0.055,0,0.111,0,0.167c-0.7,2.291,1.161,1.854,3.033,1.854
	c3.128,0,7.356,0,9.434,0c0,0.057,0,0.112,0,0.168c0,3.032,0,6.064,0,9.097c-4.324,0-8.648,0-12.972,0c-0.562,0-1.124,0-1.685,0
	c-5.238-0.321-9.08-2.039-10.276-6.4c0-2.864,0-5.728,0-8.592c0.409-3.297,1.985-5.426,5.222-5.896c8.704,0,17.408,0,26.112,0
	c0-0.056,0-0.112,0-0.168c0-0.618,0-1.235,0-1.853C119.031,13.141,110.833,13.141,102.634,13.141z"/>
<path fill-rule="evenodd" clip-rule="evenodd" d="M316.074,22.069c-1.056-7.03-7.68-8.492-15.33-8.928
	c-2.042-0.142-4.801-0.091-7.729,0c-4.169,0-8.339,0-12.508,0c-0.215,0-0.431,0-0.646,0c-0.508,0-1.016,0-1.523,0
	c0,0.543,0,1.086,0,1.629c-0.016,0.154-0.026,0.318-0.026,0.5c6.683,0,13.224,0.061,19.905,0.061
	c5.737,0.215,10.115,1.79,11.287,6.57c0,0.891,0,1.783,0,2.673c-0.011,0.007-0.015,0.017-0.025,0.022l0,0
	c-7.35,0.111-15.145-0.225-22.211,0.169c-5.163,0.214-10.747,3.921-8.593,9.434c0.978,2.499,3.565,3.577,6.907,4.043
	c5.392,0.28,11.961,0.28,17.352,0c2.578-0.117,4.725-0.667,6.739-1.348c0.076,1.251,0.047,0.779,0.014,1.376
	c2.077,0,4.31-0.028,6.387-0.028c0,0.057,0,0.112,0,0.169C316.355,33.356,316.355,27.124,316.074,22.069z M309.479,24.597
	c-0.526,0.291-1.854,0.208-3.099,0.157C307.622,24.804,308.952,24.888,309.479,24.597z M305.95,24.739
	c-0.062-0.002-0.121-0.003-0.181-0.005C305.829,24.736,305.889,24.737,305.95,24.739z M305.221,24.731
	c-0.026,0-0.051,0.002-0.076,0.002C305.17,24.733,305.194,24.731,305.221,24.731z M297.881,36.221c-0.618,0-1.236,0-1.854,0
	c-0.505,0-1.01,0-1.516,0c-1.461,0-2.92,0-4.381,0c-8.018,0.473-6.571-10.222,1.181-9.434c6.063,0,12.128,0,18.193,0
	c0,1.066,0,2.134,0,3.2C308.208,34.644,303.708,36.097,297.881,36.221z"/>
<path fill-rule="evenodd" clip-rule="evenodd" fill="#E5B313" d="M63.214,36.052c-5.288-0.384-9.294-2.049-10.276-6.738
	c-0.229-0.938-0.059-1.737-0.168-2.526c7.075,0,14.151,0,21.226,0c5.665-0.102,11.527-3.119,10.107-8.76
	c-0.812-3.228-3.991-4.585-8.086-4.886c-4.493-0.281-10.164-0.281-14.656,0c-7.539,0.21-13.353,2.147-14.825,8.423
	c-0.281,2.415-0.281,6.008,0,8.423c1.174,6.069,6.94,7.549,13.478,8.255c7.749,0.393,16.228,0.057,24.258,0.169
	c0-0.057,0-0.112,0-0.169c0-0.674,0-1.348,0-2.021C77.309,36.107,69.896,36.445,63.214,36.052z M62.877,15.332
	c3.481,0,6.963,0,10.445,0c7.077,0.433,5.366,9.189-1.166,9.33c-1.264,0.03-3.057,0.047-4.449,0.101
	c-0.097,0.002-0.182,0.002-0.281,0.004c-4.83,0-9.659,0-14.488,0c0-1.011,0-2.022,0-3.033
	C53.947,17.296,57.852,15.753,62.877,15.332z"/>
<path fill-rule="evenodd" clip-rule="evenodd" d="M228.604,21.564c-1.252-6.329-7.485-7.676-14.319-8.423
	c-2.64-0.281-6.456-0.281-9.097,0c-6.83,0.751-13.072,2.089-14.318,8.423c-0.281,2.359-0.281,5.896,0,8.254
	c1.227,6.297,7.4,7.649,14.15,8.424c2.752,0.28,6.682,0.28,9.434,0c6.751-0.774,12.923-2.127,14.15-8.424
	C228.884,27.46,228.884,23.923,228.604,21.564z M222.202,28.977c-0.943,5.233-5.374,6.98-11.287,7.244c-0.786,0-1.572,0-2.357,0
	c-5.913-0.264-10.345-2.011-11.288-7.244c-0.28-1.799-0.28-4.772,0-6.57c0.982-5.308,5.514-7.066,11.624-7.244
	c0.562,0,1.124,0,1.686,0c6.11,0.178,10.642,1.936,11.623,7.244C222.482,24.205,222.482,27.178,222.202,28.977z"/>
</svg>
