<?xml version="1.0" encoding="utf-8"?>
<!-- Generator: Adobe Illustrator 16.0.0, SVG Export Plug-In . SVG Version: 6.00 Build 0)  -->
<!DOCTYPE svg PUBLIC "-//W3C//DTD SVG 1.1//EN" "http://www.w3.org/Graphics/SVG/1.1/DTD/svg11.dtd">
<svg version="1.1" id="Layer_1" xmlns="http://www.w3.org/2000/svg" xmlns:xlink="http://www.w3.org/1999/xlink" x="0px" y="0px"
	 width="109.789px" height="107.757px" viewBox="0 0 109.789 107.757" enable-background="new 0 0 109.789 107.757"
	 xml:space="preserve">
<path fill-rule="evenodd" clip-rule="evenodd" fill="#DE433C" d="M22.921,81.496c0,0,0,0-11.853,4.621
	c-1.573-2.55-3.223-5.222-4.917-7.965c3.668-3.267,6.393-5.694,9.326-8.307c-0.648-2.423-1.283-4.792-2.055-7.672
	c-4.014-0.736-8.207-1.506-12.885-2.363C0.366,57.127,0.202,54.572,0,51.428c4.347-1.292,8.386-2.493,12.862-3.824
	c0.543-2.314,1.135-4.833,1.719-7.324c-3.395-2.851-6.48-5.441-9.877-8.292c1.329-2.551,2.608-5.006,4.121-7.908
	c4.103,1.257,8.01,2.454,12.429,3.809c1.68-1.732,3.484-3.595,5.489-5.663c-1.516-3.976-2.98-7.815-4.576-11.998
	c2.429-1.554,4.775-3.056,7.767-4.97c2.813,3.266,5.597,6.497,8.332,9.671c2.992-0.898,5.354-1.608,8.069-2.423
	C47.056,8.382,47.762,4.343,48.521,0c3.053,0,5.993,0,9.375,0c0.799,3.738,1.625,7.602,2.52,11.788
	c2.297,0.67,4.653,1.357,7.551,2.203c2.705-3.2,5.45-6.447,8.471-10.022c2.681,1.458,5.241,2.852,8.063,4.388
	c-1.261,4.088-2.429,7.873-3.825,12.399c1.717,1.532,3.663,3.27,5.938,5.3c3.747-1.413,7.596-2.864,11.899-4.487
	c1.627,2.526,3.199,4.967,4.884,7.582c-3.259,2.967-6.259,5.697-9.618,8.757c0.825,2.475,1.65,4.948,2.543,7.62
	c4.101,0.751,8.162,1.495,12.453,2.28c0.318,2.787,0.615,5.39,1.015,8.888c-4.032,0.983-8.116,1.979-13.022,3.175
	c-0.664,2.023-1.49,4.541-2.339,7.125c3.749,2.992,6.961,5.556,10.589,8.451c-1.326,2.571-2.66,5.156-4.234,8.207
	c-4.035-1.34-7.957-2.643-12.744-4.232c-1.49,1.97-3.08,4.072-5.002,6.613c1.147,3.144,2.549,6.981,4.188,11.474
	c-2.344,1.502-4.761,3.05-7.53,4.823c-3.01-3.173-5.827-6.143-8.954-9.438c-2.39,0.708-4.883,1.447-7.594,2.25
	c-0.658,4.298-1.279,8.355-1.932,12.614c-3.13,0-5.911,0-9.172,0c-0.933-3.929-1.876-7.905-2.856-12.036
	c-2.516-0.65-4.884-1.263-7.8-2.017c-2.624,3.136-5.338,6.381-8.217,9.821c-2.733-1.499-5.169-2.834-7.952-4.359
	c1.23-4.091,2.413-8.024,3.544-11.786 M86.747,54.541c0.16-17.931-14.109-32.424-32-32.499
	c-17.375-0.074-31.643,13.844-31.824,31.043c-0.188,17.78,13.979,32.378,31.477,32.434C72.268,85.575,86.591,71.858,86.747,54.541z"
	/>
<path fill-rule="evenodd" clip-rule="evenodd" fill="#0E0E0E" d="M74.021,43.733c-2.159,0.547-4.217,1.067-6.686,1.692
	c-0.434-1.428-0.814-2.684-1.208-3.981c-7.705,0-15.163,0-22.885,0c0,2.591,0,5.036,0,8.197c7.46,0,15.05,0.233,22.618-0.061
	c9.088-0.354,8.842,5.554,9,11.951c0.166,6.708-1.932,10.51-9.271,10.316c-7.652-0.2-15.315-0.066-22.975-0.051
	c-6.223,0.012-9.291-2.832-8.482-9.75c2.245-0.488,4.601-1,7.18-1.561c0.304,1.577,0.541,2.808,0.8,4.146c8.232,0,16.337,0,24.735,0
	c0-2.567,0-4.971,0-8.024c-7.359,0-14.792-0.214-22.207,0.056c-8.799,0.32-9.135-5.12-9.238-11.783
	c-0.107-6.831,2.506-9.853,9.319-9.678c7.154,0.184,14.317-0.015,21.476,0.082C71.188,35.354,74.653,37.187,74.021,43.733z"/>
</svg>
