<svg xmlns="http://www.w3.org/2000/svg" viewBox="0 0 185 185"><circle cx="92.5" cy="92.5" r="46" clip-rule="evenodd" fill="none" stroke="#004bb7" stroke-width="4.332" stroke-linecap="round"/><path d="M92.5 2.9c-3.9 0-7.8.3-11.7.9-.5 7.8-1 14.2-1.4 20.5-4.9.9-9.6 2.4-14.2 4.4-3.9-5-7.9-10.1-12.8-16.3C47.3 15 42.5 18 38 21.5c3.5 7.1 6.3 12.8 9 18.6-3.8 3.3-7.2 6.9-10.1 10.9-5.9-2.5-11.9-4.9-19.2-7.8-3.1 4.7-5.8 9.8-8 15 6.5 4.4 11.8 8 17.1 11.6-1.6 4.7-2.8 9.6-3.4 14.5-6.3.9-12.6 1.8-20.4 2.9l-.3 5.4c0 3.9.3 7.8.9 11.7 7.8.5 14.2 1 20.5 1.4.9 4.9 2.4 9.6 4.4 14.2-5 3.9-10.1 7.9-16.3 12.8 2.6 5.1 5.6 9.9 9.1 14.4 7.1-3.5 12.8-6.3 18.6-9 3.3 3.8 6.9 7.2 10.9 10.1-2.4 5.9-4.8 11.9-7.7 19.2 4.7 3.1 9.8 5.8 15 8 4.4-6.5 8-11.8 11.6-17.1 4.7 1.6 9.6 2.8 14.5 3.4.9 6.3 1.8 12.6 2.9 20.4l5.4.3c3.9 0 7.8-.3 11.7-.9.5-7.8 1-14.2 1.4-20.5 4.9-.9 9.6-2.4 14.2-4.4 4 5 7.9 10.1 12.8 16.3 5.1-2.6 9.9-5.6 14.4-9.1-3.5-7.1-6.3-12.8-9-18.6 3.8-3.3 7.2-6.9 10.1-10.9 5.9 2.4 11.9 4.8 19.2 7.7 3.1-4.7 5.8-9.8 8-15-6.5-4.4-11.8-8-17.1-11.6 1.6-4.7 2.8-9.6 3.4-14.5 6.3-.9 12.6-1.8 20.4-2.9l.3-5.4c0-3.9-.3-7.8-.9-11.7-7.8-.5-14.2-1-20.5-1.4-.9-4.9-2.4-9.6-4.4-14.2 5-4 10.1-7.9 16.3-12.8-2.6-5.1-5.6-9.9-9.1-14.4-7.1 3.5-12.8 6.3-18.6 9-3.3-3.8-6.9-7.2-10.9-10.1 2.4-5.9 4.8-11.9 7.7-19.2-4.7-3.1-9.8-5.8-15-8-4.4 6.5-8 11.8-11.6 17.1-4.7-1.6-9.6-2.8-14.5-3.4-.9-6.3-1.8-12.6-2.9-20.4-1.8-.1-3.6-.2-5.4-.2h0z" fill="none" stroke="#004bb7" stroke-width="4.332" stroke-linecap="round"/></svg>