<?xml version="1.0" encoding="utf-8"?>
<!-- Generator: Adobe Illustrator 16.0.4, SVG Export Plug-In . SVG Version: 6.00 Build 0)  -->
<!DOCTYPE svg PUBLIC "-//W3C//DTD SVG 1.1//EN" "http://www.w3.org/Graphics/SVG/1.1/DTD/svg11.dtd">
<svg version="1.1" id="Layer_1" xmlns="http://www.w3.org/2000/svg" xmlns:xlink="http://www.w3.org/1999/xlink" x="0px" y="0px"
	 width="193.895px" height="120.334px" viewBox="0 0 193.895 120.334" enable-background="new 0 0 193.895 120.334"
	 xml:space="preserve">
<rect x="-28.994" y="-24.176" display="none" fill="#FFFFFF" width="206.651" height="123.488"/>
<g>
	<path fill="#E31837" d="M62.854,41.099c-12.242,0-19.748,9.561-19.748,19.211c0,11.617,9.472,19.212,19.837,19.212
		c6.88,0,13.404-3.038,18.943-7.953v14.387c-5.808,3.485-13.761,5.629-19.926,5.629c-17.693,0-32.526-14.386-32.526-31.275
		c0-17.871,14.922-31.275,32.615-31.275c6.792,0,14.744,2.055,19.927,4.646V47.8C75.454,43.511,68.841,41.099,62.854,41.099z"/>
	<path fill="#E31837" d="M119.499,91.585c-17.781,0-32.794-13.851-32.794-31.275c0-17.603,14.923-31.275,33.599-31.275
		c6.791,0,15.19,1.787,20.374,4.2v14.029c-5.897-3.396-13.493-6.166-20.106-6.166c-12.241,0-20.194,9.561-20.194,19.211
		c0,11.349,9.383,19.57,20.373,19.57c2.323,0,4.558-0.179,7.417-1.251V67.37H118.16V55.485h22.875v31.633
		C134.511,90.066,127.185,91.585,119.499,91.585z"/>
	<path fill="#E31837" d="M151.027,90.334V30.286h12.867v60.048H151.027z"/>
</g>
</svg>
