<?xml version="1.0" encoding="UTF-8" standalone="no"?>
<!-- Created with Inkscape (http://www.inkscape.org/) -->
<svg
   xmlns:dc="http://purl.org/dc/elements/1.1/"
   xmlns:cc="http://creativecommons.org/ns#"
   xmlns:rdf="http://www.w3.org/1999/02/22-rdf-syntax-ns#"
   xmlns:svg="http://www.w3.org/2000/svg"
   xmlns="http://www.w3.org/2000/svg"
   xmlns:xlink="http://www.w3.org/1999/xlink"
   xmlns:sodipodi="http://sodipodi.sourceforge.net/DTD/sodipodi-0.dtd"
   xmlns:inkscape="http://www.inkscape.org/namespaces/inkscape"
   id="svg2"
   sodipodi:version="0.32"
   inkscape:version="0.46"
   width="817.85376"
   height="250"
   xml:space="preserve"
   sodipodi:docname="F-secure.logo.2009.svg"
   inkscape:output_extension="org.inkscape.output.svg.inkscape"
   version="1.0"><metadata
     id="metadata7"><rdf:RDF><cc:Work
         rdf:about=""><dc:format>image/svg+xml</dc:format><dc:type
           rdf:resource="http://purl.org/dc/dcmitype/StillImage" /></cc:Work></rdf:RDF></metadata><defs
     id="defs5"><linearGradient
       x1="0"
       y1="0"
       x2="1"
       y2="0"
       gradientUnits="userSpaceOnUse"
       gradientTransform="matrix(30.1586,14.063202,14.063202,-30.1586,539.81329,104.69287)"
       spreadMethod="pad"
       id="linearGradient385"><stop
         style="stop-opacity:1;stop-color:#e0e7f7"
         offset="0"
         id="stop387" /><stop
         style="stop-opacity:1;stop-color:#6c99d7"
         offset="1"
         id="stop389" /></linearGradient><linearGradient
       x1="0"
       y1="0"
       x2="1"
       y2="0"
       gradientUnits="userSpaceOnUse"
       gradientTransform="matrix(1.8796234,-5.1642303,-5.1642303,-1.8796234,558.4285,100.09131)"
       spreadMethod="pad"
       id="linearGradient405"><stop
         style="stop-opacity:1;stop-color:#0c254d"
         offset="0"
         id="stop407" /><stop
         style="stop-opacity:1;stop-color:#2250a4"
         offset="0.699997"
         id="stop409" /><stop
         style="stop-opacity:1;stop-color:#2250a4"
         offset="1"
         id="stop411" /></linearGradient><linearGradient
       x1="0"
       y1="0"
       x2="1"
       y2="0"
       gradientUnits="userSpaceOnUse"
       gradientTransform="matrix(3.0143433,-7.2700653,-7.2700653,-3.0143433,564.12531,87.584473)"
       spreadMethod="pad"
       id="linearGradient427"><stop
         style="stop-opacity:1;stop-color:#0c254d"
         offset="0"
         id="stop429" /><stop
         style="stop-opacity:1;stop-color:#2250a4"
         offset="0.699997"
         id="stop431" /><stop
         style="stop-opacity:1;stop-color:#2250a4"
         offset="1"
         id="stop433" /></linearGradient><linearGradient
       x1="0"
       y1="0"
       x2="1"
       y2="0"
       gradientUnits="userSpaceOnUse"
       gradientTransform="matrix(21.0224,9.802887,9.802887,-21.0224,545.90359,91.827637)"
       spreadMethod="pad"
       id="linearGradient449"><stop
         style="stop-opacity:1;stop-color:#e0e7f7"
         offset="0"
         id="stop451" /><stop
         style="stop-opacity:1;stop-color:#6c99d7"
         offset="1"
         id="stop453" /></linearGradient><linearGradient
       inkscape:collect="always"
       xlink:href="#linearGradient385"
       id="linearGradient3373"
       gradientUnits="userSpaceOnUse"
       gradientTransform="matrix(30.1586,14.063202,14.063202,-30.1586,539.81329,104.69287)"
       spreadMethod="pad"
       x1="0"
       y1="0"
       x2="1"
       y2="0" /><linearGradient
       inkscape:collect="always"
       xlink:href="#linearGradient405"
       id="linearGradient3375"
       gradientUnits="userSpaceOnUse"
       gradientTransform="matrix(1.8796234,-5.1642303,-5.1642303,-1.8796234,558.4285,100.09131)"
       spreadMethod="pad"
       x1="0"
       y1="0"
       x2="1"
       y2="0" /><linearGradient
       inkscape:collect="always"
       xlink:href="#linearGradient427"
       id="linearGradient3377"
       gradientUnits="userSpaceOnUse"
       gradientTransform="matrix(3.0143433,-7.2700653,-7.2700653,-3.0143433,564.12531,87.584473)"
       spreadMethod="pad"
       x1="0"
       y1="0"
       x2="1"
       y2="0" /><linearGradient
       inkscape:collect="always"
       xlink:href="#linearGradient449"
       id="linearGradient3379"
       gradientUnits="userSpaceOnUse"
       gradientTransform="matrix(21.0224,9.802887,9.802887,-21.0224,545.90359,91.827637)"
       spreadMethod="pad"
       x1="0"
       y1="0"
       x2="1"
       y2="0" /></defs><sodipodi:namedview
     inkscape:window-height="962"
     inkscape:window-width="1280"
     inkscape:pageshadow="2"
     inkscape:pageopacity="0.0"
     guidetolerance="10.0"
     gridtolerance="10.0"
     objecttolerance="10.0"
     borderopacity="1.0"
     bordercolor="#666666"
     pagecolor="#ffffff"
     id="base"
     showgrid="false"
     inkscape:zoom="1.1603829"
     inkscape:cx="425.35028"
     inkscape:cy="140.73292"
     inkscape:window-x="-8"
     inkscape:window-y="-8"
     inkscape:current-layer="g11" /><g
     id="g11"
     inkscape:groupmode="layer"
     inkscape:label="fsis2010_htc"
     transform="matrix(1.25,0,0,-1.25,0,1126.1225)"><g
       id="g333"
       transform="matrix(5.3709859,0,0,5.3709859,471.60252,738.59446)"><path
         d="M 0,0 C 0,0.289 -0.148,0.436 -0.605,0.436 C -0.738,0.436 -0.914,0.422 -1.018,0.408 L -1.018,-0.871 L -0.71,-0.871 L -0.71,-0.441 L -0.575,-0.441 L -0.339,-0.871 L 0.028,-0.871 L -0.276,-0.379 C -0.121,-0.316 0,-0.184 0,0 M -0.605,-0.215 L -0.71,-0.215 L -0.71,0.189 C -0.685,0.193 -0.634,0.193 -0.605,0.193 C -0.345,0.193 -0.316,0.131 -0.316,-0.01 C -0.316,-0.156 -0.379,-0.215 -0.605,-0.215"
         style="fill:#4a545d;fill-opacity:1;fill-rule:nonzero;stroke:none"
         id="path335" /></g><g
       id="g337"
       transform="matrix(5.3709859,0,0,5.3709859,468.78329,744.28019)"><path
         d="M 0,0 C -0.858,0 -1.294,-0.438 -1.294,-1.289 C -1.294,-2.145 -0.858,-2.582 0,-2.582 C 0.853,-2.582 1.291,-2.145 1.291,-1.289 C 1.291,-0.438 0.853,0 0,0 M 0,-2.334 C -0.748,-2.334 -1.044,-2.053 -1.044,-1.289 C -1.044,-0.529 -0.748,-0.25 0,-0.25 C 0.736,-0.25 1.042,-0.529 1.042,-1.289 C 1.042,-2.053 0.736,-2.334 0,-2.334"
         style="fill:#4a545d;fill-opacity:1;fill-rule:nonzero;stroke:none"
         id="path339" /></g><g
       id="g341"
       transform="matrix(5.3709859,0,0,5.3709859,11.813905,806.78128)"><path
         d="M 0,0 C 0,0.215 0.046,0.262 0.264,0.262 L 8.697,0.262 C 8.914,0.262 8.962,0.215 8.962,0 L 8.962,-2.541 C 8.962,-2.758 8.914,-2.805 8.697,-2.805 L 3.474,-2.805 L 3.474,-5.896 L 7.835,-5.896 C 8.051,-5.896 8.099,-5.945 8.099,-6.16 L 8.099,-8.652 C 8.099,-8.867 8.051,-8.916 7.835,-8.916 L 3.474,-8.916 L 3.474,-13.709 C 3.474,-13.924 3.427,-13.973 3.212,-13.973 L 0.264,-13.973 C 0.046,-13.973 0,-13.924 0,-13.709 L 0,0 z"
         style="fill:#4a545d;fill-opacity:1;fill-rule:nonzero;stroke:none"
         id="path343" /></g><g
       id="g345"
       transform="matrix(5.3709859,0,0,5.3709859,68.576632,758.89303)"><path
         d="M 0,0 C -0.216,0 -0.265,0.049 -0.265,0.264 L -0.265,2.756 C -0.265,2.971 -0.216,3.02 0,3.02 L 4.311,3.02 C 4.529,3.02 4.575,2.971 4.575,2.756 L 4.575,0.264 C 4.575,0.049 4.529,0 4.311,0 L 0,0 z"
         style="fill:#4a545d;fill-opacity:1;fill-rule:nonzero;stroke:none"
         id="path347" /></g><g
       id="g349"
       transform="matrix(5.3709859,0,0,5.3709859,119.14984,787.34261)"><path
         d="M 0,0 C 0,-0.936 0.552,-1.127 2.684,-1.752 C 5.728,-2.637 6.854,-3.811 6.854,-6.184 C 6.854,-9.275 4.266,-10.592 1.318,-10.592 C -0.36,-10.592 -1.964,-10.113 -2.876,-9.609 C -3.018,-9.539 -3.091,-9.465 -3.091,-9.275 L -3.091,-7.404 C -3.091,-7.238 -3.044,-7.189 -2.898,-7.189 C -2.587,-7.189 -0.719,-7.717 1.078,-7.717 C 2.684,-7.717 3.428,-7.334 3.428,-6.375 C 3.428,-5.416 2.755,-5.154 0.861,-4.648 C -2.325,-3.787 -3.401,-2.613 -3.401,-0.24 C -3.401,2.563 -1.149,4.119 1.607,4.119 C 3.21,4.119 4.505,3.785 5.75,3.137 C 5.918,3.041 5.967,2.994 5.967,2.803 L 5.967,0.936 C 5.967,0.766 5.871,0.719 5.75,0.719 C 5.342,0.719 3.667,1.244 1.797,1.244 C 0.501,1.244 0,0.74 0,0"
         style="fill:#4a545d;fill-opacity:1;fill-rule:nonzero;stroke:none"
         id="path351" /></g><g
       id="g353"
       transform="matrix(5.3709859,0,0,5.3709859,181.69765,755.67259)"><path
         d="M 0,0 C 0.118,-1.533 0.96,-1.965 2.803,-1.965 C 4.649,-1.965 6.04,-1.508 6.373,-1.508 C 6.518,-1.508 6.59,-1.533 6.59,-1.725 L 6.59,-3.496 C 6.59,-3.713 6.494,-3.762 6.326,-3.832 C 5.321,-4.264 3.883,-4.695 2.157,-4.695 C -1.364,-4.695 -3.402,-3.092 -3.402,0.84 C -3.402,4.553 -1.391,6.568 2.014,6.568 C 5.847,6.568 7.045,4.268 7.045,1.15 L 7.045,0.264 C 7.045,0.047 6.998,0 6.781,0 L 0,0 z M -0.022,1.918 L 3.81,1.918 C 3.81,3.475 3.307,4.098 2.014,4.098 C 0.838,4.098 0.048,3.475 -0.022,1.918"
         style="fill:#4a545d;fill-opacity:1;fill-rule:nonzero;stroke:none"
         id="path355" /></g><g
       id="g357"
       transform="matrix(5.3709859,0,0,5.3709859,256.08903,790.95137)"><path
         d="M 0,0 C 1.365,0 2.731,-0.41 3.642,-0.84 C 3.856,-0.936 3.882,-0.984 3.882,-1.201 L 3.882,-2.922 C 3.882,-3.043 3.856,-3.139 3.713,-3.139 C 3.377,-3.139 2.084,-2.732 0.575,-2.732 C -1.296,-2.732 -1.989,-3.74 -1.989,-5.633 C -1.989,-7.525 -1.296,-8.533 0.575,-8.533 C 2.084,-8.533 3.474,-8.074 3.81,-8.074 C 3.954,-8.074 3.978,-8.172 3.978,-8.291 L 3.978,-10.064 C 3.978,-10.281 3.954,-10.33 3.738,-10.426 C 2.826,-10.857 1.365,-11.264 0,-11.264 C -3.713,-11.264 -5.417,-8.963 -5.417,-5.633 C -5.417,-2.301 -3.713,0 0,0"
         style="fill:#4a545d;fill-opacity:1;fill-rule:nonzero;stroke:none"
         id="path359" /></g><g
       id="g361"
       transform="matrix(5.3709859,0,0,5.3709859,314.27292,730.4542)"><path
         d="M 0,0 C -2.947,0 -5.178,0.934 -5.178,4.385 L -5.178,10.813 C -5.178,11.025 -5.131,11.074 -4.912,11.074 L -2.039,11.074 C -1.821,11.074 -1.775,11.025 -1.775,10.813 L -1.775,4.838 C -1.775,3.377 -1.296,2.729 0.166,2.729 C 0.766,2.729 1.363,2.754 1.821,2.801 L 1.821,10.813 C 1.821,11.025 1.868,11.074 2.083,11.074 L 4.959,11.074 C 5.173,11.074 5.222,11.025 5.222,10.813 L 5.222,0.863 C 5.222,0.646 5.197,0.621 5.031,0.576 C 3.618,0.238 1.724,0 0,0"
         style="fill:#4a545d;fill-opacity:1;fill-rule:nonzero;stroke:none"
         id="path363" /></g><g
       id="g365"
       transform="matrix(5.3709859,0,0,5.3709859,381.95594,775.87716)"><path
         d="M 0,0 C -0.622,0 -1.221,-0.072 -1.581,-0.215 L -1.581,-7.955 C -1.581,-8.17 -1.629,-8.219 -1.844,-8.219 L -4.718,-8.219 C -4.935,-8.219 -4.984,-8.17 -4.984,-7.955 L -4.984,1.631 C -4.984,1.797 -4.912,1.871 -4.767,1.918 C -3.475,2.422 -2.108,2.807 -0.573,2.807 C 0.336,2.807 1.224,2.732 2.014,2.494 C 2.157,2.443 2.182,2.396 2.182,2.254 L 2.182,0.096 C 2.182,-0.117 2.109,-0.143 1.965,-0.143 C 1.702,-0.143 1.077,0 0,0"
         style="fill:#4a545d;fill-opacity:1;fill-rule:nonzero;stroke:none"
         id="path367" /></g><g
       id="g369"
       transform="matrix(5.3709859,0,0,5.3709859,415.80765,755.67259)"><path
         d="M 0,0 C 0.12,-1.533 0.958,-1.965 2.804,-1.965 C 4.649,-1.965 6.04,-1.508 6.373,-1.508 C 6.518,-1.508 6.588,-1.533 6.588,-1.725 L 6.588,-3.496 C 6.588,-3.713 6.495,-3.762 6.326,-3.832 C 5.318,-4.264 3.883,-4.695 2.158,-4.695 C -1.365,-4.695 -3.403,-3.092 -3.403,0.84 C -3.403,4.553 -1.391,6.568 2.013,6.568 C 5.847,6.568 7.045,4.268 7.045,1.15 L 7.045,0.264 C 7.045,0.047 6.995,0 6.78,0 L 0,0 z M -0.023,1.918 L 3.811,1.918 C 3.811,3.475 3.308,4.098 2.013,4.098 C 0.839,4.098 0.048,3.475 -0.023,1.918"
         style="fill:#4a545d;fill-opacity:1;fill-rule:nonzero;stroke:none"
         id="path371" /></g><g
       id="g373"
       transform="matrix(5.3709859,0,0,5.3709859,-2451.8439,311.47809)"><g
         id="g375"><g
           id="g381"><g
             id="g383"><path
               d="M 544.97,104.54 C 542.799,103.878 542.211,102.043 542.593,100.498 L 542.593,100.498 C 543.27,97.752 544.306,94.559 545.567,91.806 L 545.567,91.806 C 544.853,93.355 545.711,95.584 547.566,96.148 L 547.566,96.148 C 557.204,99.072 565.616,98.353 573.116,95.808 L 573.116,95.808 C 574.382,95.38 575.795,96.058 576.197,97.361 L 576.197,97.361 C 576.482,98.285 576.722,99.127 576.92,99.871 L 576.92,99.871 L 576.92,103.899 C 571.245,105.791 565.432,106.712 559.745,106.712 L 559.745,106.712 C 554.658,106.712 549.672,105.976 544.97,104.54"
               style="fill:url(#linearGradient3373);stroke:none"
               id="path391" /></g></g></g></g><g
       id="g393"
       transform="matrix(5.3709859,0,0,5.3709859,-2451.8439,311.47809)"><g
         id="g395"><g
           id="g401"><g
             id="g403"><path
               d="M 547.566,96.148 C 545.711,95.584 544.853,93.355 545.567,91.806 L 545.567,91.806 C 545.973,90.929 546.595,90.216 547.529,89.58 L 547.529,89.58 C 547.749,90.176 548.21,90.697 548.914,90.968 L 548.914,90.968 C 552.07,92.185 555.464,92.849 558.899,92.953 L 558.899,92.953 C 556.38,93.574 553.909,94.711 551.444,97.146 L 551.444,97.146 C 550.174,96.879 548.881,96.547 547.566,96.148"
               style="fill:url(#linearGradient3375);stroke:none"
               id="path413" /></g></g></g></g><g
       id="g415"
       transform="matrix(5.3709859,0,0,5.3709859,-2451.8439,311.47809)"><g
         id="g417"><g
           id="g423"><g
             id="g425"><path
               d="M 554.17,83.444 C 552.523,82.939 551.977,80.96 552.927,79.679 L 552.927,79.679 C 552.946,79.655 552.965,79.632 552.984,79.605 L 552.984,79.605 C 554.534,77.648 555.432,76.763 557.012,75.135 L 557.012,75.135 C 557.457,74.676 558.007,74.352 558.6,74.165 L 558.6,74.165 L 561.077,74.165 C 561.651,74.346 562.186,74.659 562.628,75.103 L 562.628,75.103 C 563.734,76.217 564.411,76.945 565.656,78.355 L 565.656,78.355 C 565.725,78.433 565.701,78.56 565.578,78.595 L 565.578,78.595 C 564.755,78.829 562.705,80.441 561.911,81.236 L 561.911,81.236 C 561.227,81.92 560.282,82.84 559.074,84.254 L 559.074,84.254 C 557.464,84.197 555.801,83.948 554.17,83.444"
               style="fill:url(#linearGradient3377);stroke:none"
               id="path435" /></g></g></g></g><g
       id="g437"
       transform="matrix(5.3709859,0,0,5.3709859,-2451.8439,311.47809)"><g
         id="g439"><g
           id="g445"><g
             id="g447"><path
               d="M 548.914,90.968 C 548.21,90.697 547.749,90.176 547.529,89.58 L 547.529,89.58 C 547.285,88.927 547.335,88.179 547.679,87.538 L 547.679,87.538 C 549.075,84.948 550.912,82.197 552.984,79.605 L 552.984,79.605 C 551.955,80.882 552.491,82.927 554.17,83.444 L 554.17,83.444 C 558.787,84.869 563.652,84.265 566.888,82.958 L 566.888,82.958 C 567.805,82.591 569.078,82.808 569.811,83.902 L 569.811,83.902 C 571.413,86.285 572.853,89.158 573.172,89.804 L 573.172,89.804 C 573.215,89.888 573.174,89.962 573.093,89.999 L 573.093,89.999 C 568.948,91.984 564.372,92.967 559.831,92.967 L 559.831,92.967 C 556.081,92.967 552.356,92.297 548.914,90.968"
               style="fill:url(#linearGradient3379);stroke:none"
               id="path455" /></g></g></g></g><g
       id="g461"
       transform="translate(23.5039,871.3937)" /></g></svg>