<?xml version="1.0" encoding="UTF-8" standalone="no"?>
<!-- Created with Inkscape (http://www.inkscape.org/) -->

<svg
   xmlns:dc="http://purl.org/dc/elements/1.1/"
   xmlns:cc="http://creativecommons.org/ns#"
   xmlns:rdf="http://www.w3.org/1999/02/22-rdf-syntax-ns#"
   xmlns:svg="http://www.w3.org/2000/svg"
   xmlns="http://www.w3.org/2000/svg"
   xmlns:xlink="http://www.w3.org/1999/xlink"
   xmlns:sodipodi="http://sodipodi.sourceforge.net/DTD/sodipodi-0.dtd"
   xmlns:inkscape="http://www.inkscape.org/namespaces/inkscape"
   width="300mm"
   height="224.095mm"
   viewBox="0 0 300 224.095"
   version="1.1"
   id="svg821"
   inkscape:version="0.92.2 (5c3e80d, 2017-08-06)"
   sodipodi:docname="Nettisivu_4.svg"
   inkscape:export-filename="C:\Users\Johan Työ\OneDrive - O365 Turun yliopisto\Grafiikka\Logot ja Merkit\Smartcity\verkkosivulle3.png"
   inkscape:export-xdpi="150"
   inkscape:export-ydpi="150">
  <defs
     id="defs815">
    <linearGradient
       inkscape:collect="always"
       id="linearGradient4770">
      <stop
         style="stop-color:#000d4f;stop-opacity:1;"
         offset="0"
         id="stop4766" />
      <stop
         style="stop-color:#0040aa;stop-opacity:1"
         offset="1"
         id="stop4768" />
    </linearGradient>
    <linearGradient
       inkscape:collect="always"
       id="linearGradient1659">
      <stop
         style="stop-color:#0058d4;stop-opacity:1;"
         offset="0"
         id="stop1655" />
      <stop
         style="stop-color:#000d50;stop-opacity:1"
         offset="1"
         id="stop1657" />
    </linearGradient>
    <linearGradient
       inkscape:collect="always"
       id="linearGradient1643">
      <stop
         style="stop-color:#00fffa;stop-opacity:1;"
         offset="0"
         id="stop1639" />
      <stop
         style="stop-color:#00fffa;stop-opacity:0;"
         offset="1"
         id="stop1641" />
    </linearGradient>
    <linearGradient
       inkscape:collect="always"
       xlink:href="#linearGradient1659"
       id="linearGradient1661"
       x1="149.89436"
       y1="194.02708"
       x2="149.89436"
       y2="108.62578"
       gradientUnits="userSpaceOnUse"
       gradientTransform="matrix(1.0097974,0,0,0.99886634,-0.01605143,-31.593124)" />
    <radialGradient
       inkscape:collect="always"
       xlink:href="#linearGradient1643"
       id="radialGradient4758"
       cx="150"
       cy="182.20947"
       fx="150"
       fy="182.20947"
       r="150"
       gradientTransform="matrix(0.99512353,0,0,0.68753694,0.73146853,56.933732)"
       gradientUnits="userSpaceOnUse" />
    <linearGradient
       inkscape:collect="always"
       xlink:href="#linearGradient4770"
       id="linearGradient4774"
       x1="157.63509"
       y1="344.96951"
       x2="157.63509"
       y2="77.536339"
       gradientUnits="userSpaceOnUse"
       gradientTransform="matrix(0.99125842,0,0,0.99125842,1.3113528,9.0682704)" />
  </defs>
  <sodipodi:namedview
     id="base"
     pagecolor="#ffffff"
     bordercolor="#666666"
     borderopacity="1.0"
     inkscape:pageopacity="0.0"
     inkscape:pageshadow="2"
     inkscape:zoom="0.5"
     inkscape:cx="670.2696"
     inkscape:cy="179.9061"
     inkscape:document-units="mm"
     inkscape:current-layer="layer1"
     showgrid="false"
     inkscape:window-width="1920"
     inkscape:window-height="1027"
     inkscape:window-x="-8"
     inkscape:window-y="-8"
     inkscape:window-maximized="1"
     units="mm" />
  <metadata
     id="metadata818">
    <rdf:RDF>
      <cc:Work
         rdf:about="">
        <dc:format>image/svg+xml</dc:format>
        <dc:type
           rdf:resource="http://purl.org/dc/dcmitype/StillImage" />
        <dc:title></dc:title>
      </cc:Work>
    </rdf:RDF>
  </metadata>
  <g
     inkscape:label="Taso 1"
     inkscape:groupmode="layer"
     id="layer1"
     transform="translate(0,-72.905008)">
    <rect
       style="opacity:1;fill:url(#linearGradient1661);fill-opacity:1;stroke:none;stroke-width:1.94624591;stroke-linecap:round;stroke-linejoin:round;stroke-miterlimit:4;stroke-dasharray:none;stroke-dashoffset:0;stroke-opacity:0.93793108"
       id="rect1587"
       width="300"
       height="216.24289"
       x="-3.7346197e-007"
       y="72.905144" />
    <path
       style="fill:url(#radialGradient4758);fill-opacity:1;stroke-width:0.97859609"
       d="m 1.0634848,72.905006 v 0.806755 L 1.2526923e-6,74.775234 v 2.959271 L 2.8496989,74.884819 3.1554898,74.579016 v -1.67401 z m 6.6188552,0 L 1.2526923e-6,80.589405 v 2.96917 L 10.653102,72.905006 Z m 7.43134,0 L 1.2526923e-6,88.018613 v 2.949872 L 18.07244,72.905006 Z m 23.148771,0 V 177.33451 l 0.195164,0.2202 5.712965,5.68793 v 5.37012 l -2.947802,2.93579 c -0.550604,-0.32068 -1.188742,-0.51399 -1.871795,-0.51399 -2.05918,0 -3.731064,1.65989 -3.731064,3.71906 0,2.05917 1.671884,3.73055 3.731064,3.73055 2.059183,0 3.731066,-1.67138 3.731066,-3.73055 0,-0.86715 -0.310627,-1.6543 -0.807268,-2.28769 l 3.094435,-3.09495 0.195686,-0.19516 v -6.47066 l -0.195686,-0.22022 -5.712442,-5.71296 V 72.905006 Z m 3.280207,0 V 173.98125 l 0.219688,0.19569 5.688439,5.68791 v 22.78976 l -3.54738,3.54685 c -0.583608,-0.37881 -1.282961,-0.61157 -2.030429,-0.61157 -2.059164,0 -3.731067,1.67188 -3.731067,3.73105 0,2.05916 1.671903,3.73055 3.731067,3.73055 2.059143,0 3.730542,-1.67139 3.730542,-3.73055 0,-0.80545 -0.262896,-1.5434 -0.697163,-2.15306 l 3.743588,-3.75505 0.195164,-0.19569 V 179.30232 L 48.649943,179.10716 42.93698,173.3822 V 72.905006 Z m 2.772467,0 V 169.923 l 0.195685,0.22021 5.70096,5.66339 v 35.3277 l -3.707059,3.70654 c -0.511596,-0.26778 -1.080305,-0.42843 -1.700113,-0.42843 -2.059186,0 -3.730542,1.65938 -3.730542,3.71854 0,2.05918 1.671356,3.73107 3.730542,3.73107 2.059141,0 3.70654,-1.67189 3.70654,-3.73107 0,-0.92859 -0.360559,-1.75657 -0.917372,-2.40927 l 3.816121,-3.80465 0.195685,-0.19567 V 175.2446 l -0.195685,-0.22022 -5.687915,-5.68792 V 72.905006 Z m 6.669471,0 -3.280724,3.265594 -0.195687,0.22021 v 91.04517 l 0.195687,0.19568 5.773494,5.77348 v 43.70721 c -0.526079,0.64275 -0.844318,1.45336 -0.844318,2.34874 0,2.0591 1.659357,3.73054 3.718541,3.73054 2.05914,0 3.731066,-1.67144 3.731066,-3.73054 0,-2.05906 -1.671926,-3.73106 -3.731066,-3.73106 -0.525027,0 -1.026154,0.10953 -1.47938,0.30578 v -43.19319 l -0.196206,-0.21969 -5.773497,-5.77453 V 76.976815 l 4.061904,-4.071809 z m 23.532317,0 v 6.689288 l -7.69434,7.705755 -0.219691,0.208213 v 51.731828 l -1.700112,1.67506 -0.195685,0.22022 v 56.50187 l 0.195685,0.1962 64.77074,64.75823 v 7.35202 c -1.32855,0.3177 -2.31169,1.52191 -2.31169,2.94832 0,1.66577 1.34354,3.00886 3.00938,3.00886 1.66585,0 3.02085,-1.34309 3.02085,-3.00886 0,-1.42641 -0.99052,-2.63076 -2.32369,-2.94832 v -7.91403 l -0.19568,-0.19621 -64.771273,-64.77075 v -55.36428 l 1.700633,-1.70064 0.195164,-0.19517 V 88.108361 l 7.706867,-7.718829 0.207685,-0.207685 v -7.276841 z m 13.44331,0 v 61.269704 l -1.125582,1.16159 -0.501474,0.502 v 56.40325 l 0.501474,0.52599 39.963599,39.97614 0.52601,0.50096 h 18.14028 l 8.68477,8.67276 v 16.20795 l -33.38808,33.38859 h 4.94067 l 31.43173,-31.43174 0.50147,-0.526 v -19.07122 l -0.50147,-0.50148 -9.69972,-9.71225 -0.502,-0.51399 h -18.18933 l -38.9236,-38.9236 v -53.56608 l 1.113058,-1.11358 0.526002,-0.51348 V 72.905006 Z m 5.064854,0 v 64.854134 l -1.309265,2.2136 -0.08558,0.18315 v 50.23943 l 0.195163,0.19569 37.504755,37.50476 0.22022,0.19568 h 20.39091 l 10.59361,10.59361 v 34.51991 l -17.33353,17.35754 c -0.53332,-0.48746 -1.22777,-0.80675 -2.00538,-0.80675 -1.13067,0 -2.11145,0.63254 -2.62583,1.55818 h 5.87472 l 17.2897,-17.30171 0.19569,-0.2082 V 238.298 l -0.19569,-0.19567 -10.98446,-10.98447 -0.22021,-0.22022 H 130.11446 L 93.0256,189.80879 v -49.28501 l 1.30874,-2.26264 0.08558,-0.18368 V 72.905006 Z m 4.060336,0 v 69.930474 l -1.797694,1.78568 -0.513478,0.52601 v 42.34888 l 0.513478,0.50147 36.207491,36.22002 0.51453,0.50148 h 20.47702 l 11.27772,11.25372 v 47.44974 l -8.0951,8.09146 h 4.91873 l 6.16279,-6.15913 0.50095,-0.50147 v -50.32449 l -0.50095,-0.50147 -12.29321,-12.29269 -0.50199,-0.50147 H 133.47868 L 98.262136,186.02763 v -39.4376 l 1.810224,-1.8097 0.50147,-0.50148 V 72.905006 Z m 23.438387,0 14.64195,14.652311 v 52.819303 l 0.19567,0.19569 4.06087,4.0499 v 30.86138 l 0.19568,0.19568 8.72182,8.69729 0.39137,-0.39136 c 0.41691,1.17147 1.5356,2.0059 2.85023,2.0059 1.66586,0 3.00937,-1.34364 3.00937,-3.00938 0,-1.66575 -1.34363,-3.00885 -3.00937,-3.00885 -1.56137,0 -2.82765,1.1835 -2.98434,2.70306 l -7.77992,-7.79192 v -30.84989 l -0.19568,-0.19569 -4.06139,-4.06138 V 86.969234 l -0.19515,-0.22022 -13.86547,-13.844008 z m 4.78359,0 12.90322,12.903675 v 52.379399 l 0.21969,0.19569 4.06137,4.06138 v 32.09758 l 0.22022,0.22022 3.0459,3.04591 0.19569,0.19567 h 9.18624 c 0.35248,1.27053 1.49024,2.20108 2.87527,2.20108 1.66573,0 3.03338,-1.34246 3.03338,-3.00834 0,-1.66586 -1.36754,-3.02138 -3.03338,-3.02138 -1.46498,0 -2.67648,1.04622 -2.94832,2.4338 h -8.53866 l -2.64201,-2.62948 v -32.09864 l -0.19516,-0.20768 -4.07339,-4.07338 V 85.24563 l -0.19568,-0.195668 -12.13718,-12.144956 z m 4.53833,0 11.32208,11.337163 v 52.024021 l 0.19569,0.19516 4.17148,4.1715 v 27.89009 l 0.19517,0.19568 0.91737,0.91685 c -0.20983,0.40867 -0.35432,0.85509 -0.35432,1.34579 0,1.66587 1.36755,3.0339 3.03337,3.0339 1.66589,0 3.00886,-1.36803 3.00886,-3.0339 0,-1.66589 -1.34297,-3.00938 -3.00886,-3.00938 -0.66532,0 -1.28404,0.2237 -1.78569,0.58707 l -0.61209,-0.59907 v -27.91461 l -0.21969,-0.22021 -4.14749,-4.12245 V 83.654067 l -0.21969,-0.195149 -10.53987,-10.553912 z m 3.68253,0 10.4209,10.420324 v 52.15917 l 0.19516,0.19569 3.92675,3.95127 v 20.70871 l 0.19568,0.22021 19.7428,19.7188 0.19517,0.21969 h 4.29412 l 2.83768,2.8257 v 108.18937 h 1.39432 v -108.7472 l -0.19516,-0.19517 -3.27812,-3.26611 -0.19567,-0.19621 h -4.26907 L 149.46538,159.78234 V 139.0491 l -0.21969,-0.22021 -3.90275,-3.90223 V 82.742971 l -0.20769,-0.22021 -9.62666,-9.617755 z m 3.37987,0 9.78531,9.80717 v 51.204754 l 0.2202,0.19568 4.14697,4.14749 v 21.1246 l 0.20769,0.19569 17.66384,17.68785 0.21969,0.2202 h 5.21097 l 4.69749,4.71002 v 109.31548 h 1.39432 V 181.61088 l -0.21968,-0.21969 -5.10087,-5.10137 -0.22022,-0.20769 h -5.17442 L 152.45544,158.7966 V 137.684 l -0.19516,-0.19569 -4.17148,-4.15896 V 82.148615 l -0.19569,-0.21969 -9.02396,-9.023919 z m 5.23341,0 10.71102,10.689578 0.19568,0.207684 h 3.43728 l 2.86275,2.862731 v 42.715681 l 0.19569,0.22022 4.40317,4.40317 0.19569,0.19568 h 29.02714 l 10.45951,10.44646 v 17.74891 l 0.19568,0.19569 6.34804,6.69138 v 122.23175 h 1.39483 V 168.72437 l -0.17115,-0.19569 -6.3736,-6.6914 v -17.74889 l -0.19517,-0.19569 -10.87538,-10.88688 -0.19517,-0.19516 h -29.02716 l -3.98832,-3.96379 V 86.08264 l -0.22021,-0.195168 -3.2656,-3.27809 -0.19567,-0.196207 h -3.42477 l -9.54056,-9.508169 z m 7.59677,0 12.52384,12.535783 v 14.287065 l 0.19569,0.22022 44.22119,44.220146 v 17.39459 l 0.19517,0.19568 6.30001,6.2995 v 123.45595 h 1.39433 v -124.043 l -0.19516,-0.1957 -6.30003,-6.29949 v -17.3951 L 207.87765,143.36043 163.65803,99.1408 V 84.853745 l -0.19621,-0.2202 -11.74894,-11.728539 z m 19.5732,0 2.08835,2.088869 v 24.843564 l 0.22022,0.195171 41.16329,41.18728 v 17.68787 l 0.19515,0.19619 6.41014,6.40961 v 126.00038 h 1.40632 V 164.92599 l -0.22022,-0.1957 -6.3976,-6.4096 v -17.68784 l -0.19517,-0.22022 -41.18676,-41.174241 V 74.430824 l -0.19516,-0.195667 -1.33014,-1.330151 z m 3.93093,0 1.6928,1.699591 v 4.75799 l 0.19621,0.195688 8.96604,8.953988 v 16.208967 l 0.19568,0.21969 34.18907,34.18958 v 18.25038 l 0.19568,0.22022 5.81003,5.77402 0.19569,0.21969 h 5.01528 l 10.20224,10.20172 v 117.71741 h 1.39431 V 173.20947 l -0.19568,-0.19516 -10.61709,-10.61814 -0.22073,-0.19569 h -4.99076 l -5.39466,-5.38213 v -18.2749 l -0.20768,-0.22021 -34.17811,-34.16507 V 87.925728 l -0.22021,-0.195687 -8.92899,-8.953978 v -4.758509 l -0.20768,-0.195688 -0.91528,-0.91686 z m 4.61399,0 v 6.040125 l 0.19621,0.22022 8.63571,8.635659 v 15.78002 l 0.19517,0.19516 22.20166,22.20271 0.19568,0.19568 h 17.99312 l 8.69782,8.69677 v 17.73743 l 0.19568,0.19517 15.10742,15.10793 v 123.60206 h 1.40684 v -124.1886 l -0.22021,-0.19567 -15.09541,-15.0949 v -17.74995 l -0.22022,-0.19517 -9.08814,-9.11318 -0.19568,-0.19569 H 209.86895 L 188.08215,102.9945 V 87.202489 l -0.19517,-0.195168 -8.63624,-8.611666 v -5.490649 z m 5.97231,0 v 6.369921 l 0.22022,0.195168 6.16486,6.165343 v 17.321492 l 0.2202,0.20768 20.06061,20.06112 0.19621,0.22021 h 18.12826 l 9.61468,9.63868 v 16.85709 l 0.19568,0.19517 15.85311,15.85311 v 125.52395 h 1.39484 V 165.42276 l -0.19568,-0.19568 -15.85311,-15.8531 v -16.88111 l -0.22021,-0.19569 -10.03109,-10.05509 -0.21969,-0.19517 H 211.27788 L 191.60865,102.37718 V 85.068741 l -0.19568,-0.195688 -6.18992,-6.201881 v -5.766166 z m 9.60163,0 2.70097,2.701494 v 24.94167 l 0.1962,0.21968 16.74544,16.73396 0.22021,0.20821 h 30.70379 l 12.48835,12.50194 v 9.44298 l 0.22023,0.19517 29.50462,29.51715 v 17.68784 l -16.52626,16.52679 -0.22021,0.22021 v 87.71184 h 1.39433 v -87.12792 l 16.52678,-16.55025 0.22021,-0.19569 V 168.7776 l -0.22021,-0.22022 -29.49316,-29.49211 v -9.4315 l -0.19568,-0.19516 -12.94184,-12.92931 -0.19515,-0.19569 H 213.85519 L 197.52513,99.959031 V 75.016839 l -0.19621,-0.195168 -1.92449,-1.916665 z m 12.3579,0 2.55591,2.565299 v 4.733987 l 0.19569,0.196207 3.52285,3.559361 0.22021,0.195168 h 17.01469 l 2.93581,2.948304 v 6.422091 l 0.19516,0.195159 3.36422,3.363702 0.22021,0.22021 h 14.91122 l 49.07575,49.076796 v -1.96989 l -48.29354,-48.304497 -0.22021,-0.195688 h -14.88669 l -2.97232,-2.972326 v -6.434088 l -0.19621,-0.195688 -3.35117,-3.351676 -0.19568,-0.195678 h -17.0147 l -3.13201,-3.143991 V 74.88429 l -0.19517,-0.195688 -1.78934,-1.783596 z m 12.02133,0 4.67088,4.670859 0.19568,0.195688 h 9.54109 l 1.22317,1.211155 0.1962,0.219691 h 11.49846 l 54.86491,54.865331 v -1.97511 L 245.89484,78.004808 245.69916,77.80913 h -11.47445 l -1.21064,-1.223171 -0.22021,-0.220191 h -9.5536 l -3.46912,-3.460762 z m 4.2242,0 1.86814,1.86814 0.19515,0.195688 h 9.23582 l 1.54096,1.553467 0.22021,0.195678 h 12.2572 l 52.64871,52.648621 v -1.97408 l -51.86545,-51.849158 -0.1962,-0.22021 h -12.30521 l -1.50443,-1.528945 -0.20821,-0.22021 h -9.24782 l -0.67055,-0.668991 z m 14.20726,0 0.37363,0.415379 0.21916,0.2197 h 11.55952 l 51.60662,51.496385 v -1.9631 L 249.7402,72.905006 Z m 14.75258,0 49.00635,49.028154 v -1.97667 L 252.99744,72.905006 Z m 3.96796,0 45.03839,45.038274 v -1.95529 L 256.91741,72.905006 Z m 4.43867,0 40.59972,40.599614 v -1.97095 L 261.36023,72.905006 Z m 3.5098,0 37.08992,37.090324 v -1.98295 l -35.1075,-35.107374 z m 5.10557,0 31.98435,31.980074 v -1.97512 L 269.98605,72.905006 Z m 6.81556,0 25.16879,25.158746 v -1.96416 L 276.80477,72.905006 Z m 3.73525,0 21.43354,21.433424 v -1.978764 l -19.45842,-19.45466 z m -87.85532,0.23796 c -0.0597,-0.002 -0.11962,-9.99e-4 -0.18213,0.005 -1.87977,0.191293 -3.36317,1.800767 -3.36317,3.731036 0,1.862246 1.38358,3.403967 3.16801,3.681991 v 2.005893 l 0.22021,0.195159 2.00643,2.030945 v 15.86611 l 0.19568,0.19516 19.28986,19.30291 0.2077,0.19568 h 29.67578 l 11.65709,11.64561 v 8.78235 l 0.19568,0.19569 20.72175,20.72175 v 28.5262 l -8.00013,7.97508 -0.19568,0.22022 v 93.09396 h 1.39486 v -92.5069 l 7.97559,-8.00014 0.22021,-0.19516 v -29.70025 l -0.22021,-0.19569 -20.69775,-20.69723 v -8.78287 l -0.20715,-0.22021 -12.06152,-12.06151 -0.19569,-0.19516 H 212.84076 L 193.95375,100.07157 V 84.193474 l -0.19569,-0.194649 -2.03095,-2.018938 v -1.467894 c 1.65687,-0.37939 2.89979,-1.861208 2.89979,-3.632937 0,-2.059163 -1.67241,-3.731036 -3.73158,-3.731036 -0.0643,0 -0.12425,-0.004 -0.1842,-0.005 z m -24.14495,0.506695 c -2.22104,0 -4.01181,1.790608 -4.01181,4.011787 0,1.811983 1.19311,3.347241 2.83822,3.853157 v 16.440611 l 0.20768,0.195677 44.37932,44.379317 v 17.57878 l 0.22021,0.19568 6.45813,6.47067 v 124.7386 h 1.39484 V 166.18827 l -0.22021,-0.2202 -6.45866,-6.44665 V 141.96715 L 211.17822,141.772 166.78743,97.367642 V 81.674284 c 2.1203,-0.114371 3.81665,-1.863995 3.81665,-4.011797 0,-2.221189 -1.81577,-4.012826 -4.03686,-4.012826 z m 48.56227,0 c -2.05858,6.69e-4 -3.73001,1.671773 -3.73001,3.730516 0,2.059163 1.6719,3.71853 3.73106,3.71853 0.92356,0 1.77044,-0.336029 2.4218,-0.892317 l 0.22021,0.2202 0.20821,0.22021 h 12.22067 l 1.65106,1.651046 0.19569,0.195688 h 12.36678 l 55.58607,55.595406 v -1.96625 l -54.80333,-54.803254 -0.22021,-0.22022 H 232.6086 l -1.62653,-1.651555 -0.2202,-0.195169 h -12.19615 l -0.14716,-0.159159 c 0.26779,-0.514366 0.44043,-1.09272 0.44043,-1.712626 0,-2.058744 -1.67092,-3.730367 -3.7295,-3.731046 h -5.3e-4 z M 69.328387,73.962236 v 0.005 c -2.059183,0 -3.731064,1.671872 -3.731064,3.731035 0,0.633351 0.162138,1.25132 0.440422,1.773677 l -2.874223,2.89926 -0.220212,0.195158 V 99.26425 l -0.782741,1.33327 -0.09758,0.17168 v 99.09288 l 0.207166,0.19464 34.728637,34.72759 v 5.45623 l 0.195684,0.19517 9.247824,9.22329 c -0.22967,0.42835 -0.36738,0.92468 -0.36738,1.44337 0,1.66584 1.3435,3.00938 3.00939,3.00938 1.66586,0 3.0339,-1.34354 3.0339,-3.00938 0,-1.66589 -1.36816,-3.03338 -3.0339,-3.03338 -0.64157,0 -1.23714,0.20635 -1.72465,0.55052 l -8.966547,-8.96602 v -5.4317 L 98.197425,234.00174 63.46931,199.28615 v -98.19169 l 0.782742,-1.333784 0.08609,-0.171685 V 83.14889 l 2.593481,-2.592947 c 0.648132,0.544402 1.484304,0.868844 2.396753,0.868844 2.059138,0 3.731587,-1.671883 3.731584,-3.731046 0,-2.059153 -1.672446,-3.731565 -3.731584,-3.731565 z m -11.792248,0.005 c -2.059187,0 -3.730542,1.671872 -3.730542,3.731035 0,0.59945 0.140168,1.186284 0.391368,1.688094 l -4.07338,4.073887 -0.220213,0.195158 v 81.68833 l 0.220213,0.19568 6.140339,6.14035 v 37.81002 l 0.220211,0.20821 4.795068,4.82013 v 10.82477 l 0.220212,0.20821 3.792117,3.80464 v 23.14357 l 0.195163,0.22021 1.639057,1.61505 0.196209,0.2082 H 72.9483 l 0.15968,-0.0981 1.25969,-0.72168 0.342318,-0.22022 v -5.67643 l 0.904849,-0.89285 h 12.600038 c 0.279995,1.37303 1.490674,2.3978 2.948322,2.3978 1.665839,0 3.021381,-1.34317 3.021381,-3.00885 0,-1.66567 -1.355542,-3.02191 -3.021381,-3.02191 -1.394631,0 -2.568192,0.95013 -2.911793,2.23917 H 75.040305 l -0.220211,0.19515 -1.284216,1.30875 -0.219688,0.19569 v 5.45517 l -0.758738,0.45295 h -4.648434 l -1.223165,-1.23517 v -23.14398 l -0.195163,-0.20768 -3.817166,-3.80465 v -10.81329 l -0.195684,-0.22021 -4.819073,-4.8196 v -37.7855 l -0.195685,-0.19569 -6.165387,-6.16486 V 84.242569 l 3.768112,-3.767574 c 0.658734,0.585975 1.519931,0.953907 2.470852,0.953907 2.059121,0 3.730542,-1.671393 3.730542,-3.730526 0,-2.059153 -1.671421,-3.731035 -3.730542,-3.731035 z m 23.878284,0 c -2.059178,0 -3.731063,1.671872 -3.731063,3.731035 0,1.269829 0.620859,2.408996 1.590529,3.082412 l -8.67329,8.648714 -0.207685,0.22021 V 139.6067 l -2.568954,2.59296 -0.220212,0.19568 v 51.18081 l 0.220212,0.19569 65.63959,65.63906 0.19516,0.19568 h 3.1555 c 0.022,1.64553 1.38282,2.96033 3.03388,2.96033 1.66579,0 3.00939,-1.3435 3.00939,-3.00937 0,-1.66584 -1.3436,-3.0219 -3.00939,-3.0219 -1.18118,0 -2.20369,0.6828 -2.70306,1.67609 h -2.92327 L 68.998591,192.9888 v -50.00617 l 2.604961,-2.56895 0.195163,-0.21969 V 90.236366 l 8.844447,-8.868395 h 0.02661 c 0.242658,0.04984 0.488309,0.06163 0.745693,0.06163 2.059166,0 3.730542,-1.671862 3.730542,-3.731045 0,-2.059093 -1.671376,-3.730526 -3.730542,-3.730526 z m 35.973187,0 c -1.94286,6.59e-4 -3.53329,1.56786 -3.53329,3.510825 0,1.943374 1.59141,3.535348 3.53486,3.535348 1.0385,0 1.95153,-0.479676 2.59348,-1.19862 l 3.08244,3.082412 v 10.128085 l 0.19569,0.195688 1.62652,1.639579 v 43.412367 l 0.22021,0.19516 8.83193,8.83191 v 33.95738 l 0.22022,0.19516 13.90773,13.90878 0.19568,0.19569 h 18.25091 l 0.22021,-0.19569 4.09738,-4.09737 0.19569,-0.22022 v -2.26265 c 1.37316,-0.28404 2.39779,-1.50334 2.39779,-2.96084 0,-1.6659 -1.34362,-3.00833 -3.00937,-3.00833 -1.66579,0 -3.00939,1.34243 -3.00939,3.00833 0,1.39449 0.94262,2.56263 2.22665,2.91128 v 1.77369 l -3.68201,3.658 H 148.8371 l -13.50489,-13.49288 v -33.93285 l -0.19516,-0.19568 -8.85593,-8.85646 V 94.297487 l -0.19621,-0.195678 -1.62653,-1.63905 v -10.14108 l -0.22021,-0.219681 -3.53538,-3.522842 c 0.11182,-0.344728 0.1962,-0.720072 0.1962,-1.101559 0,-1.942935 -1.56694,-3.509637 -3.50981,-3.510306 h -10e-4 z m -84.255762,0.09749 c -2.059172,0 -3.730542,1.659886 -3.730542,3.719049 0,0.950801 0.38041,1.812573 0.966424,2.471355 l -4.085906,4.072838 -0.220211,0.195158 V 196.6705 l 0.220211,0.19569 2.838216,2.86222 v 18.38605 l 0.195687,0.2077 12.171618,12.14709 0.195684,0.22021 h 3.681492 c 0.28701,1.77389 1.827579,3.14348 3.682532,3.14348 2.059117,0 3.730542,-1.67202 3.730542,-3.73106 0,-2.05909 -1.671425,-3.73002 -3.730542,-3.73002 -1.778838,0 -3.261221,1.25603 -3.633482,2.92275 H 42.270083 L 30.515407,217.56373 v -18.42154 l -0.220211,-0.22022 -2.838219,-2.83822 V 85.111522 l 4.000328,-3.988293 c 0.501837,0.251514 1.076744,0.391376 1.676109,0.391376 2.059179,0 3.730021,-1.671493 3.730021,-3.730526 0,-2.059083 -1.670842,-3.719049 -3.730021,-3.719049 z m 72.771922,0 c -1.94352,0 -3.51086,1.567451 -3.51086,3.510835 0,1.943375 1.56734,3.522842 3.51086,3.522842 0.56679,0 1.08952,-0.151728 1.56548,-0.391386 l 3.44929,3.449785 v 9.284293 l 0.19567,0.22022 5.74949,5.736969 V 140.6101 l 0.19569,0.2197 1.55295,1.52947 v 50.71481 l 0.22021,0.1962 9.04014,9.05162 0.20769,0.19569 h 10.87435 l 2.98433,2.98485 v 6.56876 c -1.30463,0.33434 -2.26264,1.5146 -2.26264,2.92379 0,1.66584 1.34353,3.00886 3.00938,3.00886 1.66589,0 3.03285,-1.34302 3.03285,-3.00886 0,-1.44071 -1.03157,-2.64563 -2.38526,-2.94779 v -7.10718 l -0.19517,-0.22022 -3.40074,-3.37621 -0.19569,-0.22021 h -10.89836 l -8.63572,-8.63624 v -50.6783 l -0.19569,-0.2202 -1.55347,-1.54149 V 98.810804 l -0.20769,-0.195158 -5.73749,-5.736449 v -9.308825 l -0.22022,-0.196188 -3.53538,-3.535357 c 0.5285,-0.617909 0.86886,-1.390392 0.86886,-2.262642 0,-1.943355 -1.5793,-3.510826 -3.52286,-3.510826 z m 97.22317,0 c -2.05913,0 -3.71854,1.659886 -3.71854,3.719049 0,1.998742 1.57178,3.636573 3.54738,3.730516 v 0.550525 l 0.19569,0.22021 5.18644,5.161882 v 16.073812 l 0.19569,0.22021 7.43708,7.43708 0.19568,0.19569 h 30.33641 l 16.20848,16.19543 v 6.85054 l 0.19568,0.19516 29.25939,29.26041 v 25.96873 l -17.16135,17.18742 -0.22021,0.19568 v 84.28657 h 1.39484 v -83.69795 l 17.18585,-17.16237 0.19571,-0.2202 v -27.14338 l -0.19571,-0.19567 -29.25988,-29.2599 v -6.85054 l -0.19568,-0.22021 -16.59932,-16.5868 -0.21968,-0.19567 h -30.32391 l -7.02118,-7.02119 V 86.861416 l -0.22021,-0.195158 -5.17444,-5.186933 v -0.183162 c 1.46008,-0.505407 2.50738,-1.878538 2.50738,-3.510306 0,-2.059163 -1.6718,-3.71852 -3.73107,-3.71852 z M 21.06877,74.383039 c -2.059175,0 -3.730541,1.671343 -3.730541,3.730526 0,0.531726 0.104966,1.046602 0.30579,1.504412 l -3.094956,3.070935 -0.195685,0.207684 v 20.904854 l -1.064006,1.08905 H 8.2005142 l -0.2076872,0.19517 -1.6635848,1.6641 -0.1956851,0.19517 v 5.13738 l 0.1956851,0.20822 1.3082205,1.29673 0.1962071,0.2077 h 5.1253852 l 1.113579,1.10105 v 3.44927 l -1.027999,1.02749 H 8.2735702 l -0.1951635,0.2202 -1.3943219,1.39433 -0.2202112,0.19567 v 68.4893 l 0.2202112,0.19568 10.7037182,10.70372 v 0.0261 c -0.281465,0.52432 -0.464948,1.13695 -0.464948,1.77369 0,2.05919 1.671927,3.71854 3.731063,3.71854 2.059176,0 3.730543,-1.65935 3.730543,-3.71854 0,-2.05917 -1.671367,-3.73106 -3.730543,-3.73106 -0.906423,0 -1.727008,0.3311 -2.373268,0.86885 L 7.8587175,189.08711 v -67.31519 l 1.0029519,-1.00295 h 4.7460176 l 0.208209,-0.19568 1.43085,-1.44338 0.220211,-0.19516 v -4.62444 l -0.220211,-0.19567 -1.504428,-1.52896 -0.220211,-0.19516 H 8.4212472 l -0.8928463,-0.89336 v -3.96382 l 1.2476887,-1.24768 h 5.1013814 l 0.195686,-0.21969 1.47938,-1.48042 0.195685,-0.19517 V 83.485518 l 2.703585,-2.703562 c 0.673003,0.662139 1.599064,1.064003 2.617486,1.064003 2.059178,0 3.731064,-1.671893 3.731064,-3.731046 0,-2.059143 -1.671886,-3.730516 -3.731064,-3.730516 z M 238.9822,85.374734 c -0.0661,-0.002 -0.13206,-0.002 -0.19464,0.005 h -5.2e-4 c -1.88011,0.191223 -3.3397,1.800507 -3.3397,3.731056 0,2.059033 1.67196,3.718509 3.73108,3.718509 1.83166,0 3.3557,-1.328712 3.67,-3.069886 h 4.63592 l 52.51564,52.515107 v -1.95999 L 248.2556,88.560258 248.05992,88.36457 h -5.21097 c -0.34767,-1.699041 -1.86769,-2.984832 -3.66949,-2.984832 -0.0643,0 -0.13112,-0.003 -0.19726,-0.005 z M 57.355587,85.697218 v 5.29e-4 c -2.059183,0 -3.718541,1.671903 -3.718541,3.731036 0,1.741903 1.19796,3.210855 2.812647,3.620421 v 74.299836 l 0.208209,0.1962 2.471374,2.45832 v 37.30908 l 0.219687,0.19517 29.101777,29.13778 c -0.140488,0.35026 -0.208209,0.73794 -0.208209,1.13758 0,1.66576 1.343519,3.00937 3.009379,3.00937 1.665858,0 3.009376,-1.34361 3.009376,-3.00937 0,-1.66576 -1.343564,-3.0339 -3.009376,-3.0339 -0.751065,0 -1.442985,0.27657 -1.969377,0.73421 L 60.523598,206.72486 v -37.28403 l -0.195685,-0.19568 -2.483376,-2.48285 V 93.12257 c 1.826424,-0.241176 3.242112,-1.801765 3.242112,-3.693987 0,-2.059113 -1.67188,-3.731046 -3.731062,-3.731046 z m 170.089533,0 v 5.29e-4 c -2.05917,0 -3.73053,1.671903 -3.73053,3.731036 0,1.764787 1.22716,3.258292 2.87422,3.644943 v 8.354984 l 0.20769,0.21968 3.9638,3.96381 0.19517,0.19516 h 18.21437 l 18.89901,18.91101 v 6.86307 l 0.19568,0.21969 29.25988,29.23588 v 31.84033 l -16.58729,16.57531 -0.19517,0.22022 v 81.84076 h 1.3938 v -81.2537 l 16.58732,-16.61133 0.19568,-0.20821 v -32.9659 l -0.19568,-0.19621 -29.25991,-29.28442 v -6.87455 l -0.19568,-0.2082 -19.31438,-19.30292 -0.19569,-0.19568 h -18.21438 l -3.54789,-3.55886 v -7.731389 c 1.79494,-0.268855 3.18106,-1.82421 3.18106,-3.693988 0,-2.059163 -1.67192,-3.731055 -3.73108,-3.731055 z m -109.9714,0.09809 v 5.2e-4 c -1.94353,0 -3.53538,1.566802 -3.53538,3.510306 0,1.943454 1.59185,3.523371 3.53538,3.523371 0.31509,0 0.62718,-0.02987 0.91737,-0.110634 L 121.461,95.8013 v 91.22999 l 0.19568,0.19569 5.17445,5.17443 c -0.14049,0.34841 -0.22022,0.73749 -0.22022,1.13706 0,1.66586 1.343,3.00938 3.00885,3.00938 1.66587,0 3.00939,-1.34352 3.00939,-3.00938 0,-1.66588 -1.34352,-3.00885 -3.00939,-3.00885 -0.754,0 -1.42958,0.27786 -1.95685,0.73369 l -4.80706,-4.79507 V 95.214246 l -0.2077,-0.195688 -2.97284,-2.996848 c 0.7933,-0.648984 1.30874,-1.611511 1.30874,-2.715578 0,-1.943504 -1.56684,-3.510826 -3.51033,-3.510826 z m -84.172279,5.2e-4 c -2.059135,0 -3.731064,1.659416 -3.731064,3.718519 0,1.561378 0.950419,2.918958 2.312218,3.474307 V 216.08557 l 0.30579,0.30581 8.416027,8.41602 0.305791,0.3058 h 11.107091 l 8.195293,8.19581 v 5.79803 l -2.397272,2.39778 H 1.2526923e-6 v 2.10454 H 58.683111 l 0.305794,-0.30632 3.009376,-3.03337 0.30579,-0.30581 v -7.49918 l -0.30579,-0.30578 -8.8074,-8.81941 -0.30579,-0.31831 H 41.766 l -7.7914,-7.80392 V 93.185988 c 1.730662,-0.322903 3.057907,-1.845285 3.057907,-3.669475 0,-2.059173 -1.671894,-3.71852 -3.731066,-3.71852 z m 72.507349,0.08091 c -0.0586,-0.002 -0.11717,-0.002 -0.17638,0.004 v 5.3e-4 c -1.7745,0.180065 -3.156,1.688883 -3.156,3.510835 0,1.943445 1.56685,3.511355 3.51033,3.511355 0.34731,0 0.68521,-0.06592 1.00295,-0.159679 v 0.917369 l 0.2202,0.22021 5.41918,5.431695 v 42.079627 l 0.19569,0.2202 2.88676,2.86223 v 49.67533 l 0.19619,0.19568 10.94742,10.93594 0.22021,0.21969 h 4.57434 l 2.14105,2.16557 c -0.23824,0.43432 -0.40389,0.92693 -0.40389,1.4559 0,1.66589 1.34363,3.00833 3.00938,3.00833 1.66574,0 3.02137,-1.34244 3.02137,-3.00833 0,-1.66586 -1.35551,-3.0339 -3.02137,-3.0339 -0.62469,0 -1.19592,0.19813 -1.67612,0.526 l -2.3122,-2.31221 -0.19517,-0.19568 h -4.55034 L 117.10635,193.5759 V 143.899 l -0.22021,-0.20717 -2.85074,-2.86273 V 98.737048 l -0.20716,-0.207694 -5.44371,-5.431695 v -1.161572 c 0.68576,-0.639564 1.13759,-1.533809 1.13759,-2.544422 0,-1.943345 -1.59198,-3.510836 -3.53538,-3.510836 -0.0606,0 -0.11922,-0.003 -0.17795,-0.004 z m 110.05177,0.004 0.001,5.3e-4 c -2.05917,0 -3.71906,1.671892 -3.71906,3.731035 0,1.624527 1.03412,2.999676 2.4839,3.510836 v 10.286781 l 0.21968,0.2202 5.01529,5.01581 0.20769,0.21969 h 26.73998 l 18.05523,18.06775 v 6.39708 l 0.19567,0.1962 29.89652,29.89599 v 28.08526 l -17.07733,17.07732 -0.22021,0.19516 v 82.73309 h 1.40738 V 209.3669 l 17.08828,-17.10079 0.19517,-0.19569 v -29.22283 l -0.19517,-0.19569 -29.89653,-29.90853 v -6.3976 l -0.19567,-0.2202 -18.49512,-18.45912 -0.19517,-0.19568 H 220.6676 l -4.64792,-4.62392 v -9.517075 c 1.98596,-0.08221 3.57138,-1.712167 3.57138,-3.71852 0,-2.059172 -1.67141,-3.730526 -3.73055,-3.730526 z m -134.448744,0.06053 v 0.002 c -2.059138,0 -3.730542,1.671923 -3.730542,3.731056 0,0.754334 0.226466,1.455588 0.61158,2.042432 l -3.645484,3.620421 -0.195684,0.22021 v 8.880983 l 0.195684,0.19516 0.966425,0.95442 v 33.95685 l -4.672442,4.64896 -0.195685,0.20821 v 46.33616 l 0.195685,0.22021 6.152864,6.15234 0.220211,0.19569 h 1.846746 l 56.917246,56.91726 0.19568,0.2202 h 8.50162 l 0.19516,-0.2202 3.31517,-3.29066 0.22021,-0.22021 v -6.10381 l -0.22021,-0.20821 -3.3397,-3.32717 c 0.30107,-0.46863 0.50148,-1.01423 0.50148,-1.61452 0,-1.66575 -1.3436,-3.03391 -3.00938,-3.03391 -1.66577,0 -3.02086,1.36816 -3.02086,3.03391 0,1.66581 1.35502,3.00937 3.02086,3.00937 0.55431,0 1.05963,-0.18049 1.50495,-0.44042 l 3.16801,3.16853 v 4.92918 l -2.92275,2.91128 h -7.32802 l -56.916723,-56.90577 -0.195685,-0.21969 h -1.896321 l -5.71192,-5.71245 v -45.22364 l 4.672964,-4.67297 0.19464,-0.19567 v -35.08245 l -0.19464,-0.2202 -0.966946,-0.95443 v -7.718344 l 3.400746,-3.412747 c 0.607533,0.429392 1.364641,0.684633 2.165062,0.684633 2.059148,0 3.731063,-1.671483 3.731063,-3.730516 0,-2.059063 -1.671915,-3.731046 -3.731063,-3.731046 z m 121.297664,0.0877 c -2.05918,0 -3.71906,1.671383 -3.71906,3.730546 0,1.862426 1.37152,3.403847 3.15601,3.681991 v 8.806875 l 0.19568,0.20821 11.69415,11.68267 0.22021,0.19569 h 30.60517 L 259.43,128.90278 v 6.60581 l 0.22021,0.19568 29.59073,29.61526 v 22.89934 l -17.02774,17.02722 -0.22021,0.19568 v 86.07174 h 1.39485 v -85.48468 l 17.02774,-17.02774 0.2202,-0.19517 v -24.07344 l -0.2202,-0.19569 -29.59073,-29.61421 v -6.58128 l -0.19569,-0.20769 -14.97278,-14.97226 -0.20769,-0.22021 H 214.819 l -11.27877,-11.27879 v -8.256881 c 1.65688,-0.379509 2.89874,-1.873593 2.89874,-3.645462 0,-2.059113 -1.67139,-3.730526 -3.73053,-3.730526 z m -181.471115,0.07671 v 0.008 c -2.059141,0 -3.718541,1.671913 -3.718541,3.731056 0,1.778791 1.244001,3.273185 2.910752,3.645472 V 194.79422 l 0.196208,0.22021 5.93213,5.90812 v 20.34342 l 0.220212,0.19517 14.201523,14.20152 0.195684,0.2077 h 10.397408 c 0.28701,1.77389 1.827063,3.144 3.682012,3.144 2.059124,0 3.730542,-1.67148 3.730542,-3.73054 0,-2.05909 -1.671418,-3.71853 -3.730542,-3.71853 -1.778796,0 -3.2607,1.24451 -3.632962,2.91127 h -9.85888 l -13.810153,-13.7991 v -20.31838 l -0.195686,-0.19516 -5.92065,-5.95717 V 93.51916 c 1.774012,-0.287004 3.131485,-1.827176 3.131485,-3.681991 0,-2.059103 -1.671399,-3.731045 -3.730542,-3.731045 z m 109.122395,0.008 c -1.94319,3.5e-4 -3.51033,1.592113 -3.51033,3.535378 0,1.393238 0.80978,2.575796 1.9819,3.143472 V 138.1878 l 0.19569,0.1957 7.76792,7.7674 v 32.01252 l 0.19568,0.19621 10.89784,10.89784 0.19568,0.19568 h 11.34035 c 0.27998,1.37318 1.49019,2.3978 2.9478,2.3978 1.66585,0 3.00937,-1.34351 3.00937,-3.00938 0,-1.66583 -1.34352,-3.02138 -3.00937,-3.02138 -1.3945,0 -2.55516,0.94975 -2.89874,2.23864 h -10.80183 l -10.48299,-10.48245 v -32.01253 l -0.19515,-0.19622 -7.76793,-7.76738 V 93.159478 h 0.13411 c 1.94348,0 3.52286,-1.566911 3.52286,-3.510306 0,-1.943174 -1.57863,-3.535037 -3.52181,-3.535377 z m 23.63408,0.0861 c -1.94353,0 -3.51086,1.567461 -3.51086,3.510866 0,1.736609 1.24637,3.209088 2.89928,3.498819 v 42.776777 l 0.0855,0.17169 1.076,1.85927 v 19.69428 l 0.20822,0.22021 16.56279,16.54974 0.19569,0.19569 H 175.23 l 5.87159,5.85906 v 110.97751 h 1.39433 V 179.94994 l -0.21969,-0.22021 -6.25097,-6.25045 -0.19569,-0.19621 h -3.73106 l -16.15942,-16.15786 v -19.47459 l -0.0855,-0.18368 -1.07654,-1.80969 V 93.161206 c 1.56701,-0.357274 2.72811,-1.773337 2.72811,-3.449255 0,-1.943354 -1.56737,-3.510326 -3.51084,-3.510326 z m -145.410261,0.499414 5.218e-4,0.002 c -2.0591399,0 -3.718543,1.671893 -3.7185398,3.731036 0,0.683055 0.1927757,1.333097 0.5134779,1.883792 L 1.7225525,95.973485 1.4167618,96.279278 V 196.30206 l 0.3057907,0.30578 13.4313075,13.45532 c -0.160891,0.41667 -0.244737,0.87213 -0.244737,1.34578 0,2.05919 1.67189,3.73055 3.731065,3.73055 2.059177,0 3.731063,-1.67136 3.731063,-3.73055 0,-2.05912 -1.671886,-3.71853 -3.731063,-3.71853 -0.81662,0 -1.563319,0.26377 -2.177585,0.70916 L 3.5082449,195.44557 V 97.145854 l 3.4007473,-3.40127 c 0.5040117,0.254092 1.0726708,0.415908 1.6755868,0.415908 2.059136,0 3.731065,-1.670863 3.731065,-3.730016 0,-2.059103 -1.671929,-3.731036 -3.731065,-3.731036 z m 169.571891,0.002 c -2.05916,0 -3.73159,1.671893 -3.73159,3.731036 0,2.036448 1.64217,3.694427 3.67002,3.730536 v 9.003596 l 0.2202,0.19569 36.78256,36.80759 v 17.45511 l 0.19569,0.20822 6.43412,6.43414 v 127.24647 h 1.39485 V 163.6809 l -0.19569,-0.19569 -6.43413,-6.43412 v -17.46764 l -0.22022,-0.20872 -36.78254,-36.79508 v -8.647728 c 1.40563,-0.534224 2.3978,-1.905997 2.3978,-3.498829 0,-2.059143 -1.67186,-3.731046 -3.73107,-3.731046 z M 81.405032,97.673246 v 9.98e-4 c -2.05918,0 -3.730542,1.671883 -3.730542,3.731056 0,1.85492 1.369999,3.39438 3.144006,3.68149 v 33.54148 l -7.119807,7.10677 -0.207688,0.22021 v 42.41045 l 0.207688,0.22021 4.36717,4.37918 0.220212,0.19569 h 3.266116 l 54.715143,54.71512 0.22021,0.1957 h 2.81368 c 0.20194,1.4679 1.43527,2.59296 2.9598,2.59296 1.66586,0 3.00939,-1.343 3.00939,-3.00886 0,-1.66584 -1.34353,-3.00937 -3.00939,-3.00937 -1.32198,0 -2.43272,0.8492 -2.83821,2.03093 h -2.37275 l -54.715132,-54.71541 -0.195686,-0.19568 h -3.265593 l -3.988326,-3.96328 v -41.26035 l 7.131291,-7.15581 0.195684,-0.19568 v -34.14159 c 1.666639,-0.3722 2.923798,-1.86606 2.923798,-3.64496 0,-2.059182 -1.671899,-3.731065 -3.731063,-3.731065 z M 274.65067,124.91575 c -1.66589,0 -3.00889,1.34364 -3.00889,3.00938 0,1.66575 1.343,3.02138 3.00889,3.02138 0.62465,0 1.20787,-0.18577 1.68809,-0.51348 h 0.0125 l 23.64869,23.63616 v -1.95686 l -22.73027,-22.73078 c 0.23825,-0.43442 0.39136,-0.92675 0.39136,-1.4559 0,-1.66575 -1.3436,-3.00937 -3.00936,-3.00937 z m -25.72609,5.27098 9.9e-4,0.002 c -1.66586,0 -3.00937,1.36756 -3.00937,3.03338 0,1.66589 1.34365,3.00886 3.00937,3.00886 0.62469,0 1.21607,-0.20184 1.70012,-0.526 v 5.62738 l 0.22021,0.19517 21.18669,21.19974 v 25.18599 l -8.3915,8.3915 -0.19567,0.2202 v 94.98873 h 1.39431 v -94.45125 l 8.40352,-8.36645 0.19567,-0.22022 V 162.15169 L 273.24325,161.956 252.02,140.74477 v -7.60823 c 0.003,-0.1386 -0.0357,-0.27528 -0.11062,-0.39189 1.7e-4,-0.009 1.7e-4,-0.0173 0,-0.0261 -0.2412,-1.42988 -1.48973,-2.5319 -2.98485,-2.5319 z m -24.03639,2.2642 c -1.66589,0 -3.0219,1.34363 -3.0219,3.00939 0,1.66576 1.35601,3.03389 3.0219,3.03389 0.48683,0 0.95147,-0.12364 1.35779,-0.33032 l 6.88706,6.89908 v 8.47709 l 0.19517,0.19569 15.70647,15.70647 v 122.07151 h 1.39485 V 168.87466 l -0.22021,-0.20822 -15.68247,-15.68247 v -8.50056 l -0.20769,-0.19569 -7.02118,-7.02171 c 0.36876,-0.50369 0.59905,-1.1283 0.59905,-1.79874 0,-1.66575 -1.34305,-3.00832 -3.00884,-3.00832 z m -61.32565,2.77821 c -1.66578,0 -3.00938,1.34308 -3.00938,3.00886 0,1.66575 1.3436,3.00937 3.00938,3.00937 0.48002,0 0.93122,-0.13167 1.33326,-0.33031 l 6.9116,6.91108 v 15.02183 l 0.19516,0.19569 2.20159,2.21359 0.22022,0.19569 h 4.63643 l 11.53447,11.53447 v 114.52432 h 1.39484 V 176.39261 l -0.20821,-0.19568 -11.92583,-11.92688 -0.22021,-0.22022 h -4.64844 l -1.78622,-1.78621 v -15.02131 l -0.19516,-0.19517 -7.02118,-7.0217 c 0.36836,-0.49942 0.58653,-1.11527 0.58653,-1.7857 0,-1.66578 -1.34297,-3.00938 -3.00885,-3.00937 z m 29.41643,2.67906 c -1.66577,0 -3.03339,1.34352 -3.03339,3.00939 0,1.66584 1.3675,3.00884 3.03339,3.00884 0.61787,0 1.17452,-0.20848 1.65159,-0.526 h 0.0256 l 6.74044,6.76497 v 13.58995 l 0.2202,0.19515 6.07929,6.07981 v 121.48346 h 1.39485 V 169.44344 l -0.22021,-0.19569 -6.0793,-6.09128 v -13.55393 l -0.19619,-0.1957 -6.99667,-7.02118 c 0.24141,-0.43352 0.39137,-0.93516 0.39137,-1.46789 0,-1.6659 -1.34356,-3.00938 -3.00937,-3.00938 z m -14.67899,0.66063 c -1.66578,0 -3.00937,1.35561 -3.00937,3.02139 0,1.66576 1.34359,3.00938 3.00937,3.00938 0.41647,0 0.81233,-0.0806 1.17463,-0.23274 h 0.0256 l 6.86255,6.86255 v 11.10657 l 0.20768,0.19619 11.84132,11.84027 v 117.14131 h 1.39431 V 173.78608 l -0.19567,-0.20768 -11.84132,-11.81678 v -11.11961 l -0.2202,-0.19568 -6.9356,-6.93561 c 0.43932,-0.52162 0.72169,-1.18661 0.72169,-1.92085 0,-1.66576 -1.36742,-3.02086 -3.03338,-3.02086 z m 67.4498,1.01549 c -1.66584,0 -3.00885,1.34299 -3.00885,3.00884 0,1.66587 1.34309,3.00939 3.00885,3.00939 1.22492,0 2.28805,-0.71488 2.76464,-1.76169 l 20.31839,20.30585 v 22.99692 l -8.2814,8.29445 -0.22021,0.19464 v 95.88104 h 1.39485 v -95.29348 l 8.30593,-8.30591 0.20767,-0.19516 v -24.12305 l -0.20767,-0.21969 -21.32187,-21.29628 c -0.25076,-1.41478 -1.47327,-2.49539 -2.96033,-2.49539 z m -20.78333,2.50737 c -1.66576,0 -3.00938,1.34353 -3.00938,3.00938 0,1.66587 1.34362,3.00938 3.00938,3.00938 0.57355,0 1.10662,-0.17627 1.56548,-0.45294 l 3.48633,3.48632 v 4.37917 l 0.19516,0.22021 15.20604,15.20552 v 120.565 h 1.39485 v -121.1524 l -0.22022,-0.22022 -15.18047,-15.17942 v -4.40424 l -0.20768,-0.19515 -3.66949,-3.65749 c 0.29111,-0.46156 0.46443,-1.01693 0.46443,-1.60252 0,-1.66586 -1.36804,-3.00939 -3.0339,-3.00939 z m -61.32721,2.77352 -0.002,0.002 c -1.66573,0 -3.0339,1.34353 -3.0339,3.00938 0,1.66588 1.36807,3.00937 3.0339,3.00937 0.41646,0 0.81387,-0.0932 1.17411,-0.24473 h 0.0261 l 3.92675,3.92622 V 164.574 l 0.19569,0.22022 3.92623,3.90222 0.19568,0.21969 h 4.26907 l 9.55361,9.55361 v 113.04393 h 1.39431 V 177.89234 l -0.19567,-0.19516 -9.98099,-9.98151 -0.19621,-0.19517 h -4.25706 l -3.51033,-3.51136 v -10.00605 l -0.21969,-0.2202 -3.9878,-3.98781 c 0.4321,-0.52078 0.69663,-1.18844 0.69663,-1.92032 0,-1.66572 -1.34272,-3.0091 -3.00833,-3.00937 z m -148.758295,0.50355 c -2.059175,0 -3.730542,1.6719 -3.730542,3.73107 0,2.05913 1.671367,3.71854 3.730542,3.71854 2.059172,0 3.731064,-1.65947 3.731064,-3.71854 0,-2.05905 -1.671892,-3.73107 -3.731064,-3.73107 z m 65.504436,0.0616 c -2.059149,0 -3.706539,1.67246 -3.706539,3.73159 0,2.05919 1.64739,3.73002 3.706539,3.73002 2.059166,0 3.731586,-1.67083 3.731586,-3.73002 0,-2.05913 -1.67242,-3.73159 -3.731586,-3.73159 z m 24.269129,0.44042 c -1.94348,0 -3.53537,1.56746 -3.53537,3.51085 0,1.94339 1.59189,3.51034 3.53537,3.51034 1.94348,0 3.51138,-1.56683 3.51138,-3.51034 0,-1.94347 -1.5679,-3.51085 -3.51138,-3.51085 z m 23.62103,1.15011 c -1.94346,0 -3.51137,1.59152 -3.51137,3.53486 0,1.94341 1.56791,3.51085 3.51137,3.51085 1.94348,0 3.52286,-1.56735 3.52286,-3.51085 0,-1.9435 -1.57938,-3.53486 -3.52286,-3.53486 z m 64.75823,0.526 c -1.66588,0 -3.00938,1.3431 -3.00938,3.00886 0,1.66579 1.3435,3.00938 3.00938,3.00938 0.59726,0 1.1681,-0.17913 1.63905,-0.47748 l 3.74306,3.74358 v 8.15929 l 0.1957,0.22022 6.01822,5.99371 v 120.30933 h 1.39485 V 170.64662 l -0.19568,-0.19568 -6.01824,-6.01823 v -8.1833 l -0.19568,-0.19568 -3.98781,-3.96328 c 0.26926,-0.44899 0.44043,-0.96784 0.44043,-1.52895 0,-1.6658 -1.36816,-3.00938 -3.0339,-3.00938 z m 55.30323,0.15864 c -1.66583,0 -3.00886,1.35558 -3.00886,3.02137 0,1.66575 1.34309,3.00938 3.00886,3.00938 0.51201,0 0.99456,-0.14267 1.41885,-0.36684 l 7.10729,7.10676 v 131.03758 h 1.39431 V 159.88915 l -0.19567,-0.19515 -7.24141,-7.24141 c 0.34398,-0.48763 0.55054,-1.0841 0.55054,-1.72568 0,-1.66578 -1.36759,-3.02137 -3.03339,-3.02137 z M 1.2526923e-6,147.82714 v 2.66915 C 0.15942312,150.08136 0.25047817,149.63283 0.25047817,149.16199 c 0,-0.47084 -0.0910556,-0.91985 -0.2504769173077,-1.33485 z M 178.37929,148.20757 c -1.66589,0 -3.00937,1.35495 -3.00937,3.02084 0,1.66586 1.34348,3.00939 3.00937,3.00939 0.76513,0 1.45127,-0.2905 1.98138,-0.75822 l 3.05842,3.04538 v 5.82307 l 0.22022,0.22021 12.31773,12.31826 v 116.62732 h 1.39432 V 174.29957 l -0.22021,-0.19517 -12.31773,-12.31878 v -5.82254 l -0.19569,-0.19569 -3.44979,-3.44979 c 0.13093,-0.33771 0.22021,-0.70312 0.22021,-1.08801 0,-1.66585 -1.34307,-3.0219 -3.00886,-3.0219 z m 46.83556,2.43432 c -1.66587,0 -3.00886,1.34365 -3.00886,3.00937 0,1.66582 1.34299,3.00886 3.00886,3.00886 0.53284,0 1.03458,-0.14965 1.46789,-0.39137 l 16.52678,16.52679 v 118.71828 h 1.39433 V 172.20808 l -0.22021,-0.19516 -16.6849,-16.68542 c 0.32401,-0.48021 0.526,-1.05086 0.526,-1.67559 0,-1.66582 -1.34363,-3.00937 -3.00938,-3.00937 z m -61.33818,2.7756 c -1.66576,0 -3.00937,1.34361 -3.00937,3.00937 0,1.37768 0.9175,2.51519 2.17758,2.87423 v 3.15654 l 0.19516,0.2202 9.11319,9.10067 0.19569,0.20768 h 3.9017 l 7.68234,7.68235 v 111.84529 h 1.39485 v -112.4322 l -0.19569,-0.19622 -8.09823,-8.09719 -0.2077,-0.19619 h -3.89022 l -8.69729,-8.69729 v -2.5314 c 1.39792,-0.26372 2.45938,-1.46402 2.45938,-2.93632 0,-1.66577 -1.35551,-3.00885 -3.02139,-3.00885 z m 29.40653,2.65506 c -1.66586,0 -3.00937,1.36749 -3.00938,3.03337 0,1.48709 1.08071,2.68886 2.49538,2.93581 v 1.71211 l 0.19568,0.19568 8.91751,8.91803 v 118.64627 h 1.39484 V 172.2994 l -0.19568,-0.19516 -8.9175,-8.91751 v -1.22316 c 1.23636,-0.37394 2.12852,-1.48885 2.12852,-2.8497 0,-1.66586 -1.34359,-3.0339 -3.00937,-3.0339 z m -14.65395,0.67158 v 10e-4 c -1.66586,0 -3.0219,1.36708 -3.0219,3.03286 0,1.66577 1.35604,3.00937 3.0219,3.00937 0.68622,0 1.30438,-0.25153 1.80969,-0.6361 v 2.00642 l 0.19569,0.19516 12.58803,12.587 v 114.57392 h 1.3938 v -115.1608 l -0.22021,-0.19517 -12.54993,-12.56351 v -3.15601 h -0.29379 c 0.0468,-0.21081 0.0861,-0.43551 0.0861,-0.66064 0,-1.66555 -1.34386,-3.03309 -3.00937,-3.03338 z m 49.94511,11.14623 c -1.66577,0 -3.0339,1.36753 -3.0339,3.03338 0,1.66588 1.36813,3.00938 3.0339,3.00938 0.63575,0 1.21556,-0.216 1.70064,-0.55053 l 6.60529,6.62982 v 111.50141 h 1.39484 V 179.42553 l -0.22021,-0.22021 -6.86255,-6.86202 c 0.23017,-0.42562 0.39137,-0.8997 0.39137,-1.41885 0,-1.66587 -1.34351,-3.03391 -3.00938,-3.03391 z m 0.0616,8.96656 c -1.66576,0 -3.0099,1.3676 -3.0099,3.03337 0,0.53288 0.15025,1.02198 0.39189,1.45539 l -1.08905,1.08905 -0.22021,0.22021 v 108.85887 h 1.39485 V 183.24212 l 0.85631,-0.86885 h 0.0261 c 0.47703,0.3177 1.03327,0.526 1.65105,0.526 1.66587,0 3.03391,-1.3435 3.03391,-3.00938 0,-1.66586 -1.36804,-3.03285 -3.03391,-3.03285 z m -100.37241,4.18349 c -1.66583,0 -3.00936,1.3676 -3.00936,3.03338 0,1.66575 1.34353,3.00937 3.00936,3.00937 1.66588,0 3.02139,-1.34353 3.02139,-3.00937 0,-1.66587 -1.35551,-3.03338 -3.02139,-3.03338 z m -23.79218,0.17167 c -1.66587,0 -3.00885,1.34308 -3.00885,3.00886 0,1.66576 1.34298,3.03339 3.00885,3.03339 1.66587,0 3.00938,-1.36753 3.00938,-3.03339 0,-1.66583 -1.34357,-3.00886 -3.00938,-3.00886 z m 176.88166,0.0256 c -1.68904,0 -3.04591,1.36894 -3.04591,3.05791 0,1.68895 1.35695,3.07095 3.04591,3.07095 1.68899,0 3.08242,-1.382 3.08242,-3.07095 0,-1.68897 -1.39343,-3.05791 -3.08242,-3.05791 z m -17.61533,0.24422 c -1.66589,0 -3.00832,1.34409 -3.00832,3.0099 0,1.66575 1.34243,3.00834 3.00832,3.00834 1.66586,0 3.03391,-1.34249 3.03391,-3.00834 0,-1.6659 -1.36817,-3.0099 -3.03391,-3.0099 z M 80.368673,181.629 c -2.059153,0 -3.706015,1.67138 -3.706015,3.73054 0,2.05915 1.646862,3.73106 3.706015,3.73106 2.059138,0 3.731063,-1.67191 3.731063,-3.73106 0,-2.05916 -1.671925,-3.73054 -3.731063,-3.73054 z m -65.501827,0.085 c -2.059136,0 -3.731064,1.67142 -3.731064,3.73055 0,2.05917 1.671928,3.73107 3.731064,3.73107 2.059182,0 3.731064,-1.6719 3.731064,-3.73107 0,-2.05913 -1.671882,-3.73055 -3.731064,-3.73055 z m 24.208083,0 c -2.059143,0 -3.731063,1.67142 -3.731063,3.73055 0,2.05917 1.67192,3.73107 3.731063,3.73107 2.059161,0 3.71854,-1.6719 3.71854,-3.73107 0,-2.05913 -1.659379,-3.73055 -3.71854,-3.73055 z M 2.1429792e-5,183.22466 v 4.43971 C 0.46164631,187.04337 0.7384068,186.27699 0.7384068,185.44452 c 0,-0.83253 -0.27668977,-1.59894 -0.738385370208,-2.21986 z M 231.58272,185.49409 c -1.66587,0 -3.00938,1.34358 -3.00938,3.00938 0,1.45759 1.02468,2.67572 2.3978,2.95981 v 100.05044 h 1.39432 V 191.43093 c 1.28402,-0.34843 2.22664,-1.52922 2.22664,-2.92381 0,-1.66576 -1.34352,-3.00937 -3.00938,-3.00937 z M 300,195.32062 l -16.33372,16.31128 -0.19517,0.22021 v 79.66161 h 1.3938 V 212.43915 L 300,197.28319 Z m 0,3.67732 -13.57793,13.59673 -0.19467,0.19568 v 78.72337 h 1.3938 V 213.3534 L 300,200.98349 Z m 0,5.15252 -10.05614,10.06083 -0.19568,0.19568 v 77.10675 h 1.39381 V 214.99454 L 300,206.12818 Z m 0,3.9351 -7.32854,7.32541 -0.19621,0.20768 v 75.89507 h 1.39484 V 216.19447 L 300,210.06457 Z m 0,4.81491 -4.21063,4.21061 -0.19517,0.19569 v 74.20695 h 1.39484 V 217.89434 L 300,214.8834 Z m 0,18.67514 c -1.36925,0.6065 -2.32787,1.9758 -2.32787,3.56721 0,1.59136 0.95864,2.94729 2.32787,3.54685 z m 0,11.89245 c -1.27827,0.63433 -2.15984,1.94148 -2.15984,3.46648 0,1.52506 0.88152,2.84522 2.15984,3.48685 z m 0,11.56576 c -1.27677,0.64194 -2.15672,1.96126 -2.15672,3.48528 0,0.63884 0.16712,1.2315 0.44041,1.76169 v 31.23293 h 1.39433 v -29.70449 c 0.10397,0.0649 0.21214,0.12306 0.32198,0.17794 z"
       id="path4688"
       inkscape:connector-curvature="0" />
    <path
       style="opacity:1;fill:#000d50;fill-opacity:1;stroke:url(#linearGradient4774);stroke-width:2.62244248;stroke-linecap:round;stroke-linejoin:round;stroke-miterlimit:4;stroke-dasharray:none;stroke-dashoffset:0;stroke-opacity:1"
       d="m 135.00423,103.96961 v 2.20317 h -2.23698 v 0.96456 h 2.23698 v 4.08569 c -1.02054,0.22457 -1.75247,1.1801 -1.75341,2.28871 1.4e-4,1.14218 0.77506,2.11766 1.83383,2.30717 -0.94107,2.18512 -3.39555,3.23248 -5.291,4.72496 l -3.53552,20.82386 -6.64538,7.93829 2.33226,1.23964 0.11679,24.55917 -2.33175,1.98444 -0.0144,4.96163 h -0.91795 l 0.45795,41.68 -16.75713,15.75979 v 28.06551 l -7.359972,-0.0574 V 221.69828 L 79.899742,205.4867 73.029997,211.64493 V 185.80874 L 56.211422,175.47877 38.842664,186.14631 v 31.26346 l -7.22012,-0.22129 -14.064766,-15.05084 -16.2464252,17.28321 v 11.08657 43.04001 22.14136 H 298.68865 v -26.13944 h -7.43219 -2.85474 c -0.14551,-0.51231 -0.61815,-0.89813 -1.20225,-0.98148 -0.32683,-0.0456 -0.66133,0.008 -0.95023,0.15164 -0.31402,-0.52144 -0.89056,-0.88239 -1.55518,-0.97482 -0.13462,-0.0186 -0.27106,-0.0256 -0.40723,-0.0215 -0.0718,-0.53933 -0.41053,-0.9611 -0.84163,-1.04703 -0.15124,-0.0298 -0.30628,-0.0161 -0.45281,0.0394 -0.23675,-0.58994 -0.72391,-1.00735 -1.29598,-1.10953 -0.1138,-0.0202 -0.22912,-0.0276 -0.34423,-0.022 -0.14509,-0.67662 -0.6291,-1.18771 -1.22889,-1.29752 -0.0356,-0.005 -0.0716,-0.0115 -0.10757,-0.0144 -0.47832,-1.42395 -2.17826,-2.50743 -4.29572,-2.73745 -0.0659,-0.005 -0.13208,-0.0103 -0.19822,-0.0133 3.04036,-7.00348 -0.19689,-14.96785 -6.84363,-22.19668 2.7083,0.008 5.00346,-0.0735 9.71887,0.36063 2.895,-0.29827 4.8477,-1.39872 5.46669,-3.63389 4.26544,0.79601 6.92774,-5.17304 14.17695,-2.72617 -3.33152,-3.52072 -7.78637,-2.66277 -12.47015,-0.90873 -1.11092,-12.14744 -7.69224,-11.60431 -7.68573,-7.81228 -2.01135,-2.20393 -4.68986,-3.39731 -7.08542,-3.40593 -4.57334,-0.0146 -8.11576,4.28855 -4.01754,14.12521 l -1.67761,0.48152 c -18.67089,-16.83608 -54.55658,-27.68297 -66.48249,-8.26869 -3.98088,-7.47417 1.93391,-14.03243 8.21285,-20.5575 27.23989,6.46358 29.36749,-39.49789 6.64077,-39.49271 v -9.9e-4 l -9.9e-4,-9.9e-4 c -6.07543,9.2e-4 -13.92722,3.28922 -23.55004,11.74019 -5.57162,0.52149 -8.65728,-3.58353 -12.56081,-6.16746 -0.36544,-10.92104 -21.54723,23.02619 -10.14607,19.52942 l 20.29163,11.30786 c -7.76068,17.84105 -21.92864,35.33997 -5.31507,54.47746 l 0.29967,1.70066 c -0.4737,-0.1234 -0.921,0.41344 -1.02092,1.22581 l -0.02,0.32733 c 4.2e-4,0.0654 0.003,0.13034 0.008,0.19516 -0.60293,0.04 -1.09586,0.31514 -1.22274,0.68231 l -0.0297,0.18032 c 4.1e-4,0.0759 0.0172,0.15202 0.0497,0.22538 -0.11273,0.0951 -0.21415,0.20318 -0.30223,0.32221 -0.0232,-0.004 -0.0465,-0.008 -0.0697,-0.0118 -0.7311,-0.10633 -1.46032,0.20038 -1.8569,0.78067 -0.39367,0.0787 -0.74609,0.39735 -0.96969,0.87696 -0.22126,-0.1507 -0.47745,-0.25026 -0.74787,-0.29095 -0.91363,-0.13542 -1.78113,0.42058 -1.97318,1.26525 l -0.005,0.0261 c -0.0234,-0.004 -0.0471,-0.005 -0.0707,-0.009 -1.22254,-0.12791 -2.38267,0.39842 -2.64013,1.19764 l -0.0517,0.32066 c 8.6e-4,0.10759 0.019,0.21462 0.0538,0.31964 -0.95926,0.0512 -1.75425,0.51575 -1.95525,1.14231 l -0.008,0.0513 c -0.45044,-0.01 -0.88834,0.06 -1.26115,0.18953 v -29.59661 l -16.75816,-15.75979 0.45846,-41.68102 h -0.91845 l -0.0154,-4.96111 -2.33123,-1.98445 0.11577,-24.55917 2.33226,-1.23964 -6.64385,-7.93828 -3.53502,-20.82336 c -2.19863,-1.62341 -4.26908,-2.51444 -5.23721,-4.73675 1.03306,-0.21352 1.77943,-1.17587 1.78006,-2.29537 -7e-5,-1.10903 -0.73208,-2.06568 -1.75291,-2.29077 v -4.08415 h 2.23648 v -0.96405 h -2.23648 v -2.20397 z M 271.3106,226.3367 c 2.01574,-0.0529 4.60912,1.94996 5.93948,6.9179 -2.563,1.38585 -4.33821,2.05805 -6.94604,1.54033 -3.22339,-4.92578 -1.58506,-8.39013 1.00656,-8.45823 z"
       id="path4760"
       inkscape:connector-curvature="0" />
    <path
       style="opacity:1;fill:#ffffff;fill-opacity:1;stroke:none;stroke-width:4.47759485;stroke-linecap:round;stroke-linejoin:round;stroke-miterlimit:4;stroke-dasharray:none;stroke-dashoffset:0;stroke-opacity:1"
       d="m 135.00423,103.94334 v 2.20318 h -2.23698 v 0.96456 h 2.23698 v 4.08568 c -1.02054,0.22458 -1.75248,1.1801 -1.75342,2.28872 1.6e-4,1.14218 0.77507,2.11765 1.83384,2.30716 -0.94107,2.18512 -3.39555,3.23248 -5.29099,4.72496 l -3.53553,20.82387 -6.64538,7.93829 2.33226,1.23964 0.11679,24.55917 -2.33175,1.98444 -0.0143,4.96163 h -0.91795 l 0.45795,41.68 -16.75713,15.75979 v 28.0655 l -7.359971,-0.0574 v -45.80052 l -15.238837,-16.21159 -6.869744,6.15823 v -25.8362 L 56.211423,175.45251 38.842665,186.12005 v 31.26346 l -7.22012,-0.22129 -14.064766,-15.05084 -16.2464251,17.28321 v 5.1e-4 L 1.7e-6,220.78995 v 70.91138 3.93815 1.36053 H 300 v -1.31136 -3.98732 -22.15212 l -8.74354,-0.0261 h -2.85474 c -0.14551,-0.5123 -0.61814,-0.89813 -1.20225,-0.98147 -0.32684,-0.0456 -0.66134,0.008 -0.95023,0.15163 -0.31399,-0.52143 -0.89056,-0.88238 -1.55518,-0.97481 -0.13463,-0.0186 -0.27106,-0.0256 -0.40723,-0.0215 -0.0718,-0.53933 -0.41053,-0.9611 -0.84163,-1.04703 -0.15125,-0.0298 -0.30628,-0.0161 -0.45281,0.0394 -0.23675,-0.58995 -0.72392,-1.00735 -1.29598,-1.10953 -0.1138,-0.0202 -0.22915,-0.0277 -0.34423,-0.022 -0.14511,-0.67662 -0.62911,-1.18771 -1.22889,-1.29753 -0.0356,-0.005 -0.0716,-0.0115 -0.10756,-0.0143 -0.47836,-1.42395 -2.17824,-2.50743 -4.29573,-2.73744 -0.0659,-0.005 -0.13208,-0.0103 -0.19822,-0.0133 3.04037,-7.00349 -0.19689,-14.96785 -6.84364,-22.19668 2.70831,0.008 5.00347,-0.0736 9.71888,0.36062 2.895,-0.29827 4.8477,-1.39871 5.46669,-3.63388 4.26543,0.79602 6.92774,-5.17304 14.17695,-2.72618 -3.33152,-3.5207 -7.78636,-2.66276 -12.47015,-0.90872 -1.11092,-12.14744 -7.69223,-11.60431 -7.68573,-7.81228 -2.01135,-2.20394 -4.68987,-3.39731 -7.08542,-3.40593 -4.57334,-0.0146 -8.11578,4.28854 -4.01754,14.12521 l -1.67761,0.48151 c -18.67089,-16.83608 -54.55658,-27.68296 -66.48249,-8.26869 -3.98088,-7.47417 1.93391,-14.03242 8.21286,-20.5575 27.23987,6.46358 29.36749,-39.49788 6.64077,-39.4927 v -0.001 l -5.1e-4,-0.001 c -6.07545,9.1e-4 -13.92723,3.28921 -23.55005,11.74019 -5.57162,0.52149 -8.65779,-3.58353 -12.56132,-6.16746 -0.36544,-10.92104 -21.54723,23.02619 -10.14607,19.52942 l 20.29215,11.30785 c -7.76069,17.84106 -21.92865,35.33998 -5.31508,54.47747 l 0.29967,1.70066 c -0.47369,-0.1234 -0.92099,0.41343 -1.02091,1.22581 l -0.0205,0.32732 c 4.1e-4,0.0654 0.003,0.13034 0.008,0.19517 -0.60294,0.0399 -1.09586,0.31513 -1.22274,0.68231 l -0.0297,0.18031 c 4e-4,0.0759 0.0173,0.15203 0.0497,0.22539 -0.11273,0.0951 -0.21414,0.20317 -0.30223,0.3222 -0.0232,-0.004 -0.0465,-0.008 -0.0697,-0.0118 -0.73109,-0.10633 -1.46032,0.20037 -1.8569,0.78067 -0.39367,0.0787 -0.74608,0.39735 -0.96968,0.87696 -0.22126,-0.1507 -0.47746,-0.25026 -0.74788,-0.29095 -0.91362,-0.13541 -1.78113,0.42058 -1.97318,1.26525 l -0.005,0.0261 c -0.0234,-0.004 -0.0471,-0.005 -0.0707,-0.009 -1.22254,-0.12791 -2.38266,0.39842 -2.64012,1.19764 l -0.0517,0.32066 c 8.5e-4,0.1076 0.019,0.21462 0.0538,0.31965 -0.95926,0.0512 -1.75424,0.51574 -1.95525,1.14231 l -0.008,0.0512 c -0.45044,-0.01 -0.88834,0.06 -1.26115,0.18953 v -29.5966 l -16.75816,-15.75979 0.45846,-41.68103 h -0.91846 l -0.0154,-4.96111 -2.33124,-1.98445 0.11577,-24.55916 2.33226,-1.23964 -6.64384,-7.93829 -3.53502,-20.82336 c -2.19864,-1.62342 -4.26909,-2.51444 -5.23721,-4.73674 1.03306,-0.21353 1.77942,-1.17588 1.78006,-2.29538 -7e-5,-1.10903 -0.73208,-2.06567 -1.75291,-2.29077 v -4.08415 h 2.23647 v -0.96404 h -2.23647 v -2.20348 z m 136.30638,122.3671 c 2.01568,-0.0529 4.60911,1.94995 5.93948,6.91789 -2.56301,1.38585 -4.33822,2.05805 -6.94605,1.54033 -3.22338,-4.92577 -1.58506,-8.39012 1.00657,-8.45822 z"
       id="path1744"
       inkscape:connector-curvature="0" />
  </g>
</svg>
