<?xml version="1.0" encoding="UTF-8" standalone="no"?>
<!-- Created with Inkscape (http://www.inkscape.org/) -->

<svg
   xmlns:dc="http://purl.org/dc/elements/1.1/"
   xmlns:cc="http://creativecommons.org/ns#"
   xmlns:rdf="http://www.w3.org/1999/02/22-rdf-syntax-ns#"
   xmlns:svg="http://www.w3.org/2000/svg"
   xmlns="http://www.w3.org/2000/svg"
   xmlns:sodipodi="http://sodipodi.sourceforge.net/DTD/sodipodi-0.dtd"
   xmlns:inkscape="http://www.inkscape.org/namespaces/inkscape"
   width="1012.6097"
   height="245.3174"
   id="svg3844"
   version="1.1"
   inkscape:version="0.48.0 r9654"
   sodipodi:docname="vaadin-logo.svg">
  <defs
     id="defs3846" />
  <sodipodi:namedview
     id="base"
     pagecolor="#ffffff"
     bordercolor="#666666"
     borderopacity="1.0"
     inkscape:pageopacity="0.0"
     inkscape:pageshadow="2"
     inkscape:zoom="0.82"
     inkscape:cx="326.44425"
     inkscape:cy="-96.0833"
     inkscape:document-units="px"
     inkscape:current-layer="layer1"
     showgrid="false"
     inkscape:window-width="1600"
     inkscape:window-height="822"
     inkscape:window-x="0"
     inkscape:window-y="28"
     inkscape:window-maximized="1"
     fit-margin-top="0"
     fit-margin-left="0"
     fit-margin-right="0"
     fit-margin-bottom="0" />
  <metadata
     id="metadata3849">
    <rdf:RDF>
      <cc:Work
         rdf:about="">
        <dc:format>image/svg+xml</dc:format>
        <dc:type
           rdf:resource="http://purl.org/dc/dcmitype/StillImage" />
        <dc:title></dc:title>
      </cc:Work>
    </rdf:RDF>
  </metadata>
  <g
     inkscape:label="Ebene 1"
     inkscape:groupmode="layer"
     id="layer1"
     transform="translate(-23.555754,-333.07823)">
    <g
       id="g3917"
       transform="matrix(1.0806934,0,0,1.0806934,-59.889224,-224.56504)">
      <path
         style="fill:#24c4f3"
         d="m 805.71429,742.11162 c -5.10555,-2.22216 -7.82441,-9.61338 -5.62967,-15.30425 1.58309,-4.10487 5.14786,-5.84151 13.28021,-6.4697 14.5268,-1.12212 14.84769,-1.93326 14.85525,-37.55048 0.003,-15.00517 0.4414,-29.94218 0.97382,-33.19336 1.64791,-10.06297 6.43142,-15.00773 18.52039,-19.14469 1.7442,-0.59688 1.55234,-0.86012 -1.5,-2.05814 -10.96181,-4.30241 -15.43316,-9.26783 -17.00677,-18.88593 -0.5399,-3.3 -0.98425,-18.27695 -0.98744,-33.28212 -0.008,-35.61722 -0.32845,-36.42836 -14.85525,-37.55048 -8.13235,-0.62819 -11.69712,-2.36483 -13.28021,-6.4697 -1.58279,-4.10411 -0.3974,-10.12537 2.57903,-13.10028 2.59076,-2.58945 2.65006,-2.59742 19.32469,-2.59742 13.51122,0 17.71436,0.34494 21.86858,1.7947 6.18094,2.15706 11.86846,7.41844 14.73982,13.63543 1.98515,4.29821 2.14225,6.6802 2.64259,40.06987 0.65489,43.70233 0.55685,43.3674 13.31403,45.48637 8.20674,1.36315 11.66093,5.07119 11.66093,12.51792 0,5.68433 -4.58923,10.44287 -11.0239,11.4306 -7.1937,1.10425 -9.70867,2.49014 -11.62743,6.40737 -1.5853,3.23645 -1.85293,7.74654 -2.32363,39.15774 -0.50034,33.38967 -0.65744,35.77166 -2.64259,40.06987 -1.16084,2.51342 -3.78603,6.19699 -5.83374,8.18571 -5.96101,5.78925 -10.7242,7.00023 -29.04871,7.38526 -8.8,0.18491 -16.9,-0.0555 -18,-0.53429 z m -675.16931,-53.0435 c -2.29313,-1.04116 -4.7651,-2.94378 -5.49329,-4.22804 -0.72817,-1.28425 -8.07698,-18.26645 -16.33068,-37.73821 l -15.006716,-35.40319 -4.778773,-1.19952 c -8.413702,-2.11193 -12.566212,-8.37365 -11.272807,-16.99869 1.392111,-9.28327 8.111972,-13.03171 22.050538,-12.30012 9.294708,0.48785 12.195288,1.83833 16.026928,7.46199 1.11423,1.63535 6.69564,15.31897 12.40312,30.40805 5.70749,15.08907 10.72005,27.82389 11.13902,28.29958 1.1049,1.25448 2.50104,-1.97664 13.50929,-31.26494 10.95363,-29.14293 12.67215,-32.00985 20.44713,-34.11075 6.54605,-1.76883 19.37047,-0.83147 22.70714,1.65972 4.79396,3.5792 6.49918,6.77738 6.49918,12.18937 0,8.16182 -6.00623,15.1617 -13.00945,15.1617 -1.08704,0 -2.46915,0.5937 -3.07137,1.31933 -0.60222,0.72562 -7.62101,16.80315 -15.5973,35.72784 -7.9763,18.92468 -15.33316,35.54349 -16.34859,36.93067 -4.35937,5.95541 -15.54038,7.8687 -23.87337,4.08521 z m 115.4327,0.94194 c -21.33046,-3.76189 -40.0586,-20.95973 -44.68398,-41.0328 -1.49366,-6.48211 -1.28597,-20.60682 0.39593,-26.92685 5.18636,-19.48862 21.14982,-35.44282 40.02466,-40.00144 7.08048,-1.71007 20.50476,-1.47296 27.27734,0.48179 13.7839,3.97841 27.52653,14.93578 33.94766,27.06738 4.91169,9.27978 6.24329,16.63409 6.26022,34.57457 l 0.0148,15.66764 3.7368,1.83236 c 5.41811,2.65679 8.2632,7.44389 8.2632,13.90352 0,4.23211 -0.51797,5.89096 -2.61912,8.38803 -4.17403,4.96056 -7.26165,6.04081 -17.26612,6.04081 -9.67784,0 -13.32094,-0.92118 -16.89887,-4.27297 -2.06669,-1.93607 -2.59024,-2.0157 -5.5,-0.83652 -11.93566,4.83689 -23.95171,6.70188 -32.9525,5.11448 z m 18.85901,-32.83194 c 8.68359,-4.4739 13.3776,-12.20277 13.3776,-22.02674 0,-15.34526 -14.2223,-26.69143 -29.0105,-23.14379 -6.7932,1.62966 -11.93201,5.6392 -15.47536,12.07459 -9.30075,16.8919 3.17313,36.91069 22.10826,35.48061 2.81731,-0.21278 6.86731,-1.28588 9,-2.38467 z m 102.14099,32.83194 c -12.81117,-2.25941 -22.92196,-7.9455 -32.03511,-18.01587 -9.53094,-10.53202 -13.69543,-21.31913 -13.71641,-35.52902 -0.0229,-15.53565 5.26672,-28.69094 15.87021,-39.46896 10.82815,-11.00637 23.2786,-16.17154 38.89526,-16.136 14.92005,0.034 27.37288,5.31752 38.40844,16.29616 12.2996,12.23616 15.80645,22.38458 15.82953,45.8088 0.008,8.54694 0.34592,15.9899 0.75,16.5399 0.40408,0.55 2.07456,1.68657 3.71218,2.52571 6.82339,3.49641 9.83107,14.25762 5.86258,20.97574 -3.00387,5.08516 -7.9691,6.99855 -18.16112,6.99855 -9.74014,0 -13.38073,-0.91706 -16.96306,-4.27297 -2.06669,-1.93607 -2.59024,-2.0157 -5.5,-0.83652 -11.93566,4.83689 -23.95171,6.70188 -32.9525,5.11448 z m 18.73883,-32.57307 c 12.31975,-5.8461 17.40598,-21.48062 10.88551,-33.46086 -9.18174,-16.86989 -32.65298,-16.76101 -41.88121,0.19429 -11.05632,20.3141 10.20454,43.13262 30.9957,33.26657 z m 103.67941,31.44956 c -11.0764,-1.84256 -22.90197,-8.51259 -31.21118,-17.60419 -15.28419,-16.72334 -18.34284,-40.72347 -7.84211,-61.53419 4.38888,-8.69805 15.68464,-19.82475 24.14539,-23.78401 10.28261,-4.81182 20.28252,-6.46414 30.48409,-5.03701 4.63252,0.64806 10.64659,2.05483 13.3646,3.12617 3.73446,1.47199 5.04749,1.64297 5.3743,0.69982 0.23786,-0.68644 0.56091,-8.08235 0.71788,-16.43536 l 0.2854,-15.18728 2.95237,-3.07866 c 7.00675,-7.30647 21.03,-5.87206 25.03147,2.56042 1.29419,2.7273 1.51656,10.78595 1.51886,55.04394 l 0.003,51.84887 3.71634,2 c 7.60249,4.09139 10.39709,12.83862 6.52671,20.42892 -2.81679,5.52405 -6.12065,7.29908 -14.59853,7.84315 -10.68011,0.68541 -16.10054,-0.35081 -20.07107,-3.83698 l -3.33676,-2.92972 -4.64436,2.05442 c -9.78211,4.3271 -21.25025,5.67913 -32.4161,3.82169 z m 22.41129,-33.43322 c 16.29425,-10.07396 14.57624,-33.87274 -3.03731,-42.07456 -12.23442,-5.697 -27.02201,-0.0293 -32.20715,12.34418 -0.74165,1.76984 -1.34846,6.01526 -1.34846,9.43428 0,10.28524 4.70746,17.43871 14.5,22.03424 6.1758,2.89824 15.82115,2.1394 22.09292,-1.73814 z m 75.39691,32.30174 c -1.81826,-1.2375 -4.24731,-3.51997 -5.39788,-5.07216 -2.03432,-2.74442 -2.09926,-3.98405 -2.35736,-45 -0.24329,-38.66309 -0.11829,-42.46358 1.5,-45.60675 2.6562,-5.15908 6.3568,-7.38403 13.00197,-7.81732 6.96361,-0.45404 11.76105,1.77492 14.76344,6.85933 1.87055,3.16769 2.02089,5.50771 2.32278,36.1537 l 0.32277,32.76681 3.82183,1.94975 c 7.7112,3.93396 10.09883,14.90181 4.849,22.27451 -3.20296,4.49814 -7.34871,5.74213 -19.13638,5.74213 -9.12263,0 -10.78588,-0.27336 -13.69017,-2.25 z m 57.51017,0.84749 c -1.65,-0.72833 -3.9,-2.33239 -5,-3.56457 -1.90511,-2.13405 -2.01363,-3.87214 -2.28737,-36.63537 l -0.28737,-34.39503 -4.00186,-2.0416 c -5.90171,-3.01083 -8.11867,-7.1379 -7.66106,-14.26174 0.32884,-5.11912 0.80704,-6.23553 4.06918,-9.5 l 3.69654,-3.69918 11.23597,-0.31847 c 11.05415,-0.31332 11.30884,-0.26994 15.73934,2.68087 l 4.50336,2.99935 7.99664,-3.95242 c 25.01848,-12.36565 55.69812,-3.28204 67.43354,19.96568 4.80431,9.5173 6.0308,16.06283 6.73359,35.93579 l 0.64753,18.3108 3.73559,1.90575 c 4.00128,2.0413 7.94638,8.53332 7.94638,13.07648 0,4.19379 -4.20495,11.09032 -8,13.1208 -2.94129,1.57369 -5.28476,1.82495 -14.68045,1.57399 -12.09426,-0.32303 -14.24839,-1.14764 -18.75776,-7.1806 -1.93984,-2.59526 -2.09136,-4.45471 -2.56179,-31.43822 -0.55365,-31.7569 -0.59841,-31.98598 -7.42158,-37.9768 -10.12489,-8.88977 -27.9631,-6.21469 -35.06298,5.25816 l -3.01544,4.87271 -0.5,29.26192 c -0.47355,27.71388 -0.61076,29.41118 -2.59366,32.08307 -1.15152,1.55163 -3.62652,3.35824 -5.5,4.0147 -4.53964,1.59066 -12.69328,1.54291 -16.40634,-0.0961 z m 262.94866,-5.14895 c -5.0154,-2.47524 -6.44917,-6.05754 -6.44492,-16.10283 0.004,-9.91631 1.685,-14.102 6.70204,-16.68998 1.53682,-0.79275 16.74422,-5.55142 33.79422,-10.57482 37.17482,-10.95273 34.08113,-9.89978 32.8129,-11.16801 -0.56184,-0.56184 -15.5677,-5.31453 -33.34635,-10.56154 -17.77865,-5.247 -33.39221,-10.23938 -34.6968,-11.09418 -3.9995,-2.62057 -5.26975,-6.41878 -5.26975,-15.75718 0,-11.91222 1.88115,-15.17155 10.1202,-17.53447 6.47108,-1.85588 14.09339,3.3256 15.43831,10.49464 0.35094,1.87071 1.38135,3.69782 2.28979,4.06025 0.90843,0.36242 18.3017,6.29783 38.6517,13.18979 20.35,6.89196 38.23331,13.16097 39.74061,13.93112 3.8304,1.95714 5.7238,5.26259 6.43,11.22533 0.724,6.1127 -1.6868,13.50933 -5.0077,15.36439 -1.1896,0.66453 -19.87653,7.2969 -41.52651,14.73859 l -39.36361,13.53036 -1.63639,4.97686 c -2.74653,8.35314 -10.88255,11.82375 -18.68774,7.97168 z M 589.15589,577.10813 c -5.09674,-1.64873 -7.14626,-3.34069 -9.00465,-7.43374 -2.333,-5.13835 -2.42704,-9.404 -0.32321,-14.66198 3.17753,-7.94142 13.1334,-11.24453 21.57498,-7.15803 5.81166,2.81338 8.14461,6.93108 8.14461,14.37541 0,6.21229 -1.56242,9.37805 -6.39512,12.95774 -2.82852,2.09515 -10.29135,3.11919 -13.99661,1.9206 z"
         id="path3921"
         inkscape:connector-curvature="0" />
      <path
         style="fill:#272324"
         d="m 134.48934,690.06321 c -4.82583,-1.19008 -8.03083,-3.65907 -10.15476,-7.82276 -1.39098,-2.72683 -25.350779,-58.93274 -29.791899,-69.88708 -0.256809,-0.63344 -2.123254,-1.46223 -4.147656,-1.84175 -8.267226,-1.5499 -12.609302,-6.39746 -12.609302,-14.07723 0,-5.91318 1.975157,-9.57234 6.732905,-12.47332 4.725457,-2.8813 21.750052,-2.82988 26.523052,0.0801 4.03722,2.46139 5.56095,5.7308 18.27492,39.21184 5.16873,13.61138 9.92236,24.74888 10.56363,24.75 0.64126,10e-4 3.20776,-5.28545 5.70333,-11.74795 2.49557,-6.4625 7.42669,-19.27993 10.95804,-28.48318 7.20562,-18.77897 8.44045,-21.04469 12.97703,-23.81082 2.59691,-1.58344 5.04719,-1.94922 13.07763,-1.95226 11.35896,-0.004 15.25211,1.59804 18.01157,7.41315 4.42803,9.33139 -0.68013,19.10109 -10.99934,21.03698 -1.85344,0.34771 -3.82719,1.48667 -4.38611,2.53102 -0.55892,1.04436 -7.13773,16.43749 -14.61957,34.20697 -16.12966,38.30815 -16.39201,38.8441 -20.04335,40.94587 -3.4902,2.00903 -11.72184,2.99273 -16.07012,1.92041 z m 105.22495,-1.92473 c -8.88661,-2.55358 -16.12174,-6.88431 -23.03504,-13.78807 -10.16117,-10.14714 -15.05961,-20.5965 -16.14272,-34.43567 -2.44875,-31.28829 23.20439,-58.97746 54.56425,-58.89489 14.03025,0.0369 27.03096,5.68026 37.72246,16.37447 12.37071,12.37384 15.32466,20.65132 16.24601,45.52413 l 0.64504,17.41338 3.99161,2.23158 c 6.80253,3.80309 9.33972,12.54786 5.64529,19.45726 -3.16692,5.92284 -7.09061,7.4844 -18.80588,7.4844 -9.83318,0 -10.31925,-0.10594 -14.71999,-3.20824 l -4.55102,-3.20824 -5.28,2.32797 c -10.98753,4.84443 -25.18633,5.9097 -36.28001,2.72192 z m 25.00728,-30.48472 c 16.31226,-7.59624 19.23134,-29.15695 5.53479,-40.88069 -9.86706,-8.44583 -23.16371,-7.80238 -32.48098,1.57181 -19.51875,19.638 1.94614,50.95081 26.94619,39.30888 z m 97.10078,30.82929 c -13.11944,-3.60221 -26.20371,-13.64976 -33.33972,-25.60193 -3.77339,-6.32008 -7.27577,-19.01681 -7.25098,-26.28601 0.0482,-14.11624 5.68949,-28.06164 15.60288,-38.57035 16.51537,-17.50717 41.81551,-21.90529 63.38253,-11.01829 7.51284,3.79247 18.76123,14.31167 22.34526,20.89671 5.91225,10.86275 6.86113,15.26533 7.39892,34.32925 l 0.50008,17.72737 4.1959,2.45895 c 9.80671,5.74712 9.97462,20.02755 0.29765,25.31551 -2.4921,1.3618 -5.56059,1.77081 -13.28519,1.77081 -10.33378,0 -10.03368,0.0887 -17.11882,-5.05759 -1.99164,-1.44662 -2.48541,-1.40713 -6.21852,0.49736 -9.32719,4.75838 -26.13403,6.38715 -36.50999,3.53821 z m 21.5335,-29.63854 c 11.85526,-3.55192 19.31133,-17.97584 15.80032,-30.56602 -1.71085,-6.13496 -9.62667,-14.30487 -15.5579,-16.0573 -12.45001,-3.67848 -24.63957,1.69458 -30.01028,13.22827 -9.08006,19.4996 8.8836,39.65213 29.76786,33.39505 z m 206.59896,29.73125 c -4.63344,-1.6534 -6.4589,-3.12541 -8.30646,-6.6982 -1.18021,-2.28228 -1.43406,-10.38747 -1.43406,-45.78803 l 0,-43.01487 3.09135,-3.52085 c 7.27063,-8.28079 21.4989,-6.56032 25.52983,3.08704 1.07432,2.57121 1.37882,10.36948 1.37882,35.31178 l 0,32.01179 4.03923,2.06066 c 5.93745,3.02907 8.1568,7.14511 7.69863,14.27805 -0.64171,9.99018 -6.38417,13.67671 -21.23786,13.63419 -3.85,-0.011 -8.69176,-0.62372 -10.75948,-1.36156 z m 59.75948,0.6435 c -4.76041,-0.46815 -8.25922,-2.20544 -10.20125,-5.06532 -1.62715,-2.39617 -1.83008,-5.89566 -2.12718,-36.68297 l -0.32844,-34.0341 -3.59054,-1.9659 c -5.55358,-3.0407 -7.76101,-6.72464 -7.70323,-12.85575 0.0997,-10.58206 7.0588,-15.20911 21.67657,-14.41267 7.75362,0.42245 10.82797,1.38777 15.93337,5.00291 1.345,0.9524 2.78104,0.57707 7.58145,-1.98153 8.01709,-4.27306 16.08576,-6.21886 25.78785,-6.21886 22.44266,0 39.94132,12.94634 47.17267,34.90057 1.05472,3.20211 1.66973,10.61157 2.02439,24.38907 l 0.50942,19.78964 3.92169,2.0007 c 7.68939,3.92283 10.33301,13.92563 5.5559,21.02214 -3.56916,5.30206 -6.75037,6.38627 -18.71267,6.37758 -11.92919,-0.009 -15.74001,-1.36529 -19.04048,-6.77825 -1.78905,-2.93413 -1.95284,-5.16372 -1.96157,-26.70145 -0.011,-27.1109 -0.82322,-33.8636 -4.74454,-39.44536 -5.94376,-8.46057 -20.31616,-11.7319 -29.84809,-6.79377 -4.44986,2.30531 -9.86291,7.90879 -11.68899,12.10022 -0.73424,1.6853 -1.34242,13.20137 -1.68301,31.86839 l -0.53332,29.22947 -2.55163,2.54943 c -2.64344,2.64116 -9.51433,4.28937 -15.44837,3.70581 z m -164.37625,-1.73193 c -26.91246,-7.53818 -44.34744,-33.59201 -40.30687,-60.23226 3.29101,-21.69824 21.13866,-40.98448 41.92054,-45.29948 7.98156,-1.65724 22.21023,-0.67021 30.12364,2.08964 5.28512,1.84322 6.50884,1.98516 7.23469,0.83915 0.48049,-0.75862 0.88052,-7.81416 0.88894,-15.67897 0.017,-15.89373 0.88747,-19.04863 5.98258,-21.68341 3.77029,-1.9497 12.29517,-1.9497 16.06546,0 6.04246,3.12467 5.96727,2.38209 5.96727,58.93341 0,50.21633 0.0517,51.60139 2,53.54966 1.1,1.1 2.38864,2 2.86364,2 1.88389,0 6.18927,5.48279 7.17241,9.13387 1.39737,5.18943 -0.14623,10.6387 -4.08295,14.41376 -2.98857,2.86585 -3.40664,2.96056 -14.26595,3.23198 -11.39867,0.2849 -11.99785,0.14747 -18.04667,-4.13924 -2.59067,-1.83597 -2.71002,-1.82453 -9.38227,0.89919 -5.65601,2.30889 -8.55221,2.81507 -17.75821,3.10371 -7.68436,0.24092 -12.62052,-0.10903 -16.37625,-1.16101 z m 20.75434,-29.0387 c 21.6243,-6.42172 23.58835,-36.54379 2.96135,-45.41729 -13.98353,-6.01555 -28.78959,0.52258 -33.68083,14.87295 -4.32749,12.69637 3.89536,26.99962 17.65095,30.703 6.20386,1.67025 6.94004,1.66131 13.06853,-0.15866 z m 79.42046,-83.40308 c -4.30755,-2.62646 -6.29855,-6.84422 -6.29855,-13.34294 0,-6.23601 2.78971,-11.33926 7.41422,-13.56292 4.11899,-1.98059 11.89567,-1.71768 15.79583,0.53401 8.82225,5.09339 9.04695,21.15449 0.36999,26.44569 -4.21791,2.57208 -13.00362,2.53454 -17.28149,-0.0738 z"
         id="path3919"
         inkscape:connector-curvature="0" />
    </g>
  </g>
</svg>
