<?xml version="1.0" encoding="utf-8"?>
<!-- Generator: Adobe Illustrator 16.0.0, SVG Export Plug-In . SVG Version: 6.00 Build 0)  -->
<!DOCTYPE svg PUBLIC "-//W3C//DTD SVG 1.1//EN" "http://www.w3.org/Graphics/SVG/1.1/DTD/svg11.dtd">
<svg version="1.1" id="Layer_1" xmlns="http://www.w3.org/2000/svg" xmlns:xlink="http://www.w3.org/1999/xlink" x="0px" y="0px"
	 width="59.619px" height="59.499px" viewBox="0 0 59.619 59.499" enable-background="new 0 0 59.619 59.499" xml:space="preserve">
<path fill-rule="evenodd" clip-rule="evenodd" d="M0,30.651c0.04-0.052,0.112-0.103,0.115-0.155
	c0.012-0.257,0.005-0.515,0.005-0.729c0.615-0.364,1.193-0.707,1.784-1.056c0-0.139,0-0.273,0-0.416
	c-0.018-0.01-0.05-0.044-0.083-0.045c-0.44-0.003-0.881,0.005-1.321-0.007c-0.125-0.003-0.247-0.064-0.368-0.099
	c0-0.267,0-0.481,0-0.705c1.429-0.173,2.841,0.172,4.315,0.077c0,0.509,0.031,1.005-0.009,1.496
	c-0.037,0.45-0.247,0.846-0.621,1.117c-0.129,0.094-0.31,0.13-0.472,0.157c-0.156,0.025-0.32,0.006-0.48,0.006
	c-0.379-0.173-0.662-0.446-0.877-0.792c-0.568,0.346-1.162,0.708-1.807,1.099c0.714,0.111,1.355,0.14,1.993,0.198
	c0.566,0.051,1.129,0.076,1.694,0.103c0.159,0.008,0.313,0.099,0.458,0.148c0,0.111,0,0.19,0,0.303
	c-0.829,0.512-1.79,0.788-2.63,1.29c0.888,0.15,1.788,0.303,2.599,0.439c0.146,0.147,0.257,0.257,0.396,0.396
	c-0.078,0.049-0.174,0.138-0.288,0.177c-1.157,0.398-2.318,0.784-3.474,1.188c-0.108,0.037-0.301-0.094-0.328,0.138
	c-0.04-0.031-0.113-0.062-0.115-0.095c-0.01-0.236-0.005-0.473-0.005-0.688c0.735-0.245,1.445-0.48,2.216-0.737
	c-0.879-0.127-1.683-0.292-2.456-0.556c0-0.107,0-0.187,0-0.267c0.674-0.37,1.396-0.651,2.033-1.145
	c-0.353,0-0.707,0.021-1.058-0.005c-0.342-0.025-0.681-0.098-1.024-0.132C0.015,31.31,0.253,31.033,0,31.012
	C0,30.892,0,30.771,0,30.651z M3.723,28.268c-0.432,0-0.808,0-1.196,0c0.001,0.424-0.084,0.843,0.289,1.17c0.202,0,0.417,0,0.619,0
	C3.807,29.111,3.722,28.692,3.723,28.268z"/>
<path fill-rule="evenodd" clip-rule="evenodd" d="M59.619,32.094c-0.04,0.052-0.113,0.103-0.114,0.155
	c-0.011,0.377-0.006,0.754-0.006,1.167c-0.118,0-0.228,0.031-0.306-0.006c-0.374-0.175-0.769-0.086-1.153-0.118
	c-0.265-0.021-0.525-0.093-0.791-0.112c-0.278-0.02-0.578,0.057-0.835-0.021c-0.287-0.086-0.558-0.118-0.91-0.082
	c0.698,0.614,1.359,1.195,1.979,1.74c0.568,0.153,1.121,0.177,1.622,0.386c-0.044,0.214-0.081,0.39-0.124,0.598
	c-0.383,0.096-0.762-0.091-1.146-0.157c-0.31-0.054-0.583-0.07-0.896,0.018c-0.699,0.194-1.36,0.505-2.074,0.649
	c-0.045,0.01-0.081,0.068-0.191,0.165c0.062-0.329,0.11-0.58,0.165-0.862c0.61-0.185,1.251-0.377,1.896-0.571
	c-0.483-0.433-0.966-0.863-1.438-1.284c0.054-0.486,0.104-0.943,0.157-1.435c0.374,0.075,0.773-0.117,1.136,0.131
	c0.765-0.094,1.515,0.162,2.265,0.118c0.062-0.605,0.12-1.183,0.184-1.801c0.19,0,0.386,0,0.581,0
	C59.619,31.212,59.619,31.652,59.619,32.094z"/>
<path fill-rule="evenodd" clip-rule="evenodd" d="M28.728,59.499c-0.052-0.04-0.105-0.116-0.155-0.114
	c-0.295,0.011-0.505-0.137-0.709-0.325c-0.308-0.282-0.471-0.671-0.531-1.038c-0.151-0.937-0.089-1.854,0.687-2.565
	c0.192-0.176,0.394-0.281,0.664-0.291c0.23-0.009,0.444-0.267,0.695-0.018c0.052,0.052,0.19,0.034,0.286,0.021
	c0.213-0.028,0.37,0.104,0.515,0.205c0.193,0.137,0.354,0.324,0.512,0.505c0.085,0.096,0.176,0.217,0.193,0.337
	c0.06,0.4,0.131,0.808,0.114,1.209c-0.014,0.33-0.109,0.67-0.235,0.979c-0.21,0.515-0.601,0.853-1.158,0.979
	c-0.058,0.013-0.104,0.076-0.156,0.116C29.209,59.499,28.968,59.499,28.728,59.499z M29.387,58.775
	c0.579-0.297,0.805-0.78,0.785-1.405c-0.009-0.277-0.002-0.555-0.002-0.783c-0.14-0.256-0.257-0.469-0.352-0.642
	c-0.502-0.172-0.96-0.318-1.384,0.061c-0.101,0.198-0.203,0.396-0.307,0.6c0,0.052,0.007,0.112-0.001,0.171
	c-0.022,0.167,0.007,0.325-0.089,0.504c-0.076,0.142,0.08,0.392,0.083,0.594c0.004,0.249,0.11,0.437,0.259,0.613
	c0.089,0.106,0.188,0.206,0.263,0.288C28.916,58.775,29.155,58.775,29.387,58.775z"/>
<path fill-rule="evenodd" clip-rule="evenodd" d="M59.619,27.767c-0.198,0.021-0.088,0.179-0.127,0.294
	c-0.025,0.028-0.062,0.073-0.102,0.115c-0.337,0.345-0.654,0.677-1.198,0.733c-0.639,0.066-1.254,0.141-1.859-0.155
	c-0.308-0.151-0.534-0.362-0.683-0.668c-0.064-0.134-0.15-0.258-0.238-0.404c0-0.216-0.011-0.457,0.003-0.695
	c0.019-0.308,0.112-0.578,0.329-0.824c0.441-0.502,0.981-0.718,1.639-0.681c0.14,0.008,0.28,0.008,0.419,0
	c0.814-0.05,1.325,0.385,1.698,1.048c0.032,0.056,0.079,0.104,0.119,0.155C59.619,27.045,59.619,27.406,59.619,27.767z
	 M58.429,26.275c-0.364-0.023-0.746-0.05-1.129-0.071c-0.312-0.017-0.578,0.145-0.854,0.248c-0.256,0.096-0.289,0.379-0.391,0.604
	c-0.076,0.169-0.058,0.286,0.071,0.417c0.04,0.04,0.007,0.153,0.007,0.23c0.142,0.143,0.281,0.284,0.396,0.399
	c0.212,0.054,0.391,0.12,0.574,0.139c0.217,0.023,0.438,0.005,0.657,0.005c0.31,0,0.587-0.136,0.843-0.27
	c0.168-0.088,0.285-0.306,0.381-0.489c0.094-0.179,0.04-0.367-0.081-0.538c-0.037-0.051-0.006-0.15-0.006-0.206
	C58.751,26.597,58.624,26.47,58.429,26.275z"/>
<path fill-rule="evenodd" clip-rule="evenodd" d="M32.214,0c0.052,0.04,0.099,0.107,0.155,0.116
	c0.334,0.051,0.402,0.079,0.704,0.348c-0.09,0.157-0.182,0.318-0.289,0.506c-0.328-0.291-0.71-0.261-1.095-0.243
	c-0.281,0.318-0.265,0.594,0.048,0.836c0.367,0.284,0.763,0.535,1.069,0.892c0.067,0.079,0.287,0.615,0.244,0.672
	c-0.205,0.267-0.115,0.663-0.529,0.871c-0.378,0.19-0.733,0.228-1.113,0.201c-0.355-0.026-0.695-0.143-0.981-0.388
	c0.127-0.187,0.251-0.369,0.374-0.551c0.22,0.113,0.43,0.221,0.673,0.345c0.157,0,0.357,0,0.563,0
	c0.051-0.054,0.105-0.112,0.17-0.181c0-0.184,0-0.381,0-0.634c-0.225-0.179-0.456-0.428-0.739-0.577
	c-0.527-0.278-0.758-0.682-0.697-1.266c0.006-0.058,0.001-0.117,0.001-0.09c0.185-0.483,0.477-0.72,0.919-0.76
	C31.707,0.097,31.719,0.034,31.733,0C31.894,0,32.054,0,32.214,0z"/>
<path fill-rule="evenodd" clip-rule="evenodd" d="M59.619,30.17c-1.335,0.231-2.682,0.067-4.055,0.133c0-0.237,0-0.465,0-0.733
	c0.722,0,1.457-0.035,2.188,0.01c0.634,0.039,1.241-0.153,1.867-0.13C59.619,29.689,59.619,29.93,59.619,30.17z"/>
<path fill-rule="evenodd" clip-rule="evenodd" d="M29.81,0c0,1.341,0,2.682,0,4.055c-0.225,0-0.452,0-0.721,0
	c0-1.344,0-2.699,0-4.055C29.329,0,29.569,0,29.81,0z"/>
<path fill-rule="evenodd" clip-rule="evenodd" d="M23.877,47.819c-3.036,0-6.055,0-9.111,0c0.138-0.275,0.245-0.529,0.386-0.762
	c0.226-0.37,0.523-0.703,0.705-1.092c0.341-0.729,0.786-1.395,1.167-2.099c0.285-0.527,0.624-1.023,0.927-1.54
	c0.198-0.337,0.374-0.687,0.561-1.029c0.508-0.934,1.073-1.834,1.583-2.768c0.411-0.752,0.859-1.49,1.311-2.221
	c0.354-0.574,0.654-1.18,1.042-1.736c0.241-0.345,0.399-0.747,0.6-1.135c-3.963,0-7.943,0-11.918,0
	c-0.102-0.517-0.134-5.833-0.051-7.815c4.1,0,8.2,0,12.362,0c-0.393-0.671-0.763-1.301-1.13-1.932
	c-0.188-0.322-0.367-0.649-0.554-0.972c-0.366-0.63-0.738-1.256-1.102-1.887c-0.205-0.355-0.386-0.723-0.599-1.073
	c-0.427-0.704-0.828-1.424-1.265-2.122c-0.375-0.599-0.677-1.242-1.03-1.855c-0.355-0.616-0.732-1.22-1.103-1.827
	c-0.175-0.287-0.31-0.593-0.495-0.88c-0.424-0.655-0.773-1.357-1.146-2.03c0.016-0.036,0.021-0.055,0.033-0.069
	c0.012-0.015,0.029-0.036,0.044-0.036c2.964-0.001,5.927-0.001,8.897-0.001c0.177,0.268,0.392,0.519,0.523,0.807
	c0.451,0.986,1.09,1.865,1.583,2.828c0.254,0.495,0.566,0.965,0.83,1.46c0.264,0.494,0.562,0.973,0.859,1.443
	c0.372,0.587,0.661,1.217,1.035,1.801c0.42,0.655,0.788,1.343,1.217,2.082c0.146-0.233,0.271-0.41,0.371-0.599
	c0.498-0.939,1.063-1.839,1.582-2.767c0.428-0.765,0.869-1.525,1.316-2.28c0.563-0.948,1.101-1.912,1.669-2.856
	c0.328-0.545,0.641-1.099,0.964-1.657c3.011,0,6.004,0,9.008,0c-0.545,1.04-1.108,2.044-1.693,3.032
	c-0.439,0.74-0.856,1.493-1.31,2.224c-0.533,0.859-0.952,1.784-1.551,2.606c-0.205,0.281-0.32,0.627-0.489,0.937
	c-0.395,0.719-0.789,1.442-1.219,2.136c-0.522,0.845-0.946,1.747-1.524,2.559c-0.189,0.266-0.303,0.587-0.453,0.888
	c3.987,0,8.007,0,12.022,0c0.1,0.517,0.131,5.925,0.049,7.816c-3.899,0-7.799,0-11.771,0c0.284,0.521,0.514,1.016,0.813,1.465
	c0.24,0.36,0.411,0.755,0.64,1.119c0.448,0.713,0.837,1.461,1.298,2.168c0.252,0.387,0.42,0.828,0.647,1.232
	c0.284,0.505,0.566,1.014,0.897,1.489c0.248,0.356,0.423,0.749,0.641,1.119c0.416,0.706,0.768,1.453,1.217,2.137
	c0.546,0.832,0.958,1.74,1.526,2.558c0.176,0.254,0.271,0.565,0.419,0.887c-2.971,0-5.907,0-8.908,0
	c-0.062-0.088-0.169-0.221-0.258-0.364c-0.44-0.718-0.813-1.474-1.29-2.172c-0.261-0.381-0.417-0.83-0.65-1.23
	c-0.367-0.631-0.794-1.23-1.133-1.876c-0.278-0.53-0.597-1.034-0.894-1.552c-0.594-1.037-1.148-2.097-1.804-3.099
	c-0.027-0.043-0.041-0.095-0.093-0.218c-0.071,0.123-0.106,0.192-0.148,0.257c-0.458,0.707-0.863,1.447-1.3,2.168
	c-0.463,0.765-0.897,1.55-1.333,2.332c-0.354,0.636-0.741,1.252-1.096,1.887c-0.374,0.668-0.738,1.341-1.144,1.992
	C24.624,46.389,24.259,47.125,23.877,47.819z"/>
<path fill-rule="evenodd" clip-rule="evenodd" d="M52.834,16.101c-0.062,0.062-0.104,0.104-0.173,0.172
	c0.164,0.307,0.334,0.623,0.497,0.928c0.595-0.155,1.035-0.52,1.56-0.715c0.516-0.192,0.998-0.472,1.535-0.732
	c0.091,0.204,0.188,0.422,0.281,0.632c-1.046,0.524-2.04,1.023-3.045,1.527c0.205,0.407,0.393,0.78,0.581,1.153
	c-0.17,0.084-0.352,0.174-0.566,0.281c-0.51-0.986-1.037-1.986-1.507-3.029c0.124-0.062,0.203-0.101,0.321-0.16
	c-0.917-0.152-1.194-0.866-1.47-1.574c-0.074-0.191,0.062-0.367,0.113-0.549c0.221-0.809,0.788-1.261,1.538-1.533
	c0.122-0.044,0.246-0.083,0.37-0.121c0.592-0.18,1.067-0.056,1.505,0.335c0.295,0.264,0.49,0.586,0.677,0.976
	c0,0.107-0.02,0.27,0.004,0.426c0.054,0.355-0.129,0.645-0.311,0.89c-0.263,0.356-0.609,0.648-1.014,0.861
	C53.441,16.022,53.159,16.177,52.834,16.101z M54.331,14.213c0-0.17,0-0.369,0-0.568c-0.124-0.511-0.62-0.478-0.932-0.645
	c-0.812,0.147-1.425,0.546-1.83,1.238c-0.064,0.575,0.199,0.945,0.698,1.198c0.176,0.089,0.319,0.074,0.489,0.023
	C53.439,15.256,53.986,14.881,54.331,14.213z"/>
<path fill-rule="evenodd" clip-rule="evenodd" d="M14.906,51.125c-0.501-0.389-0.97-0.753-1.447-1.123
	c-0.33,0.128-0.377,0.502-0.667,0.748c0.362,0.277,0.69,0.528,1.027,0.787c-0.041,0.247-0.041,0.247-0.371,0.519
	c-0.333-0.243-0.67-0.488-1.029-0.749c-0.25,0.305-0.499,0.606-0.779,0.948c0.492,0.393,0.983,0.786,1.511,1.209
	c-0.156,0.174-0.298,0.331-0.432,0.48c-0.36-0.257-0.721-0.495-1.06-0.761c-0.336-0.264-0.65-0.557-1.009-0.866
	c0.739-0.964,1.469-1.915,2.199-2.866c-0.435-0.187-0.657-0.614-1.035-0.89c-0.058,0-0.138,0-0.217,0
	c-0.658,0.905-1.541,1.595-2.308,2.444c-0.102-0.081-0.185-0.157-0.277-0.22c-0.075-0.05-0.162-0.083-0.235-0.12
	c0-0.091,0-0.17,0-0.245c0.796-0.797,1.589-1.589,2.363-2.363c-0.319-0.319-0.639-0.639-0.903-0.902
	c0.189-0.188,0.34-0.339,0.513-0.511c1.388,1.359,2.834,2.72,4.477,3.853C15.37,50.811,15.111,50.926,14.906,51.125z"/>
<path fill-rule="evenodd" clip-rule="evenodd" d="M21.163,58.124c-0.161-0.16-0.373-0.373-0.52-0.52
	c-0.264-0.49-0.21-0.943-0.206-1.389c0.004-0.576,0.231-1.066,0.62-1.484c0.109-0.117,0.224-0.229,0.339-0.34
	c0.307-0.292,0.825-0.364,1.279-0.315c0.474,0.051,0.816,0.271,1.152,0.572c0.246,0.22,0.323,0.516,0.407,0.795
	c0.081,0.269,0.106,0.562-0.041,0.849c-0.092,0.179-0.092,0.4-0.157,0.596c-0.232,0.704-0.634,1.206-1.394,1.456
	c-0.426,0.14-0.741-0.028-1.104-0.086C21.432,58.24,21.33,58.185,21.163,58.124z M22.298,57.706c0.573-0.192,0.773-0.58,0.971-0.978
	c0.208-0.42,0.22-0.876,0.151-1.308c-0.043-0.271-0.187-0.555-0.577-0.631c-0.225-0.044-0.441-0.102-0.63-0.094
	c-0.621,0.242-0.802,0.784-0.923,1.306c-0.207,0.895-0.171,0.902,0.262,1.559C21.825,57.614,22.121,57.672,22.298,57.706z"/>
<path fill-rule="evenodd" clip-rule="evenodd" d="M1.149,23.514c0.672-0.283,1.252-0.231,1.809-0.179
	c0.734,0.068,1.391,0.474,1.615,1.001c0.165,0.389,0.313,0.797,0.228,1.04c-0.135,0.384-0.173,0.811-0.547,1.098
	c-0.277,0.212-0.509,0.416-0.892,0.477c-0.344,0.054-0.651,0.156-0.997,0.009c-0.153-0.065-0.345-0.036-0.428-0.042
	c-0.571-0.215-1.027-0.469-1.328-0.906c-0.132-0.191-0.191-0.442-0.244-0.675c-0.081-0.351,0.042-0.707,0.162-1.009
	C0.658,23.998,0.967,23.741,1.149,23.514z M4.087,24.772c-0.256-0.2-0.488-0.497-0.78-0.579c-0.337-0.095-0.7-0.229-1.076-0.154
	c-0.459,0.091-0.942,0.135-1.149,0.733c0,0.129,0,0.328,0,0.48c0.22,0.504,0.571,0.798,1.076,0.882
	c0.228,0.038,0.459,0.059,0.69,0.066c0.547,0.018,1.025-0.101,1.239-0.695C4.087,25.292,4.087,25.073,4.087,24.772z"/>
<path fill-rule="evenodd" clip-rule="evenodd" d="M3.199,16.223c1.303,0.58,2.586,1.151,3.869,1.722
	c-0.042,0.098-0.084,0.194-0.145,0.335c-1,0.25-2.032,0.508-3.129,0.783c0.797,0.357,1.549,0.695,2.316,1.039
	c-0.087,0.234-0.173,0.467-0.25,0.672c-1.326-0.582-2.629-1.153-3.943-1.729c0.018-0.294,0.297-0.375,0.479-0.398
	c0.77-0.097,1.479-0.451,2.258-0.502c0.162-0.011,0.318-0.098,0.487-0.154c-0.127-0.3-0.444-0.262-0.681-0.372
	c-0.269-0.125-0.511-0.346-0.79-0.402c-0.29-0.058-0.503-0.245-0.756-0.3C3.008,16.691,3.098,16.472,3.199,16.223z"/>
<path fill-rule="evenodd" clip-rule="evenodd" d="M8.292,48.562c-0.273,0-0.573-0.008-0.872,0.002
	c-0.268,0.008-0.481-0.091-0.665-0.278c-0.323-0.331-0.696-0.622-0.878-1.329c-0.05-0.718,0.399-1.367,1.159-1.915
	c0.383-0.276,0.793-0.432,1.214-0.548c0.338-0.093,0.718,0.067,1.028,0.23c0.654,0.346,1.08,1.222,0.929,1.918
	c-0.079,0.363-0.275,0.691-0.541,0.975C9.294,48.014,8.844,48.293,8.292,48.562z M7.264,47.845c1.054,0.048,1.757-0.467,2.227-1.394
	c0.069-0.557-0.194-0.922-0.69-1.187c-0.163-0.087-0.313-0.087-0.449-0.057c-0.603,0.134-1.398,0.836-1.672,1.417
	c-0.09,0.192-0.081,0.335,0.016,0.537C6.83,47.445,7.083,47.598,7.264,47.845z"/>
<path fill-rule="evenodd" clip-rule="evenodd" d="M20.372,53.332c0.263,0.133,0.462,0.233,0.647,0.327
	c-0.572,1.306-1.145,2.61-1.72,3.923c-0.39-0.026-0.358-0.398-0.408-0.6c-0.17-0.692-0.33-1.387-0.499-2.08
	c-0.053-0.219-0.095-0.44-0.157-0.731c-0.364,0.816-0.704,1.578-1.057,2.37c-0.226-0.075-0.399-0.133-0.561-0.188
	c-0.114-0.265,0.031-0.467,0.124-0.667c0.257-0.556,0.599-1.08,0.785-1.656c0.184-0.57,0.54-1.053,0.677-1.699
	c0.182,0.155,0.312,0.266,0.369,0.314c0.258,1.012,0.495,1.938,0.735,2.876c0.009,0.001,0.047,0.006,0.12,0.016
	C19.734,54.818,20.046,54.09,20.372,53.332z"/>
<path fill-rule="evenodd" clip-rule="evenodd" d="M34.234,55.215c-0.086,0.223-0.171,0.444-0.262,0.679
	c-0.362-0.333-0.802-0.223-1.161-0.239c-0.529,0.21-0.789,0.588-0.898,1.081c-0.024,0.11-0.072,0.229-0.054,0.334
	c0.046,0.257,0.111,0.512,0.191,0.761c0.194,0.608,0.646,0.842,1.256,0.828c0.099-0.002,0.198,0,0.262,0
	c0.158-0.095,0.288-0.172,0.424-0.253c0.062-0.279,0.041-0.537-0.163-0.822c-0.132,0-0.322,0-0.521,0c0-0.217,0-0.392,0-0.562
	c0.406-0.187,0.83-0.188,1.249-0.154c0.251,0.53,0.091,1.135,0.318,1.668c-0.294,0.476-0.747,0.639-1.248,0.727
	c-0.166,0.029-0.33,0.121-0.49,0.111c-0.894-0.058-1.45-0.36-1.858-1.241c-0.244-0.528-0.138-1.116-0.146-1.681
	c0.312-0.605,0.6-1.2,1.358-1.413C33.124,54.86,33.685,54.936,34.234,55.215z"/>
<path fill-rule="evenodd" clip-rule="evenodd" d="M58.036,39.5c-1.034,0.279-2.062,0.556-3.154,0.851
	c0.804,0.327,1.567,0.639,2.346,0.955c-0.078,0.201-0.159,0.407-0.254,0.651c-1.257-0.505-2.482-0.998-3.752-1.509
	c0.043-0.135,0.087-0.271,0.113-0.353c1.021-0.29,1.971-0.561,2.949-0.839c-0.742-0.361-1.531-0.535-2.238-0.97
	c0.075-0.204,0.139-0.378,0.218-0.591c0.247,0.092,0.475,0.172,0.699,0.26c0.948,0.368,1.894,0.745,2.846,1.104
	C58.046,39.15,58.099,39.29,58.036,39.5z"/>
<path fill-rule="evenodd" clip-rule="evenodd" d="M42.008,2.529c0.729,0.366,1.54,0.614,1.982,1.41c0,0.176,0,0.376,0,0.54
	c-0.216,0.361-0.312,0.789-0.759,0.933c-0.175,0-0.35,0-0.566,0c0.063,0.736,0.126,1.449,0.191,2.205
	c-0.262-0.154-0.502-0.295-0.786-0.462c0-0.136-0.019-0.313,0.003-0.486c0.063-0.494-0.13-0.961-0.132-1.451
	c-0.132-0.063-0.265-0.127-0.403-0.193c-0.249,0.504-0.487,0.985-0.738,1.491c-0.217-0.105-0.432-0.21-0.693-0.337
	C40.741,4.958,41.374,3.744,42.008,2.529z M41.851,4.446c0.309,0.129,0.584,0.425,1.047,0.353c0.122-0.176,0.262-0.376,0.367-0.528
	c-0.092-0.562-0.542-0.611-0.872-0.801C42.208,3.802,42.038,4.107,41.851,4.446z"/>
<path fill-rule="evenodd" clip-rule="evenodd" d="M52.457,46.277c-0.084,0.096-0.134,0.153-0.209,0.238
	c0.389,0.448,0.892,0.716,1.392,1.046c-0.156,0.208-0.312,0.416-0.476,0.636c-1.097-0.8-2.205-1.607-3.316-2.419
	c0.532-0.535,0.688-1.315,1.513-1.649c0.168,0,0.463,0,0.767,0c0.491,0.267,0.648,0.498,0.789,1.395
	c0.656,0.056,1.313,0.111,2.031,0.172c-0.148,0.217-0.278,0.409-0.396,0.582C53.83,46.277,53.149,46.277,52.457,46.277z
	 M50.816,45.583c0.325,0.215,0.618,0.408,0.933,0.615c0.152-0.211,0.286-0.396,0.418-0.578c0-0.162,0-0.321,0-0.38
	c-0.134-0.184-0.226-0.311-0.281-0.386C51.263,44.757,51.085,45.195,50.816,45.583z"/>
<path fill-rule="evenodd" clip-rule="evenodd" d="M27.391,2.513c0.436,0.527,0.832,1.004,1.252,1.513
	c-0.248,0.061-0.455,0.112-0.728,0.18c-0.407-0.484-0.842-1.001-1.301-1.547c-0.095,0-0.229,0-0.411,0
	c0,0.27-0.02,0.546,0.006,0.818c0.025,0.263,0.097,0.521,0.158,0.831c-0.155,0.008-0.271-0.002-0.379,0.023
	c-0.106,0.025-0.203,0.086-0.301,0.13c-0.172-0.218-0.218-0.449-0.208-0.708c0.022-0.567-0.201-1.119-0.117-1.692
	c-0.205-0.324-0.083-0.687-0.124-1.03c-0.024-0.205-0.084-0.406-0.137-0.644c0.271-0.051,0.528-0.1,0.787-0.148
	c0.243-0.045,0.519,0.115,0.734-0.115c0.167,0.212,0.405,0.073,0.589,0.128c0.713,0.262,0.723,0.842,0.66,1.489
	C27.852,2.065,27.357,2.177,27.391,2.513z M27.166,1.165c-0.115-0.126-0.208-0.229-0.274-0.3c-0.329,0-0.623,0-0.968,0
	c0.054,0.405,0.103,0.78,0.156,1.177c0.455,0.015,0.82-0.085,1.086-0.424C27.166,1.465,27.166,1.326,27.166,1.165z"/>
<path fill-rule="evenodd" clip-rule="evenodd" d="M15.404,50.69c0.235,0.173,0.418,0.309,0.627,0.462
	c-0.299,0.541-0.583,1.057-0.913,1.653c0.362-0.15,0.662-0.271,0.958-0.399c0.204-0.087,0.428-0.151,0.601-0.282
	c0.254-0.192,0.524-0.219,0.77-0.195c0.22,0.113,0.401,0.207,0.634,0.327c-0.708,0.324-1.381,0.632-2.098,0.959
	c0.046,0.39-0.008,0.821,0.098,1.275c0.111,0.471,0.025,0.988,0.025,1.532c-0.258-0.137-0.479-0.255-0.694-0.369
	c-0.062-0.723-0.123-1.419-0.184-2.134c-0.06,0.025-0.133,0.082-0.208,0.086c-0.373,0.018-0.561,0.262-0.716,0.555
	c-0.114,0.215-0.228,0.429-0.365,0.688c-0.238-0.171-0.429-0.308-0.614-0.44c0.363-0.653,0.692-1.281,1.055-1.888
	C14.728,51.937,15.074,51.351,15.404,50.69z"/>
<path fill-rule="evenodd" clip-rule="evenodd" d="M6.086,38.584c0.057,0.128,0.094,0.213,0.152,0.343
	c-0.534,0.485-1.105,0.985-1.653,1.509c-0.572,0.547-1.122,1.116-1.718,1.713c-0.12-0.297-0.213-0.528-0.311-0.771
	c0.204-0.204,0.43-0.43,0.668-0.669c-0.19-0.425-0.382-0.855-0.574-1.285c-0.343,0-0.638,0-0.9,0
	c-0.1-0.246-0.189-0.464-0.279-0.686c0.185-0.049,0.38-0.123,0.582-0.147c0.217-0.025,0.439-0.006,0.659-0.006
	C3.831,38.584,4.95,38.584,6.086,38.584z M3.689,40.311c0.396-0.333,0.757-0.638,1.17-0.985c-0.487,0-0.902,0-1.188,0
	c-0.168,0.079-0.259,0.122-0.32,0.15c0.057,0.183,0.087,0.311,0.137,0.43C3.542,40.036,3.613,40.159,3.689,40.311z"/>
<path fill-rule="evenodd" clip-rule="evenodd" d="M35.588,2.365c0.364,0.86,0.716,1.689,1.102,2.599
	c-0.18-0.069-0.288-0.132-0.403-0.151c-0.136-0.021-0.276-0.005-0.461-0.005c-0.258-0.639-0.52-1.288-0.792-1.963
	c-0.286,0.142-0.424,0.4-0.608,0.526c-0.062,0.38-0.118,0.717-0.182,1.098C34.002,4.41,33.79,4.357,33.53,4.292
	c0.253-1.286,0.506-2.576,0.77-3.916c0.049-0.003,0.142-0.012,0.234-0.016c0.097-0.003,0.193,0,0.237,0
	c0.227,0.119,0.275,0.328,0.194,0.432c-0.196,0.253-0.021,0.567-0.2,0.826c-0.082,0.117-0.014,0.339-0.014,0.532
	c0.646-0.354,1.065-0.927,1.635-1.443c0.224,0.048,0.492,0.106,0.813,0.175C36.637,1.4,36.115,1.88,35.588,2.365z"/>
<path fill-rule="evenodd" clip-rule="evenodd" d="M47.6,48.32c0.014-0.074,0.005-0.167,0.047-0.219
	c0.111-0.14,0.245-0.262,0.398-0.42c0.108,0.088,0.217,0.163,0.31,0.255c0.455,0.449,0.902,0.907,1.36,1.354
	c0.179,0.173,0.378,0.325,0.548,0.47c0.237,0,0.437,0,0.638,0c0.239-0.221,0.483-0.44,0.567-0.818
	c-0.089-0.145-0.157-0.332-0.287-0.455c-0.385-0.363-0.712-0.781-1.167-1.08c-0.325-0.213-0.57-0.549-0.852-0.829
	c0.175-0.176,0.345-0.346,0.488-0.489c0.782,0.783,1.565,1.565,2.396,2.396c0-0.076-0.005-0.055,0.001-0.037
	c0.22,0.706-0.087,1.236-0.572,1.704c-0.085,0.082-0.668,0.391-0.783,0.425c-0.402,0.117-0.687-0.142-0.978-0.333
	c-0.181-0.118-0.323-0.298-0.471-0.461c-0.381-0.423-0.847-0.746-1.284-1.102c-0.091-0.081-0.183-0.158-0.271-0.242
	C47.654,48.406,47.629,48.36,47.6,48.32z"/>
<path fill-rule="evenodd" clip-rule="evenodd" d="M37.499,53.885c0.958,1.28,1.86,2.486,2.767,3.697
	c-0.047,0.42-0.512,0.089-0.665,0.37c-0.194-0.249-0.383-0.491-0.586-0.752c-0.488,0.059-0.938,0.23-1.34,0.355
	c-0.063,0.374-0.113,0.672-0.156,0.929c-0.261,0.062-0.462,0.109-0.705,0.167c-0.018-0.327-0.127-0.661,0.062-0.991
	c0.018-0.031,0.021-0.072,0.025-0.109c0.041-0.524,0.048-1.053,0.129-1.57c0.092-0.587,0.054-1.19,0.236-1.762
	C37.299,54.119,37.39,54.038,37.499,53.885z M37.594,56.81c0.396,0.135,0.686-0.062,1.06-0.139
	c-0.292-0.439-0.549-0.826-0.806-1.213c-0.011-0.017-0.025-0.036-0.042-0.04c-0.011-0.002-0.027,0.021-0.043,0.034
	C37.68,55.901,37.865,56.376,37.594,56.81z"/>
<path fill-rule="evenodd" clip-rule="evenodd" d="M56.255,42.78c0.084,1.061-0.396,1.57-1.122,2.038
	c-0.56,0.085-0.998-0.11-1.45-0.426c-0.561-0.392-1.199-0.67-1.801-1.003c-0.081-0.045-0.143-0.127-0.227-0.204
	c0.116-0.17,0.222-0.322,0.363-0.528c0.079,0.03,0.203,0.06,0.311,0.119c0.472,0.263,0.952,0.515,1.401,0.812
	c0.189,0.127,0.402,0.206,0.582,0.335c0.339,0.245,0.656,0.251,0.979,0.01c0.289-0.263,0.24-0.603,0.241-0.969
	c-0.735-0.75-1.758-1.096-2.667-1.725c0.036-0.079,0.083-0.197,0.143-0.309c0.052-0.099,0.119-0.189,0.204-0.322
	c0.226,0.124,0.472,0.245,0.704,0.389c0.544,0.333,1.069,0.696,1.624,1.008C55.857,42.184,56.083,42.419,56.255,42.78z"/>
<path fill-rule="evenodd" clip-rule="evenodd" d="M0.552,34.93c0.298,0.064,0.537,0.121,0.778,0.168
	c0.222,0.043,0.47-0.086,0.674,0.115c0.04,0.04,0.155-0.002,0.233,0.008c0.245,0.029,0.485-0.042,0.738,0.103
	c0.199,0.112,0.472,0.037,0.727,0.111c0.454,0.135,0.951,0.121,1.448,0.171c0,0.132,0,0.266,0,0.373
	c-1.257,0.872-2.511,1.741-3.773,2.617c-0.064-0.265-0.126-0.519-0.195-0.797c0.236-0.157,0.468-0.312,0.748-0.499
	c-0.083-0.469-0.125-0.988-0.372-1.473c-0.282,0-0.536,0-0.811,0C0.685,35.537,0.625,35.262,0.552,34.93z M3.914,36.061
	c-0.336,0-0.591,0.018-0.842-0.005c-0.254-0.023-0.505-0.087-0.805-0.142c0.072,0.377,0.13,0.684,0.193,1.014
	C2.93,36.647,3.381,36.378,3.914,36.061z"/>
<path fill-rule="evenodd" clip-rule="evenodd" d="M24.709,3.956c0.063,0.19,0.115,0.349,0.176,0.534
	c-0.352,0.293-0.834,0.233-1.24,0.399c-0.393,0.162-0.818,0.246-1.245,0.368c-0.364-1.271-0.737-2.57-1.125-3.925
	c0.817-0.235,1.65-0.474,2.482-0.713c0.052,0.216,0.104,0.433,0.155,0.641c-0.589,0.168-1.178,0.336-1.785,0.509
	c0.106,0.328,0.193,0.6,0.289,0.896c0.41-0.116,0.816-0.231,1.23-0.349c0.055,0.138,0.116,0.292,0.185,0.467
	c-0.319,0.412-0.866,0.248-1.235,0.522c0.107,0.367,0.216,0.738,0.323,1.103C23.559,4.286,24.111,4.01,24.709,3.956z"/>
<path fill-rule="evenodd" clip-rule="evenodd" d="M55.293,25.577c-0.076-0.318-0.159-0.661-0.24-1.004
	c-0.005-0.019,0.004-0.041-0.002-0.06c-0.085-0.296-0.202-0.6-0.101-0.901c0.087-0.261,0.245-0.497,0.375-0.75
	c0.258-0.087,0.517-0.189,0.784-0.26c0.255-0.068,0.482,0.091,0.709,0.163c0.145,0.046,0.317,0.118,0.42,0.339
	c0.133,0.289,0.311,0.547,0.346,0.878c0.012,0.113,0.113,0.216,0.165,0.308c0.276-0.05,0.501-0.084,0.723-0.131
	c0.201-0.043,0.399-0.1,0.626-0.158c0.026,0.146,0.038,0.258,0.068,0.365c0.031,0.106,0.081,0.206,0.14,0.348
	C57.956,25.003,56.646,25.286,55.293,25.577z M55.634,23.715c0.092,0.359-0.134,0.744,0.14,1c0.423-0.087,0.805-0.166,1.188-0.245
	c0.019-0.698-0.03-0.779-0.733-1.168C56.038,23.433,55.837,23.574,55.634,23.715z"/>
<path fill-rule="evenodd" clip-rule="evenodd" d="M16.088,7.945c-0.16,0.182-0.291,0.331-0.451,0.513
	c-0.284-0.133-0.569-0.266-0.864-0.404c-0.338,0.257-0.686,0.521-1.053,0.801c0.082,0.282,0.174,0.601,0.253,0.872
	c-0.225,0.184-0.402,0.329-0.601,0.492c-0.129-0.397-0.257-0.801-0.392-1.203c-0.207-0.615-0.328-1.257-0.587-1.857
	c-0.059-0.135-0.03-0.311-0.098-0.438c-0.071-0.136-0.024-0.285-0.134-0.433c-0.099-0.133-0.075-0.43,0.196-0.514
	C13.609,6.502,14.851,7.225,16.088,7.945z M14.281,7.689c-0.269-0.155-0.449-0.25-0.621-0.358c-0.176-0.112-0.343-0.238-0.514-0.358
	c-0.026,0.021-0.052,0.042-0.078,0.062c0.139,0.418,0.277,0.836,0.431,1.299C13.76,8.119,13.989,7.93,14.281,7.689z"/>
<path fill-rule="evenodd" clip-rule="evenodd" d="M5.777,21.064c-0.108,0.345-0.203,0.625-0.283,0.91
	c-0.076,0.27-0.129,0.546-0.207,0.814C5.204,23.074,5.102,23.353,5,23.66c-0.146,0-0.32,0-0.512,0
	c-0.04-0.04-0.097-0.097-0.153-0.153c0.153-0.649,0.506-1.252,0.471-1.945c-0.253-0.059-0.491-0.114-0.767-0.178
	c-0.383,0.336-0.24,0.874-0.487,1.288c-0.291,0.036-0.291,0.036-0.62-0.101c0.12-0.449,0.238-0.895,0.368-1.383
	c-0.625-0.253-1.25-0.364-1.894-0.58c0.2-0.185,0.066-0.526,0.404-0.667C3.11,20.308,4.434,20.684,5.777,21.064z"/>
<path fill-rule="evenodd" clip-rule="evenodd" d="M16.39,7.795c-0.06-0.251-0.108-0.451-0.158-0.656
	c0.296-0.056,0.593-0.113,0.903-0.172c0.128-0.135,0.266-0.279,0.413-0.433c0-0.042,0-0.102,0-0.113
	c-0.176-0.17-0.33-0.319-0.55-0.532c-0.392,0-0.912,0-1.401,0c-0.567-0.287-0.929-0.676-0.781-1.41
	c0.299-0.612,0.837-0.971,1.611-1.002c0.066,0.179,0.13,0.352,0.201,0.545c-0.399,0.14-0.797,0.194-1.112,0.448
	c0,0.148,0,0.283,0,0.409c0.093,0.093,0.178,0.178,0.273,0.273c0.585,0.08,1.205-0.109,1.904,0.216
	c0.096,0.114,0.281,0.333,0.45,0.533c0,0.315,0,0.593,0,0.849C17.748,7.465,17.126,7.754,16.39,7.795z"/>
<path fill-rule="evenodd" clip-rule="evenodd" d="M57.077,18.901c-0.157-0.062-0.294-0.116-0.408-0.161
	c-0.308,0.082-0.38,0.343-0.525,0.569c-0.041,0.351-0.053,0.74-0.139,1.111c-0.092,0.393-0.362,0.649-0.774,0.737
	c-0.089,0.019-0.171,0.067-0.274,0.108c-0.817-0.312-0.817-0.312-1.212-0.995c0-0.3,0-0.594,0-0.903c0.188,0,0.362,0,0.588,0
	c-0.021,0.457-0.023,0.931,0.471,1.186c0.5-0.131,0.618-0.528,0.597-0.956c-0.014-0.267,0.087-0.492,0.144-0.728
	c0.084-0.345,0.326-0.595,0.67-0.717c0.157-0.056,0.325-0.083,0.488-0.123c0.985,0.319,1.31,0.977,1.227,2.165
	c-0.125-0.025-0.245-0.046-0.363-0.073c-0.108-0.024-0.217-0.054-0.34-0.085c-0.061-0.193,0.252-0.347,0.054-0.578
	C57.167,19.327,57.15,19.115,57.077,18.901z"/>
<path fill-rule="evenodd" clip-rule="evenodd" d="M7.693,43.032c-0.105,0.026-0.21,0.053-0.323,0.082
	c-0.182-0.368-0.379-0.768-0.598-1.212c-1.082,0.5-2.103,1.115-3.215,1.625c-0.105-0.206-0.211-0.415-0.332-0.65
	c0.192-0.11,0.375-0.226,0.568-0.324c0.809-0.416,1.622-0.825,2.431-1.241c0.051-0.025,0.086-0.082,0.127-0.124
	c-0.188-0.373-0.375-0.746-0.581-1.153c0.199-0.099,0.399-0.197,0.628-0.31c0.527,1.053,1.031,2.06,1.532,3.067
	c0.016,0.032,0.002,0.08,0.002,0.119C7.853,42.951,7.773,42.992,7.693,43.032z"/>
<path fill-rule="evenodd" clip-rule="evenodd" d="M47.6,48.32c0.029,0.04,0.055,0.086,0.09,0.119
	c0.088,0.084,0.18,0.161,0.271,0.242c-0.138,0.209-0.284,0.391-0.538,0.496c-0.172,0.071-0.294,0.262-0.428,0.39
	c0.061,0.301,0.262,0.479,0.428,0.689c0.42,0.534,0.945,0.977,1.325,1.546c0.107,0.161,0.28,0.279,0.413,0.407
	c-0.151,0.152-0.292,0.293-0.467,0.467c-0.913-0.724-1.506-1.761-2.341-2.533c-0.322,0.274-0.633,0.54-0.916,0.781
	c-0.143-0.143-0.275-0.275-0.431-0.431c0.543-0.558,1.186-1.109,1.86-1.626c0.173-0.133,0.306-0.316,0.473-0.459
	C47.403,48.354,47.511,48.349,47.6,48.32z"/>
<path fill-rule="evenodd" clip-rule="evenodd" d="M20.7,5.822c-0.242,0.117-0.441,0.213-0.663,0.32
	c-0.431-1.054-0.861-2.105-1.303-3.186c-0.448,0.162-0.844,0.305-1.243,0.449c-0.073-0.232-0.128-0.408-0.186-0.593
	c1.029-0.411,2.056-0.82,3.083-1.229c0.083,0.169,0.174,0.352,0.27,0.545c-0.342,0.278-0.858,0.278-1.227,0.612
	C19.857,3.774,20.271,4.781,20.7,5.822z"/>
<path fill-rule="evenodd" clip-rule="evenodd" d="M47.036,5.392c0.198,0.142,0.385,0.274,0.568,0.406
	c-0.732,0.399-1.451,0.776-2.153,1.182c-0.191,0.11-0.355,0.29-0.491,0.47c-0.236,0.314-0.439,0.654-0.672,1.005
	c-0.186-0.104-0.348-0.195-0.556-0.312c0.039-0.126,0.052-0.258,0.116-0.357c0.185-0.286,0.41-0.547,0.58-0.841
	c0.1-0.172,0.167-0.366,0.175-0.589c0.028-0.796,0.094-1.591,0.148-2.44c0.256,0.168,0.475,0.311,0.688,0.452
	c-0.239,0.609-0.066,1.225-0.143,1.888C45.887,5.962,46.437,5.689,47.036,5.392z"/>
<path fill-rule="evenodd" clip-rule="evenodd" d="M25.002,58.401c0.623,0.06,1.2,0.112,1.775,0.174
	c0.046,0.006,0.085,0.08,0.104,0.1c-0.039,0.195-0.075,0.374-0.118,0.589c-0.248-0.045-0.525,0.095-0.766-0.122
	c-0.022-0.021-0.078-0.008-0.117-0.002c-0.571,0.082-1.111-0.198-1.734-0.106c0.057-0.294-0.067-0.555,0.124-0.814
	c0.066-0.091,0.02-0.272,0.009-0.411c-0.037-0.489,0.092-0.97,0.153-1.444c0.07-0.541,0.078-1.101,0.251-1.613
	c0.193,0.026,0.409,0.056,0.674,0.092c-0.037,0.277,0.115,0.586-0.109,0.87c-0.02,0.024-0.011,0.077-0.005,0.116
	c0.091,0.552-0.169,1.077-0.129,1.628c0.01,0.14-0.089,0.284-0.108,0.43C24.986,58.042,25.002,58.203,25.002,58.401z"/>
<path fill-rule="evenodd" clip-rule="evenodd" d="M7.693,43.032c0.08-0.04,0.16-0.081,0.24-0.121
	c0.28,0.106,0.361,0.371,0.507,0.636c-1.176,0.761-2.348,1.52-3.568,2.311c-0.131-0.241-0.243-0.448-0.364-0.672
	c1.05-0.676,2.055-1.32,3.056-1.97C7.622,43.178,7.65,43.094,7.693,43.032z"/>
<path fill-rule="evenodd" clip-rule="evenodd" d="M34.669,54.812c0.2-0.243,0.493-0.066,0.776-0.137
	c-0.018,0.748,0.283,1.399,0.405,2.09c0.115,0.653,0.186,1.334,0.474,1.976c-0.286,0.067-0.542,0.128-0.794,0.188
	C35.243,57.555,34.962,56.213,34.669,54.812z"/>
<path fill-rule="evenodd" clip-rule="evenodd" d="M7.703,16.944c-0.124,0.242-0.217,0.423-0.31,0.605
	c-0.04,0-0.08,0.005-0.119-0.001c-0.055-0.009-0.118-0.012-0.161-0.042c-1.086-0.759-2.314-1.286-3.44-2.058
	c0.092-0.12,0.166-0.205,0.226-0.298c0.05-0.077,0.085-0.164,0.152-0.297C5.296,15.522,6.5,16.254,7.703,16.944z"/>
<path fill-rule="evenodd" clip-rule="evenodd" d="M37.537,5.29c-0.17-0.056-0.328-0.107-0.52-0.169
	c0.04-0.454,0.182-0.887,0.343-1.326c0.151-0.415,0.244-0.854,0.381-1.277c0.143-0.438,0.275-0.88,0.41-1.316
	c0.214,0.055,0.413,0.106,0.657,0.169c0.145,0.161-0.061,0.323-0.113,0.482c-0.26,0.792-0.479,1.595-0.706,2.395
	c-0.081,0.286-0.245,0.545-0.254,0.855C37.733,5.158,37.626,5.21,37.537,5.29z"/>
<path fill-rule="evenodd" clip-rule="evenodd" d="M58.319,20.704c0.058,0.208,0.121,0.432,0.2,0.713
	c-1.274,0.34-2.562,0.684-3.861,1.03c-0.193-0.296-0.193-0.296-0.21-0.677C55.702,21.425,56.968,21.076,58.319,20.704z"/>
</svg>
