<svg xmlns="http://www.w3.org/2000/svg" viewBox="0 0 185 185"><path d="M181.9 97.8c.1-1.8.2-3.6.3-5.3 0-3.9-.3-7.8-.9-11.7-7.8-.5-14.2-1-20.5-1.5-.9-4.9-2.4-9.7-4.4-14.2 5-4 10.1-7.9 16.3-12.8-2.6-5.1-5.6-9.9-9.1-14.4-7.1 3.5-12.8 6.3-18.6 9-3.3-3.8-6.9-7.1-10.9-10.1 2.4-5.9 4.8-11.9 7.7-19.2-4.7-3.1-9.8-5.8-15-8-4.4 6.5-8 11.8-11.6 17.1-4.7-1.6-9.5-2.8-14.5-3.4-.9-6.3-1.8-12.6-2.9-20.4-1.8-.1-3.6-.2-5.3-.3-3.9 0-7.8.3-11.7.9-.5 7.8-1 14.2-1.5 20.5-4.9.9-9.7 2.4-14.2 4.4-4-5-7.9-10.1-12.8-16.3-5.1 2.6-9.9 5.6-14.4 9.1 3.5 7.1 6.3 12.8 9 18.6-3.8 3.3-7.1 6.9-10.1 10.9-5.8-2.2-11.8-4.6-19.1-7.5-3.1 4.7-5.8 9.8-8 15 6.5 4.4 11.9 8 17.2 11.6-1.6 4.7-2.8 9.5-3.4 14.5-6.3.9-12.6 1.8-20.4 2.9-.1 1.8-.2 3.6-.3 5.3 0 3.9.3 7.8.9 11.7 7.8.5 14.2 1 20.5 1.5.9 4.9 2.4 9.6 4.4 14.2-5 4-10.1 7.9-16.3 12.8 2.6 5.1 5.6 9.9 9.1 14.4 7.1-3.5 12.8-6.3 18.6-9 3.3 3.8 6.9 7.1 10.9 10.1-2.4 5.9-4.8 11.9-7.7 19.2 4.7 3.1 9.8 5.8 15 8 4.4-6.5 8-11.8 11.6-17.1 4.7 1.6 9.5 2.8 14.5 3.4.9 6.3 1.8 12.6 2.9 20.4 1.8.1 3.6.2 5.3.3 3.9 0 7.8-.3 11.7-.9.5-7.8 1-14.2 1.5-20.5 4.9-.9 9.6-2.4 14.2-4.4 4 5 7.9 10.1 12.8 16.3 5.1-2.5 9.9-5.6 14.4-9-3.5-7.1-6.3-12.8-9-18.6 3.8-3.3 7.1-6.9 10.1-10.9 5.9 2.4 11.9 4.8 19.2 7.7 3.1-4.7 5.8-9.8 8-15-6.5-4.4-11.8-8-17.1-11.6 1.6-4.7 2.8-9.5 3.4-14.5 6.1-1.2 12.4-2 20.2-3.2zM92.1 148c-30.6 0-55.4-24.8-55.4-55.4 0-30.6 24.8-55.4 55.4-55.4s55.4 24.8 55.4 55.4c0 30.6-24.8 55.4-55.4 55.4z" fill-rule="evenodd" clip-rule="evenodd" fill="#fff" stroke="#004bb7" stroke-width="4.332" stroke-linecap="round"/><path d="M181.9 97.8c.1-1.8.2-3.6.3-5.3 0-3.9-.3-7.8-.9-11.7-7.8-.5-14.2-1-20.5-1.5-.9-4.9-2.4-9.7-4.4-14.2 5-4 10.1-7.9 16.3-12.8-2.6-5.1-5.6-9.9-9.1-14.4-7.1 3.5-12.8 6.3-18.6 9-3.3-3.8-6.9-7.1-10.9-10.1 2.4-5.9 4.8-11.9 7.7-19.2-4.7-3.1-9.8-5.8-15-8-4.4 6.5-8 11.8-11.6 17.1-4.7-1.6-9.5-2.8-14.5-3.4-.9-6.3-1.8-12.6-2.9-20.4-1.8-.1-3.6-.2-5.3-.3-3.9 0-7.8.3-11.7.9-.5 7.8-1 14.2-1.5 20.5-4.9.9-9.7 2.4-14.2 4.4-4-5-7.9-10.1-12.8-16.3-5.1 2.6-9.9 5.6-14.4 9.1 3.5 7.1 6.3 12.8 9 18.6-3.8 3.3-7.1 6.9-10.1 10.9-5.8-2.2-11.8-4.6-19.1-7.5-3.1 4.7-5.8 9.8-8 15 6.5 4.4 11.9 8 17.2 11.6-1.6 4.7-2.8 9.5-3.4 14.5-6.3.9-12.6 1.8-20.4 2.9-.1 1.8-.2 3.6-.3 5.3 0 3.9.3 7.8.9 11.7 7.8.5 14.2 1 20.5 1.5.9 4.9 2.4 9.6 4.4 14.2-5 4-10.1 7.9-16.3 12.8 2.6 5.1 5.6 9.9 9.1 14.4 7.1-3.5 12.8-6.3 18.6-9 3.3 3.8 6.9 7.1 10.9 10.1-2.4 5.9-4.8 11.9-7.7 19.2 4.7 3.1 9.8 5.8 15 8 4.4-6.5 8-11.8 11.6-17.1 4.7 1.6 9.5 2.8 14.5 3.4.9 6.3 1.8 12.6 2.9 20.4 1.8.1 3.6.2 5.3.3 3.9 0 7.8-.3 11.7-.9.5-7.8 1-14.2 1.5-20.5 4.9-.9 9.6-2.4 14.2-4.4 4 5 7.9 10.1 12.8 16.3 5.1-2.5 9.9-5.6 14.4-9-3.5-7.1-6.3-12.8-9-18.6 3.8-3.3 7.1-6.9 10.1-10.9 5.9 2.4 11.9 4.8 19.2 7.7 3.1-4.7 5.8-9.8 8-15-6.5-4.4-11.8-8-17.1-11.6 1.6-4.7 2.8-9.5 3.4-14.5 6.1-1.2 12.4-2 20.2-3.2zM92.1 148c-30.6 0-55.4-24.8-55.4-55.4 0-30.6 24.8-55.4 55.4-55.4s55.4 24.8 55.4 55.4c0 30.6-24.8 55.4-55.4 55.4z" fill="#fff" stroke="#fff" stroke-width="4.332" stroke-linecap="round"/></svg>